G04*
G04 #@! TF.GenerationSoftware,Altium Limited,Altium Designer,18.1.7 (191)*
G04*
G04 Layer_Color=2752767*
%FSLAX24Y24*%
%MOIN*%
G70*
G01*
G75*
%ADD10C,0.0060*%
%ADD14C,0.0100*%
%ADD51C,0.0020*%
%ADD52C,0.0027*%
%ADD53C,0.0040*%
%ADD54C,0.0050*%
D10*
X1240Y-1010D02*
X1440D01*
X1340D01*
Y-410D01*
X1240Y-510D01*
X1740D02*
X1840Y-410D01*
X2040D01*
X2140Y-510D01*
Y-610D01*
X2040Y-710D01*
X1940D01*
X2040D01*
X2140Y-810D01*
Y-910D01*
X2040Y-1010D01*
X1840D01*
X1740Y-910D01*
X2340Y-1010D02*
Y-910D01*
X2440D01*
Y-1010D01*
X2340D01*
X2840Y-410D02*
X3240D01*
Y-510D01*
X2840Y-910D01*
Y-1010D01*
X3840D02*
X3440D01*
X3840Y-610D01*
Y-510D01*
X3740Y-410D01*
X3540D01*
X3440Y-510D01*
X-790Y4008D02*
Y3609D01*
X-1190Y4008D01*
X-1290D01*
X-1390Y3908D01*
Y3709D01*
X-1290Y3609D01*
X-1390Y4608D02*
X-1290Y4408D01*
X-1090Y4208D01*
X-890D01*
X-790Y4308D01*
Y4508D01*
X-890Y4608D01*
X-990D01*
X-1090Y4508D01*
Y4208D01*
X-790Y4808D02*
X-890D01*
Y4908D01*
X-790D01*
Y4808D01*
X-1290Y5308D02*
X-1390Y5408D01*
Y5608D01*
X-1290Y5708D01*
X-890D01*
X-790Y5608D01*
Y5408D01*
X-890Y5308D01*
X-1290D01*
Y5908D02*
X-1390Y6008D01*
Y6208D01*
X-1290Y6308D01*
X-890D01*
X-790Y6208D01*
Y6008D01*
X-890Y5908D01*
X-1290D01*
D14*
X5400Y-750D02*
Y180D01*
X0Y-750D02*
Y180D01*
X4000Y-650D02*
X5400D01*
X0D02*
X1080D01*
X4800Y-450D02*
X5400Y-650D01*
X4800Y-850D02*
X5400Y-650D01*
X0D02*
X600Y-850D01*
X0Y-650D02*
X600Y-450D01*
X-1250Y0D02*
X4980D01*
X-1250Y10236D02*
X4980D01*
X-1150Y0D02*
Y3449D01*
Y6468D02*
Y10236D01*
Y0D02*
X-950Y600D01*
X-1350D02*
X-1150Y0D01*
X-1350Y9636D02*
X-1150Y10236D01*
X-950Y9636D01*
D51*
X2406Y3481D02*
Y3641D01*
X2566D01*
Y3481D01*
X2406D01*
X2486D02*
X2406Y3641D01*
X2566D01*
X2486Y3481D01*
X4300Y2670D02*
X4340Y2710D01*
X4380D01*
X4340Y2750D01*
X4380Y2790D01*
X4340D01*
X4300Y2830D01*
X4260Y2790D01*
X4220D01*
X4260Y2750D01*
X4220Y2710D01*
X4260D01*
X4300Y2670D01*
X2970Y6420D02*
X3010Y6500D01*
X2970Y6580D01*
X3050Y6540D01*
X3130Y6580D01*
X3090Y6500D01*
X3130Y6420D01*
X3050Y6460D01*
X2970Y6420D01*
X2870Y5770D02*
X2910Y5850D01*
X2870Y5930D01*
X2950Y5890D01*
X3030Y5930D01*
X2990Y5850D01*
X3030Y5770D01*
X2950Y5810D01*
X2870Y5770D01*
Y6120D02*
X2910Y6200D01*
X2870Y6280D01*
X2950Y6240D01*
X3030Y6280D01*
X2990Y6200D01*
X3030Y6120D01*
X2950Y6160D01*
X2870Y6120D01*
Y6770D02*
X2910Y6850D01*
X2870Y6930D01*
X2950Y6890D01*
X3030Y6930D01*
X2990Y6850D01*
X3030Y6770D01*
X2950Y6810D01*
X2870Y6770D01*
X2970Y7920D02*
X3010Y8000D01*
X2970Y8080D01*
X3050Y8040D01*
X3130Y8080D01*
X3090Y8000D01*
X3130Y7920D01*
X3050Y7960D01*
X2970Y7920D01*
X1280Y9720D02*
X1320Y9800D01*
X1280Y9880D01*
X1360Y9840D01*
X1440Y9880D01*
X1400Y9800D01*
X1440Y9720D01*
X1360Y9760D01*
X1280Y9720D01*
X3780D02*
X3820Y9800D01*
X3780Y9880D01*
X3860Y9840D01*
X3940Y9880D01*
X3900Y9800D01*
X3940Y9720D01*
X3860Y9760D01*
X3780Y9720D01*
X3158Y8370D02*
X3198Y8450D01*
X3158Y8530D01*
X3238Y8490D01*
X3318Y8530D01*
X3278Y8450D01*
X3318Y8370D01*
X3238Y8410D01*
X3158Y8370D01*
X3094Y8870D02*
X3134Y8950D01*
X3094Y9030D01*
X3174Y8990D01*
X3254Y9030D01*
X3214Y8950D01*
X3254Y8870D01*
X3174Y8910D01*
X3094Y8870D01*
X3158Y9370D02*
X3198Y9450D01*
X3158Y9530D01*
X3238Y9490D01*
X3318Y9530D01*
X3278Y9450D01*
X3318Y9370D01*
X3238Y9410D01*
X3158Y9370D01*
X3113Y9820D02*
X3153Y9900D01*
X3113Y9980D01*
X3193Y9940D01*
X3273Y9980D01*
X3233Y9900D01*
X3273Y9820D01*
X3193Y9860D01*
X3113Y9820D01*
X1905Y8470D02*
X1945Y8550D01*
X1905Y8630D01*
X1985Y8590D01*
X2065Y8630D01*
X2025Y8550D01*
X2065Y8470D01*
X1985Y8510D01*
X1905Y8470D01*
X1920Y8954D02*
X1960Y9034D01*
X1920Y9114D01*
X2000Y9074D01*
X2080Y9114D01*
X2040Y9034D01*
X2080Y8954D01*
X2000Y8994D01*
X1920Y8954D01*
X1891Y9420D02*
X1931Y9500D01*
X1891Y9580D01*
X1971Y9540D01*
X2051Y9580D01*
X2011Y9500D01*
X2051Y9420D01*
X1971Y9460D01*
X1891Y9420D01*
X1905Y9856D02*
X1945Y9936D01*
X1905Y10016D01*
X1985Y9976D01*
X2065Y10016D01*
X2025Y9936D01*
X2065Y9856D01*
X1985Y9896D01*
X1905Y9856D01*
X4986Y9720D02*
X5026Y9800D01*
X4986Y9880D01*
X5066Y9840D01*
X5146Y9880D01*
X5106Y9800D01*
X5146Y9720D01*
X5066Y9760D01*
X4986Y9720D01*
X4420Y9820D02*
X4460Y9900D01*
X4420Y9980D01*
X4500Y9940D01*
X4580Y9980D01*
X4540Y9900D01*
X4580Y9820D01*
X4500Y9860D01*
X4420Y9820D01*
X527Y9720D02*
X567Y9800D01*
X527Y9880D01*
X607Y9840D01*
X687Y9880D01*
X647Y9800D01*
X687Y9720D01*
X607Y9760D01*
X527Y9720D01*
X181Y9806D02*
X221Y9886D01*
X181Y9966D01*
X261Y9926D01*
X341Y9966D01*
X301Y9886D01*
X341Y9806D01*
X261Y9846D01*
X181Y9806D01*
X4370Y5570D02*
X4410Y5650D01*
X4370Y5730D01*
X4450Y5690D01*
X4530Y5730D01*
X4490Y5650D01*
X4530Y5570D01*
X4450Y5610D01*
X4370Y5570D01*
X3175Y4175D02*
X3215Y4254D01*
X3175Y4335D01*
X3255Y4295D01*
X3335Y4335D01*
X3295Y4254D01*
X3335Y4175D01*
X3255Y4214D01*
X3175Y4175D01*
X4020Y1948D02*
X4060Y2028D01*
X4020Y2108D01*
X4100Y2068D01*
X4180Y2108D01*
X4140Y2028D01*
X4180Y1948D01*
X4100Y1988D01*
X4020Y1948D01*
X4704Y170D02*
X4744Y250D01*
X4704Y330D01*
X4784Y290D01*
X4864Y330D01*
X4824Y250D01*
X4864Y170D01*
X4784Y210D01*
X4704Y170D01*
X5086Y820D02*
X5126Y900D01*
X5086Y980D01*
X5166Y940D01*
X5246Y980D01*
X5206Y900D01*
X5246Y820D01*
X5166Y860D01*
X5086Y820D01*
X4970Y1549D02*
X5010Y1629D01*
X4970Y1709D01*
X5050Y1669D01*
X5130Y1709D01*
X5090Y1629D01*
X5130Y1549D01*
X5050Y1589D01*
X4970Y1549D01*
X5066Y2270D02*
X5106Y2350D01*
X5066Y2430D01*
X5146Y2390D01*
X5226Y2430D01*
X5186Y2350D01*
X5226Y2270D01*
X5146Y2310D01*
X5066Y2270D01*
X5086Y2635D02*
X5126Y2715D01*
X5086Y2795D01*
X5166Y2755D01*
X5246Y2795D01*
X5206Y2715D01*
X5246Y2635D01*
X5166Y2675D01*
X5086Y2635D01*
X5066Y3647D02*
X5106Y3727D01*
X5066Y3807D01*
X5146Y3767D01*
X5226Y3807D01*
X5186Y3727D01*
X5226Y3647D01*
X5146Y3687D01*
X5066Y3647D01*
Y4120D02*
X5106Y4200D01*
X5066Y4280D01*
X5146Y4240D01*
X5226Y4280D01*
X5186Y4200D01*
X5226Y4120D01*
X5146Y4160D01*
X5066Y4120D01*
X5002Y4970D02*
X5042Y5050D01*
X5002Y5130D01*
X5082Y5090D01*
X5162Y5130D01*
X5122Y5050D01*
X5162Y4970D01*
X5082Y5010D01*
X5002Y4970D01*
X5020Y5521D02*
X5060Y5601D01*
X5020Y5681D01*
X5100Y5641D01*
X5180Y5681D01*
X5140Y5601D01*
X5180Y5521D01*
X5100Y5561D01*
X5020Y5521D01*
X5025Y7620D02*
X5065Y7700D01*
X5025Y7780D01*
X5105Y7740D01*
X5185Y7780D01*
X5145Y7700D01*
X5185Y7620D01*
X5105Y7660D01*
X5025Y7620D01*
X5066Y8059D02*
X5106Y8139D01*
X5066Y8219D01*
X5146Y8179D01*
X5226Y8219D01*
X5186Y8139D01*
X5226Y8059D01*
X5146Y8099D01*
X5066Y8059D01*
Y9070D02*
X5106Y9150D01*
X5066Y9230D01*
X5146Y9190D01*
X5226Y9230D01*
X5186Y9150D01*
X5226Y9070D01*
X5146Y9110D01*
X5066Y9070D01*
X1129Y6754D02*
X1169Y6834D01*
X1129Y6914D01*
X1209Y6874D01*
X1289Y6914D01*
X1249Y6834D01*
X1289Y6754D01*
X1209Y6794D01*
X1129Y6754D01*
X867Y6370D02*
X907Y6450D01*
X867Y6530D01*
X947Y6490D01*
X1027Y6530D01*
X987Y6450D01*
X1027Y6370D01*
X947Y6410D01*
X867Y6370D01*
X1470Y7270D02*
X1510Y7350D01*
X1470Y7430D01*
X1550Y7390D01*
X1630Y7430D01*
X1590Y7350D01*
X1630Y7270D01*
X1550Y7310D01*
X1470Y7270D01*
X1315Y8020D02*
X1355Y8100D01*
X1315Y8180D01*
X1395Y8140D01*
X1475Y8180D01*
X1435Y8100D01*
X1475Y8020D01*
X1395Y8060D01*
X1315Y8020D01*
X1020Y7470D02*
X1060Y7550D01*
X1020Y7630D01*
X1100Y7590D01*
X1180Y7630D01*
X1140Y7550D01*
X1180Y7470D01*
X1100Y7510D01*
X1020Y7470D01*
X870Y9120D02*
X910Y9200D01*
X870Y9280D01*
X950Y9240D01*
X1030Y9280D01*
X990Y9200D01*
X1030Y9120D01*
X950Y9160D01*
X870Y9120D01*
X170Y9124D02*
X210Y9204D01*
X170Y9284D01*
X250Y9244D01*
X330Y9284D01*
X290Y9204D01*
X330Y9124D01*
X250Y9164D01*
X170Y9124D01*
Y8720D02*
X210Y8800D01*
X170Y8880D01*
X250Y8840D01*
X330Y8880D01*
X290Y8800D01*
X330Y8720D01*
X250Y8760D01*
X170Y8720D01*
X181Y8011D02*
X221Y8091D01*
X181Y8171D01*
X261Y8131D01*
X341Y8171D01*
X301Y8091D01*
X341Y8011D01*
X261Y8051D01*
X181Y8011D01*
X220Y7270D02*
X260Y7350D01*
X220Y7430D01*
X300Y7390D01*
X380Y7430D01*
X340Y7350D01*
X380Y7270D01*
X300Y7310D01*
X220Y7270D01*
X170Y6520D02*
X210Y6600D01*
X170Y6680D01*
X250Y6640D01*
X330Y6680D01*
X290Y6600D01*
X330Y6520D01*
X250Y6560D01*
X170Y6520D01*
Y5855D02*
X210Y5935D01*
X170Y6015D01*
X250Y5975D01*
X330Y6015D01*
X290Y5935D01*
X330Y5855D01*
X250Y5895D01*
X170Y5855D01*
X181Y5320D02*
X221Y5400D01*
X181Y5480D01*
X261Y5440D01*
X341Y5480D01*
X301Y5400D01*
X341Y5320D01*
X261Y5360D01*
X181Y5320D01*
X220Y4342D02*
X260Y4422D01*
X220Y4502D01*
X300Y4462D01*
X380Y4502D01*
X340Y4422D01*
X380Y4342D01*
X300Y4382D01*
X220Y4342D01*
X450Y4889D02*
X490Y4929D01*
X530D01*
X490Y4969D01*
X530Y5009D01*
X490D01*
X450Y5049D01*
X410Y5009D01*
X370D01*
X410Y4969D01*
X370Y4929D01*
X410D01*
X450Y4889D01*
X5105Y420D02*
X5145Y460D01*
X5185D01*
X5145Y500D01*
X5185Y540D01*
X5145D01*
X5105Y580D01*
X5065Y540D01*
X5025D01*
X5065Y500D01*
X5025Y460D01*
X5065D01*
X5105Y420D01*
X5069Y1220D02*
X5109Y1260D01*
X5149D01*
X5109Y1300D01*
X5149Y1340D01*
X5109D01*
X5069Y1380D01*
X5029Y1340D01*
X4989D01*
X5029Y1300D01*
X4989Y1260D01*
X5029D01*
X5069Y1220D01*
X5080Y1920D02*
X5120Y1960D01*
X5160D01*
X5120Y2000D01*
X5160Y2040D01*
X5120D01*
X5080Y2080D01*
X5040Y2040D01*
X5000D01*
X5040Y2000D01*
X5000Y1960D01*
X5040D01*
X5080Y1920D01*
X300Y270D02*
X340Y310D01*
X380D01*
X340Y350D01*
X380Y390D01*
X340D01*
X300Y430D01*
X260Y390D01*
X220D01*
X260Y350D01*
X220Y310D01*
X260D01*
X300Y270D01*
X650Y1945D02*
X690Y1985D01*
X730D01*
X690Y2025D01*
X730Y2065D01*
X690D01*
X650Y2105D01*
X610Y2065D01*
X570D01*
X610Y2025D01*
X570Y1985D01*
X610D01*
X650Y1945D01*
X3800Y2254D02*
X3840Y2294D01*
X3880D01*
X3840Y2334D01*
X3880Y2374D01*
X3840D01*
X3800Y2414D01*
X3760Y2374D01*
X3720D01*
X3760Y2334D01*
X3720Y2294D01*
X3760D01*
X3800Y2254D01*
X3250Y2770D02*
X3290Y2810D01*
X3330D01*
X3290Y2850D01*
X3330Y2890D01*
X3290D01*
X3250Y2930D01*
X3210Y2890D01*
X3170D01*
X3210Y2850D01*
X3170Y2810D01*
X3210D01*
X3250Y2770D01*
X1650Y2570D02*
X1690Y2610D01*
X1730D01*
X1690Y2650D01*
X1730Y2690D01*
X1690D01*
X1650Y2730D01*
X1610Y2690D01*
X1570D01*
X1610Y2650D01*
X1570Y2610D01*
X1610D01*
X1650Y2570D01*
X2183Y2020D02*
X2223Y2060D01*
X2263D01*
X2223Y2100D01*
X2263Y2140D01*
X2223D01*
X2183Y2180D01*
X2143Y2140D01*
X2103D01*
X2143Y2100D01*
X2103Y2060D01*
X2143D01*
X2183Y2020D01*
X2750Y1844D02*
X2790Y1884D01*
X2830D01*
X2790Y1924D01*
X2830Y1964D01*
X2790D01*
X2750Y2004D01*
X2710Y1964D01*
X2670D01*
X2710Y1924D01*
X2670Y1884D01*
X2710D01*
X2750Y1844D01*
X450Y870D02*
X490Y910D01*
X530D01*
X490Y950D01*
X530Y990D01*
X490D01*
X450Y1030D01*
X410Y990D01*
X370D01*
X410Y950D01*
X370Y910D01*
X410D01*
X450Y870D01*
X3896Y7770D02*
X3936Y7810D01*
X3976D01*
X3936Y7850D01*
X3976Y7890D01*
X3936D01*
X3896Y7930D01*
X3856Y7890D01*
X3816D01*
X3856Y7850D01*
X3816Y7810D01*
X3856D01*
X3896Y7770D01*
X3910Y9120D02*
X3950Y9160D01*
X3990D01*
X3950Y9200D01*
X3990Y9240D01*
X3950D01*
X3910Y9280D01*
X3870Y9240D01*
X3830D01*
X3870Y9200D01*
X3830Y9160D01*
X3870D01*
X3910Y9120D01*
X1400Y8520D02*
X1440Y8560D01*
X1480D01*
X1440Y8600D01*
X1480Y8640D01*
X1440D01*
X1400Y8680D01*
X1360Y8640D01*
X1320D01*
X1360Y8600D01*
X1320Y8560D01*
X1360D01*
X1400Y8520D01*
Y9120D02*
X1440Y9160D01*
X1480D01*
X1440Y9200D01*
X1480Y9240D01*
X1440D01*
X1400Y9280D01*
X1360Y9240D01*
X1320D01*
X1360Y9200D01*
X1320Y9160D01*
X1360D01*
X1400Y9120D01*
X2000Y7870D02*
X2040Y7910D01*
X2080D01*
X2040Y7950D01*
X2080Y7990D01*
X2040D01*
X2000Y8030D01*
X1960Y7990D01*
X1920D01*
X1960Y7950D01*
X1920Y7910D01*
X1960D01*
X2000Y7870D01*
X5150Y6004D02*
X5190Y6044D01*
X5230D01*
X5190Y6084D01*
X5230Y6124D01*
X5190D01*
X5150Y6164D01*
X5110Y6124D01*
X5070D01*
X5110Y6084D01*
X5070Y6044D01*
X5110D01*
X5150Y6004D01*
X5166Y7054D02*
X5206Y7094D01*
X5246D01*
X5206Y7134D01*
X5246Y7174D01*
X5206D01*
X5166Y7214D01*
X5126Y7174D01*
X5086D01*
X5126Y7134D01*
X5086Y7094D01*
X5126D01*
X5166Y7054D01*
X3300Y5514D02*
X3340Y5554D01*
X3380D01*
X3340Y5594D01*
X3380Y5634D01*
X3340D01*
X3300Y5674D01*
X3260Y5634D01*
X3220D01*
X3260Y5594D01*
X3220Y5554D01*
X3260D01*
X3300Y5514D01*
X2000Y5570D02*
X2040Y5610D01*
X2080D01*
X2040Y5650D01*
X2080Y5690D01*
X2040D01*
X2000Y5730D01*
X1960Y5690D01*
X1920D01*
X1960Y5650D01*
X1920Y5610D01*
X1960D01*
X2000Y5570D01*
X2143Y3218D02*
Y3178D01*
X2223D01*
Y3218D01*
X2263D01*
Y3298D01*
X2223D01*
Y3338D01*
X2143D01*
Y3298D01*
X2103D01*
Y3218D01*
X2143D01*
X2756Y3841D02*
Y3801D01*
X2836D01*
Y3841D01*
X2876D01*
Y3921D01*
X2836D01*
Y3961D01*
X2756D01*
Y3921D01*
X2716D01*
Y3841D01*
X2756D01*
X2766Y3221D02*
Y3181D01*
X2846D01*
Y3221D01*
X2886D01*
Y3301D01*
X2846D01*
Y3341D01*
X2766D01*
Y3301D01*
X2726D01*
Y3221D01*
X2766D01*
X2146Y3841D02*
Y3801D01*
X2226D01*
Y3841D01*
X2266D01*
Y3921D01*
X2226D01*
Y3961D01*
X2146D01*
Y3921D01*
X2106D01*
Y3841D01*
X2146D01*
X3250Y4526D02*
X3290Y4566D01*
X3330D01*
X3290Y4606D01*
X3330Y4646D01*
X3290D01*
X3250Y4686D01*
X3210Y4646D01*
X3170D01*
X3210Y4606D01*
X3170Y4566D01*
X3210D01*
X3250Y4526D01*
X1500Y4104D02*
X1540Y4144D01*
X1580D01*
X1540Y4184D01*
X1580Y4224D01*
X1540D01*
X1500Y4264D01*
X1460Y4224D01*
X1420D01*
X1460Y4184D01*
X1420Y4144D01*
X1460D01*
X1500Y4104D01*
X1850Y4509D02*
X1890Y4549D01*
X1930D01*
X1890Y4589D01*
X1930Y4629D01*
X1890D01*
X1850Y4669D01*
X1810Y4629D01*
X1770D01*
X1810Y4589D01*
X1770Y4549D01*
X1810D01*
X1850Y4509D01*
X1950Y5920D02*
X1990Y5960D01*
X2030D01*
X1990Y6000D01*
X2030Y6040D01*
X1990D01*
X1950Y6080D01*
X1910Y6040D01*
X1870D01*
X1910Y6000D01*
X1870Y5960D01*
X1910D01*
X1950Y5920D01*
X2150Y6420D02*
X2190Y6460D01*
X2230D01*
X2190Y6500D01*
X2230Y6540D01*
X2190D01*
X2150Y6580D01*
X2110Y6540D01*
X2070D01*
X2110Y6500D01*
X2070Y6460D01*
X2110D01*
X2150Y6420D01*
X350Y3954D02*
X390Y3994D01*
X430D01*
X390Y4034D01*
X430Y4074D01*
X390D01*
X350Y4114D01*
X310Y4074D01*
X270D01*
X310Y4034D01*
X270Y3994D01*
X310D01*
X350Y3954D01*
X700Y5470D02*
X740Y5510D01*
X780D01*
X740Y5550D01*
X780Y5590D01*
X740D01*
X700Y5630D01*
X660Y5590D01*
X620D01*
X660Y5550D01*
X620Y5510D01*
X660D01*
X700Y5470D01*
X5105Y8520D02*
X5145Y8560D01*
X5185D01*
X5145Y8600D01*
X5185Y8640D01*
X5145D01*
X5105Y8680D01*
X5065Y8640D01*
X5025D01*
X5065Y8600D01*
X5025Y8560D01*
X5065D01*
X5105Y8520D01*
X4600Y9154D02*
X4640Y9194D01*
X4680D01*
X4640Y9234D01*
X4680Y9274D01*
X4640D01*
X4600Y9314D01*
X4560Y9274D01*
X4520D01*
X4560Y9234D01*
X4520Y9194D01*
X4560D01*
X4600Y9154D01*
X600D02*
X640Y9194D01*
X680D01*
X640Y9234D01*
X680Y9274D01*
X640D01*
X600Y9314D01*
X560Y9274D01*
X520D01*
X560Y9234D01*
X520Y9194D01*
X560D01*
X600Y9154D01*
X5150Y6470D02*
X5190Y6510D01*
X5230D01*
X5190Y6550D01*
X5230Y6590D01*
X5190D01*
X5150Y6630D01*
X5110Y6590D01*
X5070D01*
X5110Y6550D01*
X5070Y6510D01*
X5110D01*
X5150Y6470D01*
X3910Y8404D02*
X3950Y8444D01*
X3990D01*
X3950Y8484D01*
X3990Y8524D01*
X3950D01*
X3910Y8564D01*
X3870Y8524D01*
X3830D01*
X3870Y8484D01*
X3830Y8444D01*
X3870D01*
X3910Y8404D01*
X600D02*
X640Y8444D01*
X680D01*
X640Y8484D01*
X680Y8524D01*
X640D01*
X600Y8564D01*
X560Y8524D01*
X520D01*
X560Y8484D01*
X520Y8444D01*
X560D01*
X600Y8404D01*
Y7654D02*
X640Y7694D01*
X680D01*
X640Y7734D01*
X680Y7774D01*
X640D01*
X600Y7814D01*
X560Y7774D01*
X520D01*
X560Y7734D01*
X520Y7694D01*
X560D01*
X600Y7654D01*
X4600Y6320D02*
X4640Y6360D01*
X4680D01*
X4640Y6400D01*
X4680Y6440D01*
X4640D01*
X4600Y6480D01*
X4560Y6440D01*
X4520D01*
X4560Y6400D01*
X4520Y6360D01*
X4560D01*
X4600Y6320D01*
X3356Y7974D02*
X3396Y8014D01*
X3436D01*
X3396Y8054D01*
X3436Y8094D01*
X3396D01*
X3356Y8134D01*
X3316Y8094D01*
X3276D01*
X3316Y8054D01*
X3276Y8014D01*
X3316D01*
X3356Y7974D01*
X1915Y6770D02*
X1955Y6810D01*
X1995D01*
X1955Y6850D01*
X1995Y6890D01*
X1955D01*
X1915Y6930D01*
X1875Y6890D01*
X1835D01*
X1875Y6850D01*
X1835Y6810D01*
X1875D01*
X1915Y6770D01*
X3700Y5870D02*
X3740Y5910D01*
X3780D01*
X3740Y5950D01*
X3780Y5990D01*
X3740D01*
X3700Y6030D01*
X3660Y5990D01*
X3620D01*
X3660Y5950D01*
X3620Y5910D01*
X3660D01*
X3700Y5870D01*
X3250Y6670D02*
X3290Y6710D01*
X3330D01*
X3290Y6750D01*
X3330Y6790D01*
X3290D01*
X3250Y6830D01*
X3210Y6790D01*
X3170D01*
X3210Y6750D01*
X3170Y6710D01*
X3210D01*
X3250Y6670D01*
X3800Y6360D02*
X3840Y6400D01*
X3880D01*
X3840Y6440D01*
X3880Y6480D01*
X3840D01*
X3800Y6520D01*
X3760Y6480D01*
X3720D01*
X3760Y6440D01*
X3720Y6400D01*
X3760D01*
X3800Y6360D01*
X600Y6154D02*
X640Y6194D01*
X680D01*
X640Y6234D01*
X680Y6274D01*
X640D01*
X600Y6314D01*
X560Y6274D01*
X520D01*
X560Y6234D01*
X520Y6194D01*
X560D01*
X600Y6154D01*
Y6904D02*
X640Y6944D01*
X680D01*
X640Y6984D01*
X680Y7024D01*
X640D01*
X600Y7064D01*
X560Y7024D01*
X520D01*
X560Y6984D01*
X520Y6944D01*
X560D01*
X600Y6904D01*
X2100Y7370D02*
X2140Y7410D01*
X2180D01*
X2140Y7450D01*
X2180Y7490D01*
X2140D01*
X2100Y7530D01*
X2060Y7490D01*
X2020D01*
X2060Y7450D01*
X2020Y7410D01*
X2060D01*
X2100Y7370D01*
X1350Y6154D02*
X1390Y6194D01*
X1430D01*
X1390Y6234D01*
X1430Y6274D01*
X1390D01*
X1350Y6314D01*
X1310Y6274D01*
X1270D01*
X1310Y6234D01*
X1270Y6194D01*
X1310D01*
X1350Y6154D01*
X1400Y5254D02*
X1440Y5294D01*
X1480D01*
X1440Y5334D01*
X1480Y5374D01*
X1440D01*
X1400Y5414D01*
X1360Y5374D01*
X1320D01*
X1360Y5334D01*
X1320Y5294D01*
X1360D01*
X1400Y5254D01*
X1050Y2320D02*
X1090Y2360D01*
X1130D01*
X1090Y2400D01*
X1130Y2440D01*
X1090D01*
X1050Y2480D01*
X1010Y2440D01*
X970D01*
X1010Y2400D01*
X970Y2360D01*
X1010D01*
X1050Y2320D01*
X4050Y4854D02*
X4090Y4894D01*
X4130D01*
X4090Y4934D01*
X4130Y4974D01*
X4090D01*
X4050Y5014D01*
X4010Y4974D01*
X3970D01*
X4010Y4934D01*
X3970Y4894D01*
X4010D01*
X4050Y4854D01*
X5100Y4554D02*
X5140Y4594D01*
X5180D01*
X5140Y4634D01*
X5180Y4674D01*
X5140D01*
X5100Y4714D01*
X5060Y4674D01*
X5020D01*
X5060Y4634D01*
X5020Y4594D01*
X5060D01*
X5100Y4554D01*
X2850Y2204D02*
X2890Y2244D01*
X2930D01*
X2890Y2284D01*
X2930Y2324D01*
X2890D01*
X2850Y2364D01*
X2810Y2324D01*
X2770D01*
X2810Y2284D01*
X2770Y2244D01*
X2810D01*
X2850Y2204D01*
X3700Y3754D02*
X3740Y3794D01*
X3780D01*
X3740Y3834D01*
X3780Y3874D01*
X3740D01*
X3700Y3914D01*
X3660Y3874D01*
X3620D01*
X3660Y3834D01*
X3620Y3794D01*
X3660D01*
X3700Y3754D01*
X19590Y6310D02*
G03*
X19460Y6440I-130J0D01*
G01*
X6820D02*
G03*
X6690Y6310I0J-130D01*
G01*
Y3270D02*
G03*
X6820Y3140I130J0D01*
G01*
X19460D02*
G03*
X19590Y3270I0J130D01*
G01*
X7290Y5350D02*
X18990D01*
X7290Y5739D02*
X18990D01*
X19590Y3270D02*
Y6310D01*
X6690Y3270D02*
Y6310D01*
X6820Y3140D02*
X19460D01*
X6820Y6440D02*
X19460D01*
X11039Y4309D02*
X11082D01*
X11061D01*
Y4439D01*
X11039Y4417D01*
X11147Y4309D02*
Y4330D01*
X11169D01*
Y4309D01*
X11147D01*
X11321D02*
Y4439D01*
X11256Y4374D01*
X11342D01*
X11386Y4309D02*
Y4395D01*
X11407D01*
X11429Y4374D01*
Y4309D01*
Y4374D01*
X11451Y4395D01*
X11472Y4374D01*
Y4309D01*
X11516D02*
X11559D01*
X11537D01*
Y4395D01*
X11516D01*
X11624Y4309D02*
X11667D01*
X11645D01*
Y4439D01*
X11624D01*
X9843Y4309D02*
X9799Y4352D01*
Y4395D01*
X9843Y4439D01*
X9908Y4309D02*
Y4330D01*
X9929D01*
Y4309D01*
X9908D01*
X10103Y4417D02*
X10081Y4439D01*
X10038D01*
X10016Y4417D01*
Y4330D01*
X10038Y4309D01*
X10081D01*
X10103Y4330D01*
Y4374D01*
X10059D01*
X10146Y4439D02*
Y4309D01*
X10211D01*
X10232Y4330D01*
Y4352D01*
X10211Y4374D01*
X10146D01*
X10211D01*
X10232Y4395D01*
Y4417D01*
X10211Y4439D01*
X10146D01*
X10276D02*
Y4309D01*
X10362D01*
X10406D02*
X10449Y4352D01*
Y4395D01*
X10406Y4439D01*
X7290D02*
Y4309D01*
X7355D01*
X7377Y4330D01*
Y4352D01*
X7355Y4374D01*
X7290D01*
X7355D01*
X7377Y4395D01*
Y4417D01*
X7355Y4439D01*
X7290D01*
X7442Y4309D02*
X7485D01*
X7507Y4330D01*
Y4374D01*
X7485Y4395D01*
X7442D01*
X7420Y4374D01*
Y4330D01*
X7442Y4309D01*
X7572Y4417D02*
Y4395D01*
X7550D01*
X7593D01*
X7572D01*
Y4330D01*
X7593Y4309D01*
X7680Y4417D02*
Y4395D01*
X7658D01*
X7702D01*
X7680D01*
Y4330D01*
X7702Y4309D01*
X7788D02*
X7831D01*
X7853Y4330D01*
Y4374D01*
X7831Y4395D01*
X7788D01*
X7767Y4374D01*
Y4330D01*
X7788Y4309D01*
X7896D02*
Y4395D01*
X7918D01*
X7940Y4374D01*
Y4309D01*
Y4374D01*
X7961Y4395D01*
X7983Y4374D01*
Y4309D01*
X8156Y4439D02*
Y4309D01*
X8243D01*
X8308Y4395D02*
X8351D01*
X8373Y4374D01*
Y4309D01*
X8308D01*
X8286Y4330D01*
X8308Y4352D01*
X8373D01*
X8416Y4395D02*
Y4330D01*
X8438Y4309D01*
X8503D01*
Y4287D01*
X8481Y4265D01*
X8460D01*
X8503Y4309D02*
Y4395D01*
X8611Y4309D02*
X8568D01*
X8546Y4330D01*
Y4374D01*
X8568Y4395D01*
X8611D01*
X8633Y4374D01*
Y4352D01*
X8546D01*
X8676Y4395D02*
Y4309D01*
Y4352D01*
X8698Y4374D01*
X8720Y4395D01*
X8741D01*
X17271Y4623D02*
X17249Y4645D01*
X17206D01*
X17184Y4623D01*
Y4537D01*
X17206Y4515D01*
X17249D01*
X17271Y4537D01*
X17336Y4515D02*
X17379D01*
X17401Y4537D01*
Y4580D01*
X17379Y4602D01*
X17336D01*
X17314Y4580D01*
Y4537D01*
X17336Y4515D01*
X17444Y4602D02*
Y4515D01*
Y4558D01*
X17466Y4580D01*
X17488Y4602D01*
X17509D01*
X17639Y4515D02*
X17596D01*
X17574Y4537D01*
Y4580D01*
X17596Y4602D01*
X17639D01*
X17661Y4580D01*
Y4558D01*
X17574D01*
X15800Y4515D02*
Y4645D01*
X15735Y4580D01*
X15821D01*
X15865Y4515D02*
Y4537D01*
X15886D01*
Y4515D01*
X15865D01*
X15973Y4623D02*
X15995Y4645D01*
X16038D01*
X16060Y4623D01*
Y4602D01*
X16038Y4580D01*
X16060Y4558D01*
Y4537D01*
X16038Y4515D01*
X15995D01*
X15973Y4537D01*
Y4558D01*
X15995Y4580D01*
X15973Y4602D01*
Y4623D01*
X15995Y4580D02*
X16038D01*
X16103Y4623D02*
X16125Y4645D01*
X16168D01*
X16190Y4623D01*
Y4537D01*
X16168Y4515D01*
X16125D01*
X16103Y4537D01*
Y4623D01*
X13962Y4645D02*
X13875D01*
Y4580D01*
X13919D01*
X13875D01*
Y4515D01*
X14005D02*
Y4645D01*
X14070D01*
X14092Y4623D01*
Y4580D01*
X14070Y4558D01*
X14005D01*
X14049D02*
X14092Y4515D01*
X14135Y4580D02*
X14222D01*
X14330Y4515D02*
Y4645D01*
X14265Y4580D01*
X14352D01*
X12512Y4645D02*
X12426D01*
Y4580D01*
X12469Y4602D01*
X12491D01*
X12512Y4580D01*
Y4537D01*
X12491Y4515D01*
X12447D01*
X12426Y4537D01*
X12556D02*
X12577Y4515D01*
X12621D01*
X12642Y4537D01*
Y4623D01*
X12621Y4645D01*
X12577D01*
X12556Y4623D01*
Y4602D01*
X12577Y4580D01*
X12642D01*
X12686Y4515D02*
Y4537D01*
X12707D01*
Y4515D01*
X12686D01*
X12794Y4623D02*
X12816Y4645D01*
X12859D01*
X12881Y4623D01*
Y4537D01*
X12859Y4515D01*
X12816D01*
X12794Y4537D01*
Y4623D01*
X13010Y4645D02*
X12924D01*
Y4580D01*
X12967Y4602D01*
X12989D01*
X13010Y4580D01*
Y4537D01*
X12989Y4515D01*
X12945D01*
X12924Y4537D01*
X13140Y4645D02*
X13054D01*
Y4580D01*
X13097Y4602D01*
X13119D01*
X13140Y4580D01*
Y4537D01*
X13119Y4515D01*
X13075D01*
X13054Y4537D01*
X13184Y4515D02*
Y4602D01*
X13205D01*
X13227Y4580D01*
Y4515D01*
Y4580D01*
X13249Y4602D01*
X13270Y4580D01*
Y4515D01*
X13314D02*
X13357D01*
X13335D01*
Y4602D01*
X13314D01*
X13422Y4515D02*
X13465D01*
X13444D01*
Y4645D01*
X13422D01*
X11039Y4721D02*
X11082D01*
X11061D01*
Y4851D01*
X11039Y4830D01*
X11147Y4721D02*
Y4743D01*
X11169D01*
Y4721D01*
X11147D01*
X11321D02*
Y4851D01*
X11256Y4786D01*
X11342D01*
X11386Y4721D02*
Y4808D01*
X11407D01*
X11429Y4786D01*
Y4721D01*
Y4786D01*
X11451Y4808D01*
X11472Y4786D01*
Y4721D01*
X11516D02*
X11559D01*
X11537D01*
Y4808D01*
X11516D01*
X11624Y4721D02*
X11667D01*
X11645D01*
Y4851D01*
X11624D01*
X9843Y4721D02*
X9799Y4765D01*
Y4808D01*
X9843Y4851D01*
X9908Y4721D02*
Y4743D01*
X9929D01*
Y4721D01*
X9908D01*
X10103Y4830D02*
X10081Y4851D01*
X10038D01*
X10016Y4830D01*
Y4743D01*
X10038Y4721D01*
X10081D01*
X10103Y4743D01*
Y4786D01*
X10059D01*
X10146Y4851D02*
X10232D01*
X10189D01*
Y4721D01*
X10276Y4851D02*
Y4721D01*
X10362D01*
X10406D02*
X10449Y4765D01*
Y4808D01*
X10406Y4851D01*
X7290D02*
X7377D01*
X7333D01*
Y4721D01*
X7442D02*
X7485D01*
X7507Y4743D01*
Y4786D01*
X7485Y4808D01*
X7442D01*
X7420Y4786D01*
Y4743D01*
X7442Y4721D01*
X7550Y4678D02*
Y4808D01*
X7615D01*
X7637Y4786D01*
Y4743D01*
X7615Y4721D01*
X7550D01*
X7810Y4851D02*
Y4721D01*
X7896D01*
X7961Y4808D02*
X8005D01*
X8026Y4786D01*
Y4721D01*
X7961D01*
X7940Y4743D01*
X7961Y4765D01*
X8026D01*
X8070Y4808D02*
Y4743D01*
X8091Y4721D01*
X8156D01*
Y4700D01*
X8135Y4678D01*
X8113D01*
X8156Y4721D02*
Y4808D01*
X8265Y4721D02*
X8221D01*
X8200Y4743D01*
Y4786D01*
X8221Y4808D01*
X8265D01*
X8286Y4786D01*
Y4765D01*
X8200D01*
X8330Y4808D02*
Y4721D01*
Y4765D01*
X8351Y4786D01*
X8373Y4808D01*
X8395D01*
X15735Y4005D02*
X15756Y4026D01*
X15800D01*
X15821Y4005D01*
Y3983D01*
X15800Y3961D01*
X15778D01*
X15800D01*
X15821Y3940D01*
Y3918D01*
X15800Y3896D01*
X15756D01*
X15735Y3918D01*
X15865Y3896D02*
Y3918D01*
X15886D01*
Y3896D01*
X15865D01*
X15973Y4005D02*
X15995Y4026D01*
X16038D01*
X16060Y4005D01*
Y3983D01*
X16038Y3961D01*
X16060Y3940D01*
Y3918D01*
X16038Y3896D01*
X15995D01*
X15973Y3918D01*
Y3940D01*
X15995Y3961D01*
X15973Y3983D01*
Y4005D01*
X15995Y3961D02*
X16038D01*
X13962Y4005D02*
X13940Y4026D01*
X13897D01*
X13875Y4005D01*
Y3983D01*
X13897Y3961D01*
X13940D01*
X13962Y3940D01*
Y3918D01*
X13940Y3896D01*
X13897D01*
X13875Y3918D01*
X14027Y3896D02*
X14070D01*
X14092Y3918D01*
Y3961D01*
X14070Y3983D01*
X14027D01*
X14005Y3961D01*
Y3918D01*
X14027Y3896D01*
X14135D02*
X14179D01*
X14157D01*
Y4026D01*
X14135D01*
X14330D02*
Y3896D01*
X14265D01*
X14243Y3918D01*
Y3961D01*
X14265Y3983D01*
X14330D01*
X14438Y3896D02*
X14395D01*
X14373Y3918D01*
Y3961D01*
X14395Y3983D01*
X14438D01*
X14460Y3961D01*
Y3940D01*
X14373D01*
X14503Y3983D02*
Y3896D01*
Y3940D01*
X14525Y3961D01*
X14547Y3983D01*
X14568D01*
X14763Y3896D02*
Y4026D01*
X14828D01*
X14850Y4005D01*
Y3961D01*
X14828Y3940D01*
X14763D01*
X14807D02*
X14850Y3896D01*
X14958D02*
X14915D01*
X14893Y3918D01*
Y3961D01*
X14915Y3983D01*
X14958D01*
X14980Y3961D01*
Y3940D01*
X14893D01*
X15023Y3896D02*
X15088D01*
X15110Y3918D01*
X15088Y3940D01*
X15045D01*
X15023Y3961D01*
X15045Y3983D01*
X15110D01*
X15153Y3896D02*
X15197D01*
X15175D01*
Y3983D01*
X15153D01*
X15261Y3896D02*
X15326D01*
X15348Y3918D01*
X15326Y3940D01*
X15283D01*
X15261Y3961D01*
X15283Y3983D01*
X15348D01*
X15413Y4005D02*
Y3983D01*
X15391D01*
X15435D01*
X15413D01*
Y3918D01*
X15435Y3896D01*
X12426Y4005D02*
X12447Y4026D01*
X12491D01*
X12512Y4005D01*
Y3918D01*
X12491Y3896D01*
X12447D01*
X12426Y3918D01*
Y4005D01*
X12556Y3896D02*
Y3918D01*
X12577D01*
Y3896D01*
X12556D01*
X12729D02*
Y4026D01*
X12664Y3961D01*
X12751D01*
X12794Y3896D02*
Y3983D01*
X12816D01*
X12837Y3961D01*
Y3896D01*
Y3961D01*
X12859Y3983D01*
X12881Y3961D01*
Y3896D01*
X12924D02*
X12967D01*
X12945D01*
Y3983D01*
X12924D01*
X13032Y3896D02*
X13075D01*
X13054D01*
Y4026D01*
X13032D01*
X9843Y3896D02*
X9799Y3940D01*
Y3983D01*
X9843Y4026D01*
X9908Y3896D02*
Y3918D01*
X9929D01*
Y3896D01*
X9908D01*
X10103Y4005D02*
X10081Y4026D01*
X10038D01*
X10016Y4005D01*
Y3918D01*
X10038Y3896D01*
X10081D01*
X10103Y3918D01*
Y3961D01*
X10059D01*
X10146Y4026D02*
Y3896D01*
X10211D01*
X10232Y3918D01*
Y3940D01*
X10211Y3961D01*
X10146D01*
X10211D01*
X10232Y3983D01*
Y4005D01*
X10211Y4026D01*
X10146D01*
X10362Y4005D02*
X10341Y4026D01*
X10297D01*
X10276Y4005D01*
Y3983D01*
X10297Y3961D01*
X10341D01*
X10362Y3940D01*
Y3918D01*
X10341Y3896D01*
X10297D01*
X10276Y3918D01*
X10406Y3896D02*
X10449Y3940D01*
Y3983D01*
X10406Y4026D01*
X7290D02*
Y3896D01*
X7355D01*
X7377Y3918D01*
Y3940D01*
X7355Y3961D01*
X7290D01*
X7355D01*
X7377Y3983D01*
Y4005D01*
X7355Y4026D01*
X7290D01*
X7442Y3896D02*
X7485D01*
X7507Y3918D01*
Y3961D01*
X7485Y3983D01*
X7442D01*
X7420Y3961D01*
Y3918D01*
X7442Y3896D01*
X7572Y4005D02*
Y3983D01*
X7550D01*
X7593D01*
X7572D01*
Y3918D01*
X7593Y3896D01*
X7680Y4005D02*
Y3983D01*
X7658D01*
X7702D01*
X7680D01*
Y3918D01*
X7702Y3896D01*
X7788D02*
X7831D01*
X7853Y3918D01*
Y3961D01*
X7831Y3983D01*
X7788D01*
X7767Y3961D01*
Y3918D01*
X7788Y3896D01*
X7896D02*
Y3983D01*
X7918D01*
X7940Y3961D01*
Y3896D01*
Y3961D01*
X7961Y3983D01*
X7983Y3961D01*
Y3896D01*
X8243Y4005D02*
X8221Y4026D01*
X8178D01*
X8156Y4005D01*
Y3983D01*
X8178Y3961D01*
X8221D01*
X8243Y3940D01*
Y3918D01*
X8221Y3896D01*
X8178D01*
X8156Y3918D01*
X8308Y3896D02*
X8351D01*
X8373Y3918D01*
Y3961D01*
X8351Y3983D01*
X8308D01*
X8286Y3961D01*
Y3918D01*
X8308Y3896D01*
X8416D02*
X8460D01*
X8438D01*
Y4026D01*
X8416D01*
X8611D02*
Y3896D01*
X8546D01*
X8525Y3918D01*
Y3961D01*
X8546Y3983D01*
X8611D01*
X8720Y3896D02*
X8676D01*
X8655Y3918D01*
Y3961D01*
X8676Y3983D01*
X8720D01*
X8741Y3961D01*
Y3940D01*
X8655D01*
X8785Y3983D02*
Y3896D01*
Y3940D01*
X8806Y3961D01*
X8828Y3983D01*
X8849D01*
X9044Y3896D02*
Y4026D01*
X9088Y3983D01*
X9131Y4026D01*
Y3896D01*
X9196Y3983D02*
X9239D01*
X9261Y3961D01*
Y3896D01*
X9196D01*
X9174Y3918D01*
X9196Y3940D01*
X9261D01*
X9304Y3896D02*
X9369D01*
X9391Y3918D01*
X9369Y3940D01*
X9326D01*
X9304Y3961D01*
X9326Y3983D01*
X9391D01*
X9434Y3896D02*
Y4026D01*
Y3940D02*
X9499Y3983D01*
X9434Y3940D02*
X9499Y3896D01*
X15735Y5242D02*
X15756Y5264D01*
X15800D01*
X15821Y5242D01*
Y5220D01*
X15800Y5199D01*
X15778D01*
X15800D01*
X15821Y5177D01*
Y5155D01*
X15800Y5134D01*
X15756D01*
X15735Y5155D01*
X15865Y5134D02*
Y5155D01*
X15886D01*
Y5134D01*
X15865D01*
X15973Y5242D02*
X15995Y5264D01*
X16038D01*
X16060Y5242D01*
Y5220D01*
X16038Y5199D01*
X16060Y5177D01*
Y5155D01*
X16038Y5134D01*
X15995D01*
X15973Y5155D01*
Y5177D01*
X15995Y5199D01*
X15973Y5220D01*
Y5242D01*
X15995Y5199D02*
X16038D01*
X13962Y5242D02*
X13940Y5264D01*
X13897D01*
X13875Y5242D01*
Y5220D01*
X13897Y5199D01*
X13940D01*
X13962Y5177D01*
Y5155D01*
X13940Y5134D01*
X13897D01*
X13875Y5155D01*
X14027Y5134D02*
X14070D01*
X14092Y5155D01*
Y5199D01*
X14070Y5220D01*
X14027D01*
X14005Y5199D01*
Y5155D01*
X14027Y5134D01*
X14135D02*
X14179D01*
X14157D01*
Y5264D01*
X14135D01*
X14330D02*
Y5134D01*
X14265D01*
X14243Y5155D01*
Y5199D01*
X14265Y5220D01*
X14330D01*
X14438Y5134D02*
X14395D01*
X14373Y5155D01*
Y5199D01*
X14395Y5220D01*
X14438D01*
X14460Y5199D01*
Y5177D01*
X14373D01*
X14503Y5220D02*
Y5134D01*
Y5177D01*
X14525Y5199D01*
X14547Y5220D01*
X14568D01*
X14763Y5134D02*
Y5264D01*
X14828D01*
X14850Y5242D01*
Y5199D01*
X14828Y5177D01*
X14763D01*
X14807D02*
X14850Y5134D01*
X14958D02*
X14915D01*
X14893Y5155D01*
Y5199D01*
X14915Y5220D01*
X14958D01*
X14980Y5199D01*
Y5177D01*
X14893D01*
X15023Y5134D02*
X15088D01*
X15110Y5155D01*
X15088Y5177D01*
X15045D01*
X15023Y5199D01*
X15045Y5220D01*
X15110D01*
X15153Y5134D02*
X15197D01*
X15175D01*
Y5220D01*
X15153D01*
X15261Y5134D02*
X15326D01*
X15348Y5155D01*
X15326Y5177D01*
X15283D01*
X15261Y5199D01*
X15283Y5220D01*
X15348D01*
X15413Y5242D02*
Y5220D01*
X15391D01*
X15435D01*
X15413D01*
Y5155D01*
X15435Y5134D01*
X12426Y5242D02*
X12447Y5264D01*
X12491D01*
X12512Y5242D01*
Y5155D01*
X12491Y5134D01*
X12447D01*
X12426Y5155D01*
Y5242D01*
X12556Y5134D02*
Y5155D01*
X12577D01*
Y5134D01*
X12556D01*
X12729D02*
Y5264D01*
X12664Y5199D01*
X12751D01*
X12794Y5134D02*
Y5220D01*
X12816D01*
X12837Y5199D01*
Y5134D01*
Y5199D01*
X12859Y5220D01*
X12881Y5199D01*
Y5134D01*
X12924D02*
X12967D01*
X12945D01*
Y5220D01*
X12924D01*
X13032Y5134D02*
X13075D01*
X13054D01*
Y5264D01*
X13032D01*
X9843Y5134D02*
X9799Y5177D01*
Y5220D01*
X9843Y5264D01*
X9908Y5134D02*
Y5155D01*
X9929D01*
Y5134D01*
X9908D01*
X10103Y5242D02*
X10081Y5264D01*
X10038D01*
X10016Y5242D01*
Y5155D01*
X10038Y5134D01*
X10081D01*
X10103Y5155D01*
Y5199D01*
X10059D01*
X10146Y5264D02*
X10232D01*
X10189D01*
Y5134D01*
X10362Y5242D02*
X10341Y5264D01*
X10297D01*
X10276Y5242D01*
Y5220D01*
X10297Y5199D01*
X10341D01*
X10362Y5177D01*
Y5155D01*
X10341Y5134D01*
X10297D01*
X10276Y5155D01*
X10406Y5134D02*
X10449Y5177D01*
Y5220D01*
X10406Y5264D01*
X7290D02*
X7377D01*
X7333D01*
Y5134D01*
X7442D02*
X7485D01*
X7507Y5155D01*
Y5199D01*
X7485Y5220D01*
X7442D01*
X7420Y5199D01*
Y5155D01*
X7442Y5134D01*
X7550Y5090D02*
Y5220D01*
X7615D01*
X7637Y5199D01*
Y5155D01*
X7615Y5134D01*
X7550D01*
X7896Y5242D02*
X7875Y5264D01*
X7831D01*
X7810Y5242D01*
Y5220D01*
X7831Y5199D01*
X7875D01*
X7896Y5177D01*
Y5155D01*
X7875Y5134D01*
X7831D01*
X7810Y5155D01*
X7961Y5134D02*
X8005D01*
X8026Y5155D01*
Y5199D01*
X8005Y5220D01*
X7961D01*
X7940Y5199D01*
Y5155D01*
X7961Y5134D01*
X8070D02*
X8113D01*
X8091D01*
Y5264D01*
X8070D01*
X8265D02*
Y5134D01*
X8200D01*
X8178Y5155D01*
Y5199D01*
X8200Y5220D01*
X8265D01*
X8373Y5134D02*
X8330D01*
X8308Y5155D01*
Y5199D01*
X8330Y5220D01*
X8373D01*
X8395Y5199D01*
Y5177D01*
X8308D01*
X8438Y5220D02*
Y5134D01*
Y5177D01*
X8460Y5199D01*
X8481Y5220D01*
X8503D01*
X8698Y5134D02*
Y5264D01*
X8741Y5220D01*
X8785Y5264D01*
Y5134D01*
X8849Y5220D02*
X8893D01*
X8914Y5199D01*
Y5134D01*
X8849D01*
X8828Y5155D01*
X8849Y5177D01*
X8914D01*
X8958Y5134D02*
X9023D01*
X9044Y5155D01*
X9023Y5177D01*
X8979D01*
X8958Y5199D01*
X8979Y5220D01*
X9044D01*
X9088Y5134D02*
Y5264D01*
Y5177D02*
X9153Y5220D01*
X9088Y5177D02*
X9153Y5134D01*
X17184Y5504D02*
X17244D01*
X17214D01*
Y5414D01*
X17274Y5474D02*
Y5429D01*
X17289Y5414D01*
X17334D01*
Y5399D01*
X17319Y5384D01*
X17304D01*
X17334Y5414D02*
Y5474D01*
X17364Y5384D02*
Y5474D01*
X17409D01*
X17424Y5459D01*
Y5429D01*
X17409Y5414D01*
X17364D01*
X17499D02*
X17469D01*
X17454Y5429D01*
Y5459D01*
X17469Y5474D01*
X17499D01*
X17514Y5459D01*
Y5444D01*
X17454D01*
X15795Y5489D02*
X15780Y5504D01*
X15750D01*
X15735Y5489D01*
Y5429D01*
X15750Y5414D01*
X15780D01*
X15795Y5429D01*
X15840Y5414D02*
X15870D01*
X15885Y5429D01*
Y5459D01*
X15870Y5474D01*
X15840D01*
X15825Y5459D01*
Y5429D01*
X15840Y5414D01*
X15915D02*
Y5474D01*
X15960D01*
X15975Y5459D01*
Y5414D01*
X16005D02*
X16050D01*
X16065Y5429D01*
X16050Y5444D01*
X16020D01*
X16005Y5459D01*
X16020Y5474D01*
X16065D01*
X16110Y5489D02*
Y5474D01*
X16095D01*
X16125D01*
X16110D01*
Y5429D01*
X16125Y5414D01*
X16185Y5474D02*
X16215D01*
X16230Y5459D01*
Y5414D01*
X16185D01*
X16170Y5429D01*
X16185Y5444D01*
X16230D01*
X16260Y5414D02*
Y5474D01*
X16305D01*
X16320Y5459D01*
Y5414D01*
X16365Y5489D02*
Y5474D01*
X16350D01*
X16380D01*
X16365D01*
Y5429D01*
X16380Y5414D01*
X13875D02*
Y5504D01*
X13905Y5474D01*
X13935Y5504D01*
Y5414D01*
X13980Y5474D02*
X14010D01*
X14025Y5459D01*
Y5414D01*
X13980D01*
X13965Y5429D01*
X13980Y5444D01*
X14025D01*
X14070Y5489D02*
Y5474D01*
X14055D01*
X14085D01*
X14070D01*
Y5429D01*
X14085Y5414D01*
X14175D02*
X14145D01*
X14130Y5429D01*
Y5459D01*
X14145Y5474D01*
X14175D01*
X14190Y5459D01*
Y5444D01*
X14130D01*
X14220Y5474D02*
Y5414D01*
Y5444D01*
X14235Y5459D01*
X14250Y5474D01*
X14265D01*
X14310Y5414D02*
X14340D01*
X14325D01*
Y5474D01*
X14310D01*
X14400D02*
X14430D01*
X14445Y5459D01*
Y5414D01*
X14400D01*
X14385Y5429D01*
X14400Y5444D01*
X14445D01*
X14475Y5414D02*
X14505D01*
X14490D01*
Y5504D01*
X14475D01*
X12426D02*
Y5414D01*
Y5459D01*
X12486D01*
Y5504D01*
Y5414D01*
X12561D02*
X12531D01*
X12516Y5429D01*
Y5459D01*
X12531Y5474D01*
X12561D01*
X12576Y5459D01*
Y5444D01*
X12516D01*
X12606Y5414D02*
X12636D01*
X12621D01*
Y5474D01*
X12606D01*
X12711Y5384D02*
X12726D01*
X12741Y5399D01*
Y5474D01*
X12696D01*
X12681Y5459D01*
Y5429D01*
X12696Y5414D01*
X12741D01*
X12771Y5504D02*
Y5414D01*
Y5459D01*
X12786Y5474D01*
X12816D01*
X12831Y5459D01*
Y5414D01*
X12875Y5489D02*
Y5474D01*
X12860D01*
X12890D01*
X12875D01*
Y5429D01*
X12890Y5414D01*
X11039Y5504D02*
X11099D01*
X11069D01*
Y5414D01*
X11129Y5504D02*
Y5414D01*
Y5459D01*
X11144Y5474D01*
X11174D01*
X11189Y5459D01*
Y5414D01*
X11219D02*
X11249D01*
X11234D01*
Y5474D01*
X11219D01*
X11354D02*
X11309D01*
X11294Y5459D01*
Y5429D01*
X11309Y5414D01*
X11354D01*
X11384D02*
Y5504D01*
Y5444D02*
X11429Y5474D01*
X11384Y5444D02*
X11429Y5414D01*
X11474D02*
Y5474D01*
X11519D01*
X11534Y5459D01*
Y5414D01*
X11609D02*
X11579D01*
X11564Y5429D01*
Y5459D01*
X11579Y5474D01*
X11609D01*
X11624Y5459D01*
Y5444D01*
X11564D01*
X11654Y5414D02*
X11699D01*
X11714Y5429D01*
X11699Y5444D01*
X11669D01*
X11654Y5459D01*
X11669Y5474D01*
X11714D01*
X11744Y5414D02*
X11789D01*
X11804Y5429D01*
X11789Y5444D01*
X11759D01*
X11744Y5459D01*
X11759Y5474D01*
X11804D01*
X9799Y5504D02*
Y5414D01*
X9844D01*
X9859Y5429D01*
Y5489D01*
X9844Y5504D01*
X9799D01*
X9904Y5414D02*
X9934D01*
X9949Y5429D01*
Y5459D01*
X9934Y5474D01*
X9904D01*
X9889Y5459D01*
Y5429D01*
X9904Y5414D01*
X10039Y5474D02*
X9994D01*
X9979Y5459D01*
Y5429D01*
X9994Y5414D01*
X10039D01*
X10069Y5474D02*
Y5429D01*
X10084Y5414D01*
X10129D01*
Y5474D01*
X10159Y5414D02*
Y5474D01*
X10174D01*
X10189Y5459D01*
Y5414D01*
Y5459D01*
X10204Y5474D01*
X10219Y5459D01*
Y5414D01*
X10294D02*
X10264D01*
X10249Y5429D01*
Y5459D01*
X10264Y5474D01*
X10294D01*
X10309Y5459D01*
Y5444D01*
X10249D01*
X10339Y5414D02*
Y5474D01*
X10384D01*
X10399Y5459D01*
Y5414D01*
X10444Y5489D02*
Y5474D01*
X10429D01*
X10459D01*
X10444D01*
Y5429D01*
X10459Y5414D01*
X7290D02*
Y5504D01*
X7350Y5414D01*
Y5504D01*
X7395Y5474D02*
X7425D01*
X7440Y5459D01*
Y5414D01*
X7395D01*
X7380Y5429D01*
X7395Y5444D01*
X7440D01*
X7470Y5414D02*
Y5474D01*
X7485D01*
X7500Y5459D01*
Y5414D01*
Y5459D01*
X7515Y5474D01*
X7530Y5459D01*
Y5414D01*
X7605D02*
X7575D01*
X7560Y5429D01*
Y5459D01*
X7575Y5474D01*
X7605D01*
X7620Y5459D01*
Y5444D01*
X7560D01*
X17184Y5684D02*
Y5594D01*
X17229D01*
X17244Y5609D01*
Y5669D01*
X17229Y5684D01*
X17184D01*
X17274Y5594D02*
X17304D01*
X17289D01*
Y5654D01*
X17274D01*
X17394Y5594D02*
X17364D01*
X17349Y5609D01*
Y5639D01*
X17364Y5654D01*
X17394D01*
X17409Y5639D01*
Y5624D01*
X17349D01*
X17439Y5594D02*
X17469D01*
X17454D01*
Y5684D01*
X17439D01*
X17559Y5594D02*
X17529D01*
X17514Y5609D01*
Y5639D01*
X17529Y5654D01*
X17559D01*
X17574Y5639D01*
Y5624D01*
X17514D01*
X17664Y5654D02*
X17619D01*
X17604Y5639D01*
Y5609D01*
X17619Y5594D01*
X17664D01*
X17709Y5669D02*
Y5654D01*
X17694D01*
X17724D01*
X17709D01*
Y5609D01*
X17724Y5594D01*
X17769Y5654D02*
Y5594D01*
Y5624D01*
X17784Y5639D01*
X17799Y5654D01*
X17814D01*
X17859Y5594D02*
X17889D01*
X17874D01*
Y5654D01*
X17859D01*
X17994D02*
X17949D01*
X17934Y5639D01*
Y5609D01*
X17949Y5594D01*
X17994D01*
X15735Y5684D02*
Y5594D01*
X15780D01*
X15795Y5609D01*
Y5669D01*
X15780Y5684D01*
X15735D01*
X15825Y5594D02*
X15855D01*
X15840D01*
Y5654D01*
X15825D01*
X15945Y5594D02*
X15915D01*
X15900Y5609D01*
Y5639D01*
X15915Y5654D01*
X15945D01*
X15960Y5639D01*
Y5624D01*
X15900D01*
X15990Y5594D02*
X16020D01*
X16005D01*
Y5684D01*
X15990D01*
X16110Y5594D02*
X16080D01*
X16065Y5609D01*
Y5639D01*
X16080Y5654D01*
X16110D01*
X16125Y5639D01*
Y5624D01*
X16065D01*
X16215Y5654D02*
X16170D01*
X16155Y5639D01*
Y5609D01*
X16170Y5594D01*
X16215D01*
X16260Y5669D02*
Y5654D01*
X16245D01*
X16275D01*
X16260D01*
Y5609D01*
X16275Y5594D01*
X16320Y5654D02*
Y5594D01*
Y5624D01*
X16335Y5639D01*
X16350Y5654D01*
X16365D01*
X16410Y5594D02*
X16440D01*
X16425D01*
Y5654D01*
X16410D01*
X16545D02*
X16500D01*
X16485Y5639D01*
Y5609D01*
X16500Y5594D01*
X16545D01*
X13875Y5684D02*
Y5594D01*
X13920D01*
X13935Y5609D01*
Y5669D01*
X13920Y5684D01*
X13875D01*
X13965Y5594D02*
X13995D01*
X13980D01*
Y5654D01*
X13965D01*
X14085Y5594D02*
X14055D01*
X14040Y5609D01*
Y5639D01*
X14055Y5654D01*
X14085D01*
X14100Y5639D01*
Y5624D01*
X14040D01*
X14130Y5594D02*
X14160D01*
X14145D01*
Y5684D01*
X14130D01*
X14250Y5594D02*
X14220D01*
X14205Y5609D01*
Y5639D01*
X14220Y5654D01*
X14250D01*
X14265Y5639D01*
Y5624D01*
X14205D01*
X14355Y5654D02*
X14310D01*
X14295Y5639D01*
Y5609D01*
X14310Y5594D01*
X14355D01*
X14400Y5669D02*
Y5654D01*
X14385D01*
X14415D01*
X14400D01*
Y5609D01*
X14415Y5594D01*
X14460Y5654D02*
Y5594D01*
Y5624D01*
X14475Y5639D01*
X14490Y5654D01*
X14505D01*
X14550Y5594D02*
X14580D01*
X14565D01*
Y5654D01*
X14550D01*
X14685D02*
X14640D01*
X14625Y5639D01*
Y5609D01*
X14640Y5594D01*
X14685D01*
X12426Y5684D02*
Y5594D01*
X12471D01*
X12486Y5609D01*
Y5669D01*
X12471Y5684D01*
X12426D01*
X12516Y5594D02*
X12546D01*
X12531D01*
Y5654D01*
X12516D01*
X12636Y5594D02*
X12606D01*
X12591Y5609D01*
Y5639D01*
X12606Y5654D01*
X12636D01*
X12651Y5639D01*
Y5624D01*
X12591D01*
X12681Y5594D02*
X12711D01*
X12696D01*
Y5684D01*
X12681D01*
X12801Y5594D02*
X12771D01*
X12756Y5609D01*
Y5639D01*
X12771Y5654D01*
X12801D01*
X12816Y5639D01*
Y5624D01*
X12756D01*
X12905Y5654D02*
X12860D01*
X12846Y5639D01*
Y5609D01*
X12860Y5594D01*
X12905D01*
X12950Y5669D02*
Y5654D01*
X12935D01*
X12965D01*
X12950D01*
Y5609D01*
X12965Y5594D01*
X13010Y5654D02*
Y5594D01*
Y5624D01*
X13025Y5639D01*
X13040Y5654D01*
X13055D01*
X13100Y5594D02*
X13130D01*
X13115D01*
Y5654D01*
X13100D01*
X13235D02*
X13190D01*
X13175Y5639D01*
Y5609D01*
X13190Y5594D01*
X13235D01*
X11099Y5669D02*
X11084Y5684D01*
X11054D01*
X11039Y5669D01*
Y5609D01*
X11054Y5594D01*
X11084D01*
X11099Y5609D01*
X11144Y5594D02*
X11174D01*
X11189Y5609D01*
Y5639D01*
X11174Y5654D01*
X11144D01*
X11129Y5639D01*
Y5609D01*
X11144Y5594D01*
X11219Y5564D02*
Y5654D01*
X11264D01*
X11279Y5639D01*
Y5609D01*
X11264Y5594D01*
X11219D01*
X11309Y5564D02*
Y5654D01*
X11354D01*
X11369Y5639D01*
Y5609D01*
X11354Y5594D01*
X11309D01*
X11444D02*
X11414D01*
X11399Y5609D01*
Y5639D01*
X11414Y5654D01*
X11444D01*
X11459Y5639D01*
Y5624D01*
X11399D01*
X11489Y5654D02*
Y5594D01*
Y5624D01*
X11504Y5639D01*
X11519Y5654D01*
X11534D01*
X9859Y5669D02*
X9844Y5684D01*
X9814D01*
X9799Y5669D01*
Y5609D01*
X9814Y5594D01*
X9844D01*
X9859Y5609D01*
Y5639D01*
X9829D01*
X9934Y5594D02*
X9904D01*
X9889Y5609D01*
Y5639D01*
X9904Y5654D01*
X9934D01*
X9949Y5639D01*
Y5624D01*
X9889D01*
X9979Y5654D02*
Y5594D01*
Y5624D01*
X9994Y5639D01*
X10009Y5654D01*
X10024D01*
X10069Y5684D02*
Y5594D01*
X10114D01*
X10129Y5609D01*
Y5624D01*
Y5639D01*
X10114Y5654D01*
X10069D01*
X10204Y5594D02*
X10174D01*
X10159Y5609D01*
Y5639D01*
X10174Y5654D01*
X10204D01*
X10219Y5639D01*
Y5624D01*
X10159D01*
X10249Y5654D02*
Y5594D01*
Y5624D01*
X10264Y5639D01*
X10279Y5654D01*
X10294D01*
X7290Y5684D02*
Y5594D01*
X7350D01*
X7395Y5654D02*
X7425D01*
X7440Y5639D01*
Y5594D01*
X7395D01*
X7380Y5609D01*
X7395Y5624D01*
X7440D01*
X7470Y5654D02*
Y5609D01*
X7485Y5594D01*
X7530D01*
Y5579D01*
X7515Y5564D01*
X7500D01*
X7530Y5594D02*
Y5654D01*
X7605Y5594D02*
X7575D01*
X7560Y5609D01*
Y5639D01*
X7575Y5654D01*
X7605D01*
X7620Y5639D01*
Y5624D01*
X7560D01*
X7650Y5654D02*
Y5594D01*
Y5624D01*
X7665Y5639D01*
X7680Y5654D01*
X7695D01*
D52*
X4280Y1450D02*
G03*
X4280Y1450I-80J0D01*
G01*
Y450D02*
G03*
X4280Y450I-80J0D01*
G01*
X3280Y1450D02*
G03*
X3280Y1450I-80J0D01*
G01*
Y450D02*
G03*
X3280Y450I-80J0D01*
G01*
X2280Y1450D02*
G03*
X2280Y1450I-80J0D01*
G01*
Y450D02*
G03*
X2280Y450I-80J0D01*
G01*
X1280Y1450D02*
G03*
X1280Y1450I-80J0D01*
G01*
Y450D02*
G03*
X1280Y450I-80J0D01*
G01*
D53*
X7150Y1258D02*
Y909D01*
Y1258D02*
X7300D01*
X7350Y1242D01*
X7367Y1225D01*
X7383Y1192D01*
Y1158D01*
X7367Y1125D01*
X7350Y1108D01*
X7300Y1092D01*
X7150D02*
X7300D01*
X7350Y1075D01*
X7367Y1059D01*
X7383Y1025D01*
Y975D01*
X7367Y942D01*
X7350Y925D01*
X7300Y909D01*
X7150D01*
X7545Y1142D02*
X7512Y1125D01*
X7478Y1092D01*
X7462Y1042D01*
Y1009D01*
X7478Y959D01*
X7512Y925D01*
X7545Y909D01*
X7595D01*
X7628Y925D01*
X7662Y959D01*
X7678Y1009D01*
Y1042D01*
X7662Y1092D01*
X7628Y1125D01*
X7595Y1142D01*
X7545D01*
X7755D02*
Y909D01*
Y1042D02*
X7772Y1092D01*
X7805Y1125D01*
X7838Y1142D01*
X7888D01*
X8120D02*
Y909D01*
Y1092D02*
X8086Y1125D01*
X8053Y1142D01*
X8003D01*
X7970Y1125D01*
X7936Y1092D01*
X7920Y1042D01*
Y1009D01*
X7936Y959D01*
X7970Y925D01*
X8003Y909D01*
X8053D01*
X8086Y925D01*
X8120Y959D01*
X8413Y1258D02*
Y909D01*
Y1092D02*
X8380Y1125D01*
X8346Y1142D01*
X8296D01*
X8263Y1125D01*
X8230Y1092D01*
X8213Y1042D01*
Y1009D01*
X8230Y959D01*
X8263Y925D01*
X8296Y909D01*
X8346D01*
X8380Y925D01*
X8413Y959D01*
X8506Y1258D02*
Y909D01*
X8740Y1258D02*
Y909D01*
X8506Y1092D02*
X8740D01*
X9128Y1142D02*
X9111Y1125D01*
X9128Y1108D01*
X9145Y1125D01*
X9128Y1142D01*
Y942D02*
X9111Y925D01*
X9128Y909D01*
X9145Y925D01*
X9128Y942D01*
X9496Y1192D02*
X9529Y1208D01*
X9579Y1258D01*
Y909D01*
X9769Y942D02*
X9753Y925D01*
X9769Y909D01*
X9786Y925D01*
X9769Y942D01*
X9879Y1175D02*
Y1192D01*
X9896Y1225D01*
X9913Y1242D01*
X9946Y1258D01*
X10013D01*
X10046Y1242D01*
X10063Y1225D01*
X10079Y1192D01*
Y1158D01*
X10063Y1125D01*
X10029Y1075D01*
X9863Y909D01*
X10096D01*
X10174Y1142D02*
Y909D01*
Y1075D02*
X10224Y1125D01*
X10258Y1142D01*
X10308D01*
X10341Y1125D01*
X10358Y1075D01*
Y909D01*
Y1075D02*
X10408Y1125D01*
X10441Y1142D01*
X10491D01*
X10524Y1125D01*
X10541Y1075D01*
Y909D01*
X10651Y1142D02*
Y909D01*
Y1075D02*
X10701Y1125D01*
X10734Y1142D01*
X10784D01*
X10818Y1125D01*
X10834Y1075D01*
Y909D01*
Y1075D02*
X10884Y1125D01*
X10918Y1142D01*
X10968D01*
X11001Y1125D01*
X11018Y1075D01*
Y909D01*
X7383Y1888D02*
X7350Y1921D01*
X7300Y1938D01*
X7233D01*
X7183Y1921D01*
X7150Y1888D01*
Y1854D01*
X7167Y1821D01*
X7183Y1804D01*
X7217Y1788D01*
X7317Y1754D01*
X7350Y1738D01*
X7367Y1721D01*
X7383Y1688D01*
Y1638D01*
X7350Y1604D01*
X7300Y1588D01*
X7233D01*
X7183Y1604D01*
X7150Y1638D01*
X7545Y1821D02*
X7512Y1804D01*
X7478Y1771D01*
X7462Y1721D01*
Y1688D01*
X7478Y1638D01*
X7512Y1604D01*
X7545Y1588D01*
X7595D01*
X7628Y1604D01*
X7662Y1638D01*
X7678Y1688D01*
Y1721D01*
X7662Y1771D01*
X7628Y1804D01*
X7595Y1821D01*
X7545D01*
X7755Y1938D02*
Y1588D01*
X8028Y1938D02*
Y1588D01*
Y1771D02*
X7995Y1804D01*
X7961Y1821D01*
X7911D01*
X7878Y1804D01*
X7845Y1771D01*
X7828Y1721D01*
Y1688D01*
X7845Y1638D01*
X7878Y1604D01*
X7911Y1588D01*
X7961D01*
X7995Y1604D01*
X8028Y1638D01*
X8121Y1721D02*
X8321D01*
Y1754D01*
X8305Y1788D01*
X8288Y1804D01*
X8255Y1821D01*
X8205D01*
X8171Y1804D01*
X8138Y1771D01*
X8121Y1721D01*
Y1688D01*
X8138Y1638D01*
X8171Y1604D01*
X8205Y1588D01*
X8255D01*
X8288Y1604D01*
X8321Y1638D01*
X8396Y1821D02*
Y1588D01*
Y1721D02*
X8413Y1771D01*
X8446Y1804D01*
X8480Y1821D01*
X8530D01*
X8836D02*
Y1588D01*
Y1721D02*
X8853Y1771D01*
X8886Y1804D01*
X8920Y1821D01*
X8970D01*
X9001Y1721D02*
X9201D01*
Y1754D01*
X9185Y1788D01*
X9168Y1804D01*
X9135Y1821D01*
X9085D01*
X9051Y1804D01*
X9018Y1771D01*
X9001Y1721D01*
Y1688D01*
X9018Y1638D01*
X9051Y1604D01*
X9085Y1588D01*
X9135D01*
X9168Y1604D01*
X9201Y1638D01*
X9460Y1771D02*
X9443Y1804D01*
X9393Y1821D01*
X9343D01*
X9293Y1804D01*
X9276Y1771D01*
X9293Y1738D01*
X9326Y1721D01*
X9410Y1704D01*
X9443Y1688D01*
X9460Y1654D01*
Y1638D01*
X9443Y1604D01*
X9393Y1588D01*
X9343D01*
X9293Y1604D01*
X9276Y1638D01*
X9566Y1938D02*
X9583Y1921D01*
X9599Y1938D01*
X9583Y1954D01*
X9566Y1938D01*
X9583Y1821D02*
Y1588D01*
X9844Y1771D02*
X9828Y1804D01*
X9778Y1821D01*
X9728D01*
X9678Y1804D01*
X9661Y1771D01*
X9678Y1738D01*
X9711Y1721D01*
X9794Y1704D01*
X9828Y1688D01*
X9844Y1654D01*
Y1638D01*
X9828Y1604D01*
X9778Y1588D01*
X9728D01*
X9678Y1604D01*
X9661Y1638D01*
X9968Y1938D02*
Y1654D01*
X9984Y1604D01*
X10018Y1588D01*
X10051D01*
X9918Y1821D02*
X10034D01*
X10576Y1771D02*
X10543Y1804D01*
X10509Y1821D01*
X10459D01*
X10426Y1804D01*
X10393Y1771D01*
X10376Y1721D01*
Y1688D01*
X10393Y1638D01*
X10426Y1604D01*
X10459Y1588D01*
X10509D01*
X10543Y1604D01*
X10576Y1638D01*
X10734Y1821D02*
X10701Y1804D01*
X10668Y1771D01*
X10651Y1721D01*
Y1688D01*
X10668Y1638D01*
X10701Y1604D01*
X10734Y1588D01*
X10784D01*
X10818Y1604D01*
X10851Y1638D01*
X10868Y1688D01*
Y1721D01*
X10851Y1771D01*
X10818Y1804D01*
X10784Y1821D01*
X10734D01*
X10944Y1938D02*
Y1588D01*
X11101Y1821D02*
X11067Y1804D01*
X11034Y1771D01*
X11018Y1721D01*
Y1688D01*
X11034Y1638D01*
X11067Y1604D01*
X11101Y1588D01*
X11151D01*
X11184Y1604D01*
X11217Y1638D01*
X11234Y1688D01*
Y1721D01*
X11217Y1771D01*
X11184Y1804D01*
X11151Y1821D01*
X11101D01*
X11311D02*
Y1588D01*
Y1721D02*
X11327Y1771D01*
X11361Y1804D01*
X11394Y1821D01*
X11444D01*
X11767D02*
X11751Y1804D01*
X11767Y1788D01*
X11784Y1804D01*
X11767Y1821D01*
Y1621D02*
X11751Y1604D01*
X11767Y1588D01*
X11784Y1604D01*
X11767Y1621D01*
X12136Y1938D02*
X12219Y1588D01*
X12302Y1938D02*
X12219Y1588D01*
X12302Y1938D02*
X12386Y1588D01*
X12469Y1938D02*
X12386Y1588D01*
X12539Y1938D02*
Y1588D01*
Y1754D02*
X12589Y1804D01*
X12622Y1821D01*
X12672D01*
X12705Y1804D01*
X12722Y1754D01*
Y1588D01*
X12847Y1938D02*
X12864Y1921D01*
X12880Y1938D01*
X12864Y1954D01*
X12847Y1938D01*
X12864Y1821D02*
Y1588D01*
X12992Y1938D02*
Y1654D01*
X13009Y1604D01*
X13042Y1588D01*
X13075D01*
X12942Y1821D02*
X13059D01*
X13125Y1721D02*
X13325D01*
Y1754D01*
X13309Y1788D01*
X13292Y1804D01*
X13259Y1821D01*
X13209D01*
X13175Y1804D01*
X13142Y1771D01*
X13125Y1721D01*
Y1688D01*
X13142Y1638D01*
X13175Y1604D01*
X13209Y1588D01*
X13259D01*
X13292Y1604D01*
X13325Y1638D01*
X7290Y6153D02*
Y5883D01*
X7470D01*
X7605Y6063D02*
X7695D01*
X7740Y6018D01*
Y5883D01*
X7605D01*
X7560Y5928D01*
X7605Y5973D01*
X7740D01*
X7830Y6063D02*
Y5928D01*
X7875Y5883D01*
X8010D01*
Y5839D01*
X7965Y5794D01*
X7920D01*
X8010Y5883D02*
Y6063D01*
X8235Y5883D02*
X8145D01*
X8100Y5928D01*
Y6018D01*
X8145Y6063D01*
X8235D01*
X8280Y6018D01*
Y5973D01*
X8100D01*
X8370Y6063D02*
Y5883D01*
Y5973D01*
X8415Y6018D01*
X8460Y6063D01*
X8505D01*
X9089Y6108D02*
X9044Y6153D01*
X8954D01*
X8909Y6108D01*
Y6063D01*
X8954Y6018D01*
X9044D01*
X9089Y5973D01*
Y5928D01*
X9044Y5883D01*
X8954D01*
X8909Y5928D01*
X9224Y6108D02*
Y6063D01*
X9179D01*
X9269D01*
X9224D01*
Y5928D01*
X9269Y5883D01*
X9449Y6063D02*
X9539D01*
X9584Y6018D01*
Y5883D01*
X9449D01*
X9404Y5928D01*
X9449Y5973D01*
X9584D01*
X9854Y6063D02*
X9719D01*
X9674Y6018D01*
Y5928D01*
X9719Y5883D01*
X9854D01*
X9944D02*
Y6153D01*
Y5973D02*
X10079Y6063D01*
X9944Y5973D02*
X10079Y5883D01*
X10484Y6153D02*
Y5928D01*
X10529Y5883D01*
X10619D01*
X10664Y5928D01*
Y6153D01*
X10754Y5794D02*
Y6063D01*
X10889D01*
X10934Y6018D01*
Y5928D01*
X10889Y5883D01*
X10754D01*
X11294Y6153D02*
Y5883D01*
X11429D01*
X11474Y5928D01*
Y6108D01*
X11429Y6153D01*
X11294D01*
X11699Y5883D02*
X11609D01*
X11564Y5928D01*
Y6018D01*
X11609Y6063D01*
X11699D01*
X11744Y6018D01*
Y5973D01*
X11564D01*
X11879Y6108D02*
Y6063D01*
X11834D01*
X11924D01*
X11879D01*
Y5928D01*
X11924Y5883D01*
X12103Y6063D02*
X12193D01*
X12238Y6018D01*
Y5883D01*
X12103D01*
X12058Y5928D01*
X12103Y5973D01*
X12238D01*
X12328Y5883D02*
X12418D01*
X12373D01*
Y6063D01*
X12328D01*
X12553Y5883D02*
X12643D01*
X12598D01*
Y6153D01*
X12553D01*
X13093Y5883D02*
Y6108D01*
Y6018D01*
X13048D01*
X13138D01*
X13093D01*
Y6108D01*
X13138Y6153D01*
X13318Y5883D02*
X13408D01*
X13453Y5928D01*
Y6018D01*
X13408Y6063D01*
X13318D01*
X13273Y6018D01*
Y5928D01*
X13318Y5883D01*
X13543Y6063D02*
Y5883D01*
Y5973D01*
X13588Y6018D01*
X13633Y6063D01*
X13678D01*
X13813D02*
X13858D01*
Y6018D01*
X13813D01*
Y6063D01*
Y5928D02*
X13858D01*
Y5883D01*
X13813D01*
Y5928D01*
X14308Y5883D02*
Y6153D01*
X14488Y5883D01*
Y6153D01*
X14578Y6063D02*
Y5928D01*
X14623Y5883D01*
X14758D01*
Y6063D01*
X15028D02*
X14893D01*
X14848Y6018D01*
Y5928D01*
X14893Y5883D01*
X15028D01*
X15117D02*
X15207D01*
X15162D01*
Y6153D01*
X15117D01*
X15477Y5883D02*
X15387D01*
X15342Y5928D01*
Y6018D01*
X15387Y6063D01*
X15477D01*
X15522Y6018D01*
Y5973D01*
X15342D01*
X15657Y5883D02*
X15747D01*
X15792Y5928D01*
Y6018D01*
X15747Y6063D01*
X15657D01*
X15612Y6018D01*
Y5928D01*
X15657Y5883D01*
X15882Y5839D02*
X16062D01*
X16332Y6153D02*
X16242Y6108D01*
X16152Y6018D01*
Y5928D01*
X16197Y5883D01*
X16287D01*
X16332Y5928D01*
Y5973D01*
X16287Y6018D01*
X16152D01*
X16557Y5883D02*
Y6153D01*
X16422Y6018D01*
X16602D01*
X16692Y5883D02*
Y5928D01*
X16737D01*
Y5883D01*
X16692D01*
X16917D02*
Y6153D01*
X17052D01*
X17097Y6108D01*
Y6018D01*
X17052Y5973D01*
X16917D01*
X17367Y6063D02*
X17232D01*
X17187Y6018D01*
Y5928D01*
X17232Y5883D01*
X17367D01*
X17457Y6153D02*
Y5883D01*
X17592D01*
X17637Y5928D01*
Y5973D01*
Y6018D01*
X17592Y6063D01*
X17457D01*
X17727Y6153D02*
Y5883D01*
X17862D01*
X17907Y5928D01*
Y6108D01*
X17862Y6153D01*
X17727D01*
X18042Y5883D02*
X18132D01*
X18176Y5928D01*
Y6018D01*
X18132Y6063D01*
X18042D01*
X17997Y6018D01*
Y5928D01*
X18042Y5883D01*
X18446Y6063D02*
X18311D01*
X18266Y6018D01*
Y5928D01*
X18311Y5883D01*
X18446D01*
D54*
X6690Y2690D02*
Y2290D01*
Y2690D02*
X6957Y2290D01*
Y2690D02*
Y2290D01*
X7162Y2557D02*
X7124Y2538D01*
X7086Y2499D01*
X7067Y2442D01*
Y2404D01*
X7086Y2347D01*
X7124Y2309D01*
X7162Y2290D01*
X7219D01*
X7258Y2309D01*
X7296Y2347D01*
X7315Y2404D01*
Y2442D01*
X7296Y2499D01*
X7258Y2538D01*
X7219Y2557D01*
X7162D01*
X7459Y2690D02*
Y2366D01*
X7478Y2309D01*
X7516Y2290D01*
X7555D01*
X7402Y2557D02*
X7536D01*
X7612Y2442D02*
X7840D01*
Y2480D01*
X7821Y2519D01*
X7802Y2538D01*
X7764Y2557D01*
X7707D01*
X7669Y2538D01*
X7631Y2499D01*
X7612Y2442D01*
Y2404D01*
X7631Y2347D01*
X7669Y2309D01*
X7707Y2290D01*
X7764D01*
X7802Y2309D01*
X7840Y2347D01*
X8135Y2499D02*
X8116Y2538D01*
X8059Y2557D01*
X8002D01*
X7945Y2538D01*
X7926Y2499D01*
X7945Y2461D01*
X7983Y2442D01*
X8078Y2423D01*
X8116Y2404D01*
X8135Y2366D01*
Y2347D01*
X8116Y2309D01*
X8059Y2290D01*
X8002D01*
X7945Y2309D01*
X7926Y2347D01*
X8238Y2557D02*
X8219Y2538D01*
X8238Y2519D01*
X8257Y2538D01*
X8238Y2557D01*
Y2328D02*
X8219Y2309D01*
X8238Y2290D01*
X8257Y2309D01*
X8238Y2328D01*
M02*
