G04*
G04 #@! TF.GenerationSoftware,Altium Limited,Altium Designer,18.1.7 (191)*
G04*
G04 Layer_Physical_Order=2*
G04 Layer_Color=39423*
%FSLAX24Y24*%
%MOIN*%
G70*
G01*
G75*
%ADD14C,0.0100*%
%ADD15R,0.0709X0.1772*%
%ADD43C,0.0200*%
%ADD44C,0.0591*%
%ADD45R,0.0591X0.0591*%
%ADD46R,0.0900X0.0900*%
%ADD47C,0.0250*%
%ADD48C,0.0200*%
%ADD49C,0.0276*%
%ADD50C,0.0300*%
G36*
X300Y10145D02*
X5050D01*
X5051Y10145D01*
X5100Y10145D01*
X5146Y10136D01*
X5180Y10130D01*
X5248Y10084D01*
X5293Y10016D01*
X5309Y9938D01*
X5309Y9936D01*
Y350D01*
X5309Y349D01*
X5309Y300D01*
X5300Y254D01*
X5293Y220D01*
X5248Y152D01*
X5180Y107D01*
X5102Y91D01*
X5100Y91D01*
X4415D01*
X4398Y141D01*
X4461Y189D01*
X4519Y266D01*
X4556Y355D01*
X4568Y450D01*
X4556Y545D01*
X4519Y634D01*
X4461Y711D01*
X4384Y769D01*
X4295Y806D01*
X4200Y818D01*
X4105Y806D01*
X4043Y780D01*
X3837Y987D01*
X3797Y1013D01*
X3750Y1022D01*
X3102D01*
X3078Y1051D01*
X3105Y1094D01*
X3200Y1082D01*
X3295Y1094D01*
X3384Y1131D01*
X3461Y1189D01*
X3519Y1266D01*
X3556Y1355D01*
X3568Y1450D01*
X3556Y1545D01*
X3519Y1634D01*
X3461Y1711D01*
X3407Y1751D01*
X3424Y1801D01*
X3676D01*
X3870Y1607D01*
X3844Y1545D01*
X3832Y1450D01*
X3844Y1355D01*
X3881Y1266D01*
X3939Y1189D01*
X4016Y1131D01*
X4105Y1094D01*
X4200Y1082D01*
X4295Y1094D01*
X4384Y1131D01*
X4461Y1189D01*
X4519Y1266D01*
X4556Y1355D01*
X4568Y1450D01*
X4556Y1545D01*
X4519Y1634D01*
X4461Y1711D01*
X4384Y1769D01*
X4295Y1806D01*
X4200Y1818D01*
X4105Y1806D01*
X4043Y1780D01*
X3813Y2010D01*
X3773Y2037D01*
X3726Y2046D01*
X2956D01*
X2947Y2058D01*
X2946Y2064D01*
X2970Y2111D01*
X3200D01*
X3266Y2124D01*
X3323Y2162D01*
X3823Y2662D01*
X3860Y2718D01*
X3873Y2784D01*
Y3743D01*
X3884Y3758D01*
X3899Y3834D01*
X3884Y3910D01*
X3873Y3926D01*
Y4184D01*
X3860Y4251D01*
X3823Y4307D01*
X3406Y4723D01*
X3391Y4746D01*
X3326Y4790D01*
X3250Y4805D01*
X3174Y4790D01*
X3158Y4779D01*
X1961D01*
X1936Y4796D01*
X1850Y4813D01*
X1764Y4796D01*
X1691Y4748D01*
X1643Y4675D01*
X1626Y4589D01*
X1643Y4503D01*
X1691Y4430D01*
X1764Y4382D01*
X1850Y4365D01*
X1936Y4382D01*
X2009Y4430D01*
X2009Y4430D01*
X2011Y4431D01*
X2061Y4433D01*
X3158D01*
X3174Y4422D01*
X3228Y4411D01*
X3527Y4112D01*
Y3926D01*
X3516Y3910D01*
X3501Y3834D01*
X3516Y3758D01*
X3527Y3743D01*
Y2858D01*
X3492Y2830D01*
X3449Y2851D01*
X3434Y2926D01*
X3391Y2991D01*
X3326Y3034D01*
X3250Y3049D01*
X3174Y3034D01*
X3109Y2991D01*
X3097Y2972D01*
X2350D01*
X2303Y2963D01*
X2263Y2937D01*
X1891Y2564D01*
X1837Y2575D01*
X1835Y2578D01*
X1849Y2650D01*
X1834Y2726D01*
X1791Y2791D01*
X1726Y2834D01*
X1650Y2849D01*
X1574Y2834D01*
X1509Y2791D01*
X1466Y2726D01*
X1451Y2650D01*
X1466Y2574D01*
X1509Y2509D01*
X1528Y2497D01*
Y1705D01*
X1478Y1688D01*
X1461Y1711D01*
X1384Y1769D01*
X1295Y1806D01*
X1200Y1818D01*
X1105Y1806D01*
X1016Y1769D01*
X939Y1711D01*
X881Y1634D01*
X844Y1545D01*
X832Y1450D01*
X844Y1355D01*
X881Y1266D01*
X939Y1189D01*
X1016Y1131D01*
X1105Y1094D01*
X1200Y1082D01*
X1295Y1094D01*
X1384Y1131D01*
X1461Y1189D01*
X1480Y1214D01*
X1533Y1202D01*
X1537Y1182D01*
X1563Y1142D01*
X1916Y790D01*
X1940Y774D01*
X1949Y718D01*
X1939Y711D01*
X1881Y634D01*
X1844Y545D01*
X1832Y450D01*
X1844Y355D01*
X1881Y266D01*
X1939Y189D01*
X2002Y141D01*
X1985Y91D01*
X350D01*
X349Y91D01*
X300Y91D01*
X254Y100D01*
X220Y107D01*
X152Y152D01*
X107Y220D01*
X91Y298D01*
X91Y300D01*
Y9886D01*
X91Y9887D01*
X91Y9936D01*
X100Y9983D01*
X107Y10016D01*
X152Y10084D01*
X220Y10130D01*
X298Y10145D01*
X300Y10145D01*
D02*
G37*
%LPC*%
G36*
X2796Y4093D02*
X2737Y4081D01*
X2246D01*
X2186Y4093D01*
X2127Y4081D01*
X1966D01*
Y3041D01*
X3006D01*
Y3202D01*
X3018Y3261D01*
X3006Y3321D01*
Y3872D01*
X3008Y3881D01*
X3006Y3891D01*
Y4081D01*
X2856D01*
X2796Y4093D01*
D02*
G37*
%LPD*%
D14*
X2350Y2850D02*
X3250D01*
X1850Y2350D02*
X2350Y2850D01*
X1850Y1800D02*
Y2350D01*
Y1800D02*
X2200Y1450D01*
X1650Y1229D02*
Y2650D01*
Y1229D02*
X2002Y877D01*
X2183Y2100D02*
X2700Y1583D01*
Y1250D02*
Y1583D01*
Y1250D02*
X3050Y900D01*
X3750D01*
X4200Y450D01*
X2002Y877D02*
X2773D01*
X3200Y450D01*
X3726Y1924D02*
X4200Y1450D01*
X2750Y1924D02*
X3726D01*
D15*
X1336Y9231D02*
D03*
X3864D02*
D03*
D43*
X2011Y4606D02*
G03*
X1885Y4554I0J-178D01*
G01*
X3250Y4606D02*
X3278D01*
X1864D02*
X3250D01*
X3700Y2784D02*
Y3834D01*
X3200Y2284D02*
X3700Y2784D01*
X2850Y2284D02*
X3200D01*
X3278Y4606D02*
X3700Y4184D01*
Y3834D02*
Y4184D01*
X1850Y4591D02*
X1864Y4606D01*
X1850Y4589D02*
Y4591D01*
D44*
X4200Y1450D02*
D03*
Y450D02*
D03*
X3200Y1450D02*
D03*
Y450D02*
D03*
X2200Y1450D02*
D03*
Y450D02*
D03*
X1200Y1450D02*
D03*
D45*
Y450D02*
D03*
D46*
X2486Y3561D02*
D03*
D47*
X4300Y2750D02*
D03*
X450Y4969D02*
D03*
X5105Y500D02*
D03*
X5069Y1300D02*
D03*
X5080Y2000D02*
D03*
X300Y350D02*
D03*
X650Y2025D02*
D03*
X3800Y2334D02*
D03*
X3250Y2850D02*
D03*
X1650Y2650D02*
D03*
X2183Y2100D02*
D03*
X2750Y1924D02*
D03*
X450Y950D02*
D03*
X3896Y7850D02*
D03*
X3910Y9200D02*
D03*
X1400Y8600D02*
D03*
Y9200D02*
D03*
X2000Y7950D02*
D03*
X5150Y6084D02*
D03*
X5166Y7134D02*
D03*
X3300Y5594D02*
D03*
X2000Y5650D02*
D03*
X3250Y4606D02*
D03*
X1500Y4184D02*
D03*
X1950Y6000D02*
D03*
X2150Y6500D02*
D03*
X350Y4034D02*
D03*
X700Y5550D02*
D03*
X5105Y8600D02*
D03*
X4600Y9234D02*
D03*
X600D02*
D03*
X5150Y6550D02*
D03*
X3910Y8484D02*
D03*
X600D02*
D03*
Y7734D02*
D03*
X4600Y6400D02*
D03*
X3356Y8054D02*
D03*
X1915Y6850D02*
D03*
X3700Y5950D02*
D03*
X3250Y6750D02*
D03*
X3800Y6440D02*
D03*
X600Y6234D02*
D03*
Y6984D02*
D03*
X2100Y7450D02*
D03*
X1350Y6234D02*
D03*
X1400Y5334D02*
D03*
X1050Y2400D02*
D03*
X4050Y4934D02*
D03*
X5100Y4634D02*
D03*
X2850Y2284D02*
D03*
X3700Y3834D02*
D03*
D48*
X3050Y6500D02*
D03*
X2950Y5850D02*
D03*
Y6200D02*
D03*
Y6850D02*
D03*
X3050Y8000D02*
D03*
X1360Y9800D02*
D03*
X3860D02*
D03*
X3238Y8450D02*
D03*
X3174Y8950D02*
D03*
X3238Y9450D02*
D03*
X3193Y9900D02*
D03*
X1985Y8550D02*
D03*
X2000Y9034D02*
D03*
X1971Y9500D02*
D03*
X1985Y9936D02*
D03*
X5066Y9800D02*
D03*
X4500Y9900D02*
D03*
X607Y9800D02*
D03*
X261Y9886D02*
D03*
X4450Y5650D02*
D03*
X3255Y4254D02*
D03*
X4100Y2028D02*
D03*
X4784Y250D02*
D03*
X5166Y900D02*
D03*
X5050Y1629D02*
D03*
X5146Y2350D02*
D03*
X5166Y2715D02*
D03*
X5146Y3727D02*
D03*
Y4200D02*
D03*
X5082Y5050D02*
D03*
X5100Y5601D02*
D03*
X5105Y7700D02*
D03*
X5146Y8139D02*
D03*
Y9150D02*
D03*
X1209Y6834D02*
D03*
X947Y6450D02*
D03*
X1550Y7350D02*
D03*
X1395Y8100D02*
D03*
X1100Y7550D02*
D03*
X950Y9200D02*
D03*
X250Y9204D02*
D03*
Y8800D02*
D03*
X261Y8091D02*
D03*
X300Y7350D02*
D03*
X250Y6600D02*
D03*
Y5935D02*
D03*
X261Y5400D02*
D03*
X300Y4422D02*
D03*
D49*
X2183Y3258D02*
D03*
X2796Y3881D02*
D03*
X2806Y3261D02*
D03*
X2186Y3881D02*
D03*
D50*
X1850Y4589D02*
D03*
M02*
