G04*
G04 #@! TF.GenerationSoftware,Altium Limited,Altium Designer,18.1.7 (191)*
G04*
G04 Layer_Color=32896*
%FSLAX24Y24*%
%MOIN*%
G70*
G01*
G75*
%ADD51C,0.0020*%
G36*
X5147Y8218D02*
X4974Y8104D01*
X5147Y7990D01*
Y7866D01*
X4881Y8042D01*
X4635Y7882D01*
Y8002D01*
X4788Y8104D01*
X4635Y8205D01*
Y8326D01*
X4881Y8165D01*
X5147Y8342D01*
Y8218D01*
D02*
G37*
G36*
Y7708D02*
X4933D01*
Y7675D01*
X4934Y7665D01*
X4935Y7656D01*
X4936Y7649D01*
X4937Y7643D01*
X4938Y7639D01*
X4939Y7637D01*
Y7636D01*
X4942Y7630D01*
X4945Y7624D01*
X4949Y7619D01*
X4952Y7614D01*
X4955Y7610D01*
X4958Y7607D01*
X4960Y7606D01*
X4961Y7605D01*
X4964Y7602D01*
X4968Y7598D01*
X4979Y7590D01*
X4991Y7581D01*
X5004Y7572D01*
X5016Y7563D01*
X5022Y7560D01*
X5026Y7557D01*
X5030Y7554D01*
X5033Y7552D01*
X5035Y7551D01*
X5036Y7550D01*
X5147Y7476D01*
Y7352D01*
X5047Y7415D01*
X5037Y7421D01*
X5026Y7428D01*
X5018Y7434D01*
X5009Y7440D01*
X5002Y7445D01*
X4995Y7449D01*
X4984Y7458D01*
X4975Y7465D01*
X4969Y7469D01*
X4965Y7473D01*
X4964Y7474D01*
X4955Y7482D01*
X4947Y7492D01*
X4941Y7501D01*
X4934Y7509D01*
X4929Y7517D01*
X4925Y7523D01*
X4922Y7527D01*
X4921Y7528D01*
Y7529D01*
X4919Y7516D01*
X4916Y7505D01*
X4913Y7495D01*
X4910Y7484D01*
X4906Y7475D01*
X4902Y7467D01*
X4898Y7459D01*
X4894Y7452D01*
X4890Y7447D01*
X4887Y7441D01*
X4883Y7437D01*
X4880Y7434D01*
X4878Y7431D01*
X4876Y7429D01*
X4875Y7428D01*
X4874Y7427D01*
X4867Y7421D01*
X4859Y7416D01*
X4843Y7407D01*
X4827Y7401D01*
X4812Y7398D01*
X4799Y7395D01*
X4793Y7394D01*
X4788D01*
X4785Y7393D01*
X4781D01*
X4779D01*
X4779D01*
X4762Y7394D01*
X4747Y7397D01*
X4733Y7401D01*
X4722Y7404D01*
X4712Y7409D01*
X4705Y7412D01*
X4702Y7414D01*
X4700Y7415D01*
X4699Y7416D01*
X4699D01*
X4686Y7425D01*
X4676Y7435D01*
X4668Y7444D01*
X4660Y7454D01*
X4656Y7463D01*
X4652Y7469D01*
X4650Y7474D01*
X4649Y7475D01*
Y7475D01*
X4647Y7483D01*
X4645Y7491D01*
X4641Y7509D01*
X4639Y7529D01*
X4636Y7549D01*
Y7558D01*
X4636Y7566D01*
Y7575D01*
X4635Y7581D01*
Y7812D01*
X5147D01*
Y7708D01*
D02*
G37*
G36*
X5010Y7115D02*
X4912D01*
Y7308D01*
X5010D01*
Y7115D01*
D02*
G37*
G36*
X4918Y7075D02*
X4938Y7073D01*
X4958Y7070D01*
X4976Y7065D01*
X4993Y7061D01*
X5009Y7055D01*
X5024Y7049D01*
X5036Y7043D01*
X5048Y7037D01*
X5058Y7031D01*
X5066Y7025D01*
X5074Y7021D01*
X5079Y7017D01*
X5083Y7014D01*
X5086Y7011D01*
X5086Y7011D01*
X5099Y6998D01*
X5109Y6985D01*
X5119Y6971D01*
X5126Y6957D01*
X5133Y6943D01*
X5139Y6929D01*
X5143Y6915D01*
X5147Y6903D01*
X5150Y6890D01*
X5152Y6879D01*
X5154Y6869D01*
X5155Y6860D01*
X5155Y6853D01*
X5156Y6848D01*
Y6843D01*
X5155Y6828D01*
X5155Y6814D01*
X5152Y6800D01*
X5149Y6787D01*
X5146Y6775D01*
X5143Y6764D01*
X5140Y6754D01*
X5135Y6744D01*
X5132Y6736D01*
X5128Y6729D01*
X5125Y6722D01*
X5122Y6717D01*
X5119Y6712D01*
X5117Y6709D01*
X5116Y6708D01*
X5115Y6707D01*
X5107Y6698D01*
X5098Y6689D01*
X5078Y6672D01*
X5058Y6659D01*
X5038Y6649D01*
X5028Y6644D01*
X5019Y6641D01*
X5011Y6638D01*
X5004Y6635D01*
X4998Y6633D01*
X4994Y6631D01*
X4991Y6630D01*
X4990D01*
X4959Y6731D01*
X4979Y6737D01*
X4996Y6744D01*
X5010Y6750D01*
X5022Y6758D01*
X5031Y6764D01*
X5037Y6769D01*
X5041Y6772D01*
X5042Y6774D01*
X5051Y6786D01*
X5057Y6798D01*
X5061Y6809D01*
X5065Y6820D01*
X5066Y6829D01*
X5067Y6838D01*
X5068Y6840D01*
Y6844D01*
X5067Y6855D01*
X5066Y6864D01*
X5061Y6882D01*
X5055Y6897D01*
X5047Y6910D01*
X5040Y6920D01*
X5034Y6928D01*
X5031Y6931D01*
X5029Y6933D01*
X5028Y6934D01*
X5027Y6934D01*
X5019Y6940D01*
X5009Y6946D01*
X4999Y6951D01*
X4988Y6954D01*
X4965Y6960D01*
X4942Y6965D01*
X4931Y6966D01*
X4921Y6967D01*
X4912Y6968D01*
X4904D01*
X4898Y6969D01*
X4893D01*
X4889D01*
X4888D01*
X4871Y6968D01*
X4856Y6968D01*
X4841Y6966D01*
X4828Y6964D01*
X4816Y6961D01*
X4805Y6958D01*
X4796Y6955D01*
X4787Y6951D01*
X4779Y6949D01*
X4773Y6946D01*
X4767Y6943D01*
X4763Y6940D01*
X4759Y6937D01*
X4757Y6936D01*
X4756Y6934D01*
X4755D01*
X4748Y6928D01*
X4741Y6920D01*
X4736Y6913D01*
X4731Y6905D01*
X4724Y6889D01*
X4719Y6875D01*
X4716Y6862D01*
X4715Y6856D01*
X4714Y6852D01*
X4713Y6847D01*
Y6842D01*
X4714Y6827D01*
X4717Y6814D01*
X4721Y6802D01*
X4725Y6792D01*
X4730Y6783D01*
X4733Y6778D01*
X4736Y6774D01*
X4737Y6772D01*
X4746Y6763D01*
X4756Y6754D01*
X4767Y6747D01*
X4777Y6742D01*
X4786Y6738D01*
X4793Y6736D01*
X4796Y6735D01*
X4798D01*
X4799Y6734D01*
X4799D01*
X4775Y6632D01*
X4753Y6639D01*
X4735Y6647D01*
X4719Y6656D01*
X4705Y6664D01*
X4695Y6672D01*
X4691Y6675D01*
X4687Y6678D01*
X4685Y6681D01*
X4682Y6683D01*
X4681Y6684D01*
Y6684D01*
X4671Y6695D01*
X4662Y6708D01*
X4655Y6720D01*
X4649Y6732D01*
X4643Y6746D01*
X4639Y6758D01*
X4635Y6771D01*
X4632Y6783D01*
X4630Y6794D01*
X4628Y6804D01*
X4627Y6813D01*
X4626Y6821D01*
X4625Y6828D01*
Y6837D01*
X4626Y6856D01*
X4628Y6875D01*
X4632Y6892D01*
X4636Y6909D01*
X4642Y6924D01*
X4648Y6939D01*
X4654Y6951D01*
X4661Y6963D01*
X4668Y6974D01*
X4674Y6983D01*
X4680Y6991D01*
X4685Y6998D01*
X4690Y7003D01*
X4693Y7007D01*
X4696Y7009D01*
X4696Y7010D01*
X4710Y7022D01*
X4725Y7031D01*
X4741Y7040D01*
X4757Y7048D01*
X4774Y7054D01*
X4790Y7060D01*
X4807Y7064D01*
X4822Y7068D01*
X4838Y7071D01*
X4851Y7072D01*
X4864Y7074D01*
X4874Y7075D01*
X4883D01*
X4890Y7076D01*
X4894D01*
X4895D01*
X4895D01*
X4918Y7075D01*
D02*
G37*
G36*
Y6559D02*
X4938Y6556D01*
X4958Y6553D01*
X4976Y6549D01*
X4993Y6544D01*
X5009Y6539D01*
X5024Y6533D01*
X5036Y6527D01*
X5048Y6521D01*
X5058Y6515D01*
X5066Y6509D01*
X5074Y6505D01*
X5079Y6500D01*
X5083Y6497D01*
X5086Y6495D01*
X5086Y6494D01*
X5099Y6482D01*
X5109Y6468D01*
X5119Y6454D01*
X5126Y6440D01*
X5133Y6426D01*
X5139Y6412D01*
X5143Y6399D01*
X5147Y6386D01*
X5150Y6374D01*
X5152Y6362D01*
X5154Y6352D01*
X5155Y6344D01*
X5155Y6337D01*
X5156Y6331D01*
Y6327D01*
X5155Y6311D01*
X5155Y6297D01*
X5152Y6283D01*
X5149Y6271D01*
X5146Y6259D01*
X5143Y6248D01*
X5140Y6237D01*
X5135Y6228D01*
X5132Y6220D01*
X5128Y6212D01*
X5125Y6206D01*
X5122Y6200D01*
X5119Y6196D01*
X5117Y6193D01*
X5116Y6191D01*
X5115Y6191D01*
X5107Y6181D01*
X5098Y6172D01*
X5078Y6156D01*
X5058Y6143D01*
X5038Y6132D01*
X5028Y6128D01*
X5019Y6124D01*
X5011Y6121D01*
X5004Y6118D01*
X4998Y6116D01*
X4994Y6115D01*
X4991Y6114D01*
X4990D01*
X4959Y6214D01*
X4979Y6220D01*
X4996Y6227D01*
X5010Y6234D01*
X5022Y6241D01*
X5031Y6247D01*
X5037Y6252D01*
X5041Y6256D01*
X5042Y6257D01*
X5051Y6269D01*
X5057Y6281D01*
X5061Y6293D01*
X5065Y6303D01*
X5066Y6313D01*
X5067Y6321D01*
X5068Y6324D01*
Y6328D01*
X5067Y6338D01*
X5066Y6348D01*
X5061Y6365D01*
X5055Y6381D01*
X5047Y6394D01*
X5040Y6404D01*
X5034Y6411D01*
X5031Y6414D01*
X5029Y6416D01*
X5028Y6417D01*
X5027Y6418D01*
X5019Y6424D01*
X5009Y6429D01*
X4999Y6434D01*
X4988Y6438D01*
X4965Y6444D01*
X4942Y6448D01*
X4931Y6450D01*
X4921Y6450D01*
X4912Y6452D01*
X4904D01*
X4898Y6453D01*
X4893D01*
X4889D01*
X4888D01*
X4871Y6452D01*
X4856Y6451D01*
X4841Y6450D01*
X4828Y6448D01*
X4816Y6445D01*
X4805Y6442D01*
X4796Y6439D01*
X4787Y6435D01*
X4779Y6432D01*
X4773Y6429D01*
X4767Y6426D01*
X4763Y6423D01*
X4759Y6421D01*
X4757Y6419D01*
X4756Y6418D01*
X4755D01*
X4748Y6411D01*
X4741Y6404D01*
X4736Y6396D01*
X4731Y6388D01*
X4724Y6373D01*
X4719Y6358D01*
X4716Y6345D01*
X4715Y6339D01*
X4714Y6335D01*
X4713Y6331D01*
Y6325D01*
X4714Y6311D01*
X4717Y6297D01*
X4721Y6285D01*
X4725Y6275D01*
X4730Y6267D01*
X4733Y6261D01*
X4736Y6257D01*
X4737Y6256D01*
X4746Y6246D01*
X4756Y6237D01*
X4767Y6231D01*
X4777Y6226D01*
X4786Y6222D01*
X4793Y6220D01*
X4796Y6218D01*
X4798D01*
X4799Y6217D01*
X4799D01*
X4775Y6115D01*
X4753Y6123D01*
X4735Y6131D01*
X4719Y6140D01*
X4705Y6148D01*
X4695Y6156D01*
X4691Y6159D01*
X4687Y6162D01*
X4685Y6164D01*
X4682Y6166D01*
X4681Y6167D01*
Y6168D01*
X4671Y6179D01*
X4662Y6191D01*
X4655Y6203D01*
X4649Y6216D01*
X4643Y6229D01*
X4639Y6242D01*
X4635Y6254D01*
X4632Y6266D01*
X4630Y6277D01*
X4628Y6288D01*
X4627Y6297D01*
X4626Y6305D01*
X4625Y6311D01*
Y6320D01*
X4626Y6339D01*
X4628Y6359D01*
X4632Y6376D01*
X4636Y6393D01*
X4642Y6408D01*
X4648Y6422D01*
X4654Y6435D01*
X4661Y6447D01*
X4668Y6458D01*
X4674Y6467D01*
X4680Y6475D01*
X4685Y6482D01*
X4690Y6487D01*
X4693Y6490D01*
X4696Y6493D01*
X4696Y6493D01*
X4710Y6505D01*
X4725Y6515D01*
X4741Y6524D01*
X4757Y6531D01*
X4774Y6538D01*
X4790Y6543D01*
X4807Y6547D01*
X4822Y6551D01*
X4838Y6554D01*
X4851Y6556D01*
X4864Y6557D01*
X4874Y6559D01*
X4883D01*
X4890Y6559D01*
X4894D01*
X4895D01*
X4895D01*
X4918Y6559D01*
D02*
G37*
G36*
X4840Y5994D02*
X4829Y5970D01*
X4823Y5959D01*
X4816Y5949D01*
X4810Y5939D01*
X4804Y5930D01*
X4799Y5922D01*
X4793Y5915D01*
X4789Y5909D01*
X4785Y5904D01*
X4781Y5899D01*
X4779Y5896D01*
X4777Y5895D01*
X4776Y5894D01*
X5147D01*
Y5796D01*
X4632D01*
Y5876D01*
X4649Y5883D01*
X4665Y5893D01*
X4679Y5903D01*
X4691Y5913D01*
X4701Y5922D01*
X4708Y5930D01*
X4711Y5933D01*
X4713Y5935D01*
X4714Y5937D01*
X4715Y5938D01*
X4727Y5954D01*
X4737Y5969D01*
X4745Y5984D01*
X4751Y5996D01*
X4756Y6006D01*
X4759Y6014D01*
X4760Y6017D01*
X4761Y6019D01*
X4762Y6020D01*
Y6021D01*
X4850D01*
X4840Y5994D01*
D02*
G37*
G36*
Y5596D02*
X4829Y5572D01*
X4823Y5561D01*
X4816Y5551D01*
X4810Y5541D01*
X4804Y5532D01*
X4799Y5524D01*
X4793Y5517D01*
X4789Y5511D01*
X4785Y5506D01*
X4781Y5501D01*
X4779Y5498D01*
X4777Y5497D01*
X4776Y5496D01*
X5147D01*
Y5397D01*
X4632D01*
Y5477D01*
X4649Y5485D01*
X4665Y5494D01*
X4679Y5505D01*
X4691Y5515D01*
X4701Y5524D01*
X4708Y5532D01*
X4711Y5535D01*
X4713Y5537D01*
X4714Y5539D01*
X4715Y5540D01*
X4727Y5556D01*
X4737Y5571D01*
X4745Y5585D01*
X4751Y5598D01*
X4756Y5608D01*
X4759Y5616D01*
X4760Y5619D01*
X4761Y5621D01*
X4762Y5622D01*
Y5622D01*
X4850D01*
X4840Y5596D01*
D02*
G37*
G36*
X4921Y5249D02*
X4945Y5248D01*
X4968Y5246D01*
X4989Y5243D01*
X5007Y5240D01*
X5024Y5236D01*
X5039Y5232D01*
X5052Y5227D01*
X5063Y5224D01*
X5074Y5219D01*
X5082Y5215D01*
X5089Y5212D01*
X5093Y5210D01*
X5097Y5207D01*
X5099Y5206D01*
X5100Y5205D01*
X5110Y5196D01*
X5118Y5187D01*
X5126Y5177D01*
X5132Y5167D01*
X5138Y5157D01*
X5143Y5147D01*
X5146Y5137D01*
X5149Y5127D01*
X5152Y5118D01*
X5154Y5110D01*
X5155Y5103D01*
X5156Y5097D01*
Y5092D01*
X5157Y5087D01*
Y5084D01*
X5156Y5071D01*
X5155Y5059D01*
X5152Y5046D01*
X5149Y5035D01*
X5145Y5025D01*
X5140Y5015D01*
X5135Y5007D01*
X5130Y4999D01*
X5126Y4992D01*
X5120Y4985D01*
X5116Y4980D01*
X5112Y4976D01*
X5109Y4973D01*
X5106Y4970D01*
X5105Y4969D01*
X5104Y4968D01*
X5092Y4959D01*
X5077Y4952D01*
X5061Y4945D01*
X5044Y4939D01*
X5027Y4934D01*
X5010Y4931D01*
X4992Y4927D01*
X4975Y4924D01*
X4959Y4922D01*
X4944Y4921D01*
X4930Y4919D01*
X4918Y4919D01*
X4909Y4918D01*
X4901D01*
X4898D01*
X4896D01*
X4895D01*
X4895D01*
X4868Y4919D01*
X4844Y4920D01*
X4821Y4922D01*
X4801Y4926D01*
X4782Y4930D01*
X4765Y4933D01*
X4749Y4939D01*
X4736Y4943D01*
X4723Y4948D01*
X4713Y4952D01*
X4705Y4956D01*
X4697Y4960D01*
X4692Y4964D01*
X4688Y4966D01*
X4686Y4968D01*
X4685Y4968D01*
X4676Y4976D01*
X4668Y4985D01*
X4661Y4995D01*
X4654Y5005D01*
X4649Y5014D01*
X4645Y5024D01*
X4642Y5033D01*
X4639Y5042D01*
X4636Y5051D01*
X4635Y5059D01*
X4634Y5066D01*
X4633Y5072D01*
X4632Y5077D01*
Y5084D01*
X4633Y5098D01*
X4634Y5110D01*
X4637Y5123D01*
X4640Y5134D01*
X4645Y5144D01*
X4649Y5154D01*
X4654Y5162D01*
X4659Y5170D01*
X4664Y5177D01*
X4668Y5184D01*
X4673Y5189D01*
X4677Y5192D01*
X4680Y5196D01*
X4683Y5198D01*
X4685Y5200D01*
X4685Y5201D01*
X4698Y5210D01*
X4713Y5217D01*
X4728Y5224D01*
X4745Y5229D01*
X4762Y5234D01*
X4779Y5238D01*
X4796Y5241D01*
X4813Y5244D01*
X4830Y5246D01*
X4844Y5247D01*
X4859Y5249D01*
X4870Y5249D01*
X4880Y5250D01*
X4887D01*
X4890D01*
X4893D01*
X4893D01*
X4894D01*
X4921Y5249D01*
D02*
G37*
G36*
X4840Y4800D02*
X4829Y4776D01*
X4823Y4765D01*
X4816Y4754D01*
X4810Y4745D01*
X4804Y4736D01*
X4799Y4728D01*
X4793Y4720D01*
X4789Y4714D01*
X4785Y4709D01*
X4781Y4705D01*
X4779Y4702D01*
X4777Y4700D01*
X4776Y4700D01*
X5147D01*
Y4601D01*
X4632D01*
Y4681D01*
X4649Y4689D01*
X4665Y4698D01*
X4679Y4709D01*
X4691Y4719D01*
X4701Y4728D01*
X4708Y4736D01*
X4711Y4739D01*
X4713Y4741D01*
X4714Y4743D01*
X4715Y4743D01*
X4727Y4760D01*
X4737Y4775D01*
X4745Y4789D01*
X4751Y4802D01*
X4756Y4812D01*
X4759Y4820D01*
X4760Y4822D01*
X4761Y4825D01*
X4762Y4825D01*
Y4826D01*
X4850D01*
X4840Y4800D01*
D02*
G37*
G36*
X5010Y4251D02*
X4912D01*
Y4444D01*
X5010D01*
Y4251D01*
D02*
G37*
G36*
X5147Y4090D02*
X4923D01*
Y3888D01*
X5147D01*
Y3784D01*
X4635D01*
Y3888D01*
X4836D01*
Y4090D01*
X4635D01*
Y4193D01*
X5147D01*
Y4090D01*
D02*
G37*
G36*
Y3347D02*
Y3235D01*
X4635Y3053D01*
Y3163D01*
X5014Y3288D01*
X4635Y3419D01*
Y3530D01*
X5147Y3347D01*
D02*
G37*
G36*
X4840Y2970D02*
X4829Y2947D01*
X4823Y2935D01*
X4816Y2925D01*
X4810Y2916D01*
X4804Y2907D01*
X4799Y2898D01*
X4793Y2891D01*
X4789Y2885D01*
X4785Y2880D01*
X4781Y2876D01*
X4779Y2873D01*
X4777Y2871D01*
X4776Y2870D01*
X5147D01*
Y2772D01*
X4632D01*
Y2852D01*
X4649Y2859D01*
X4665Y2869D01*
X4679Y2879D01*
X4691Y2890D01*
X4701Y2898D01*
X4708Y2907D01*
X4711Y2910D01*
X4713Y2912D01*
X4714Y2913D01*
X4715Y2914D01*
X4727Y2930D01*
X4737Y2946D01*
X4745Y2960D01*
X4751Y2972D01*
X4756Y2983D01*
X4759Y2990D01*
X4760Y2993D01*
X4761Y2995D01*
X4762Y2996D01*
Y2997D01*
X4850D01*
X4840Y2970D01*
D02*
G37*
G36*
X5147Y2506D02*
X5049D01*
Y2604D01*
X5147D01*
Y2506D01*
D02*
G37*
G36*
X4921Y2425D02*
X4945Y2423D01*
X4968Y2421D01*
X4989Y2418D01*
X5007Y2415D01*
X5024Y2412D01*
X5039Y2407D01*
X5052Y2403D01*
X5063Y2399D01*
X5074Y2395D01*
X5082Y2391D01*
X5089Y2387D01*
X5093Y2385D01*
X5097Y2383D01*
X5099Y2381D01*
X5100Y2380D01*
X5110Y2372D01*
X5118Y2362D01*
X5126Y2352D01*
X5132Y2342D01*
X5138Y2332D01*
X5143Y2322D01*
X5146Y2312D01*
X5149Y2303D01*
X5152Y2294D01*
X5154Y2286D01*
X5155Y2278D01*
X5156Y2272D01*
Y2267D01*
X5157Y2263D01*
Y2260D01*
X5156Y2247D01*
X5155Y2234D01*
X5152Y2221D01*
X5149Y2210D01*
X5145Y2200D01*
X5140Y2190D01*
X5135Y2182D01*
X5130Y2174D01*
X5126Y2167D01*
X5120Y2161D01*
X5116Y2156D01*
X5112Y2151D01*
X5109Y2148D01*
X5106Y2146D01*
X5105Y2144D01*
X5104Y2144D01*
X5092Y2135D01*
X5077Y2127D01*
X5061Y2120D01*
X5044Y2115D01*
X5027Y2110D01*
X5010Y2106D01*
X4992Y2102D01*
X4975Y2099D01*
X4959Y2098D01*
X4944Y2096D01*
X4930Y2095D01*
X4918Y2094D01*
X4909Y2093D01*
X4901D01*
X4898D01*
X4896D01*
X4895D01*
X4895D01*
X4868Y2094D01*
X4844Y2096D01*
X4821Y2098D01*
X4801Y2102D01*
X4782Y2105D01*
X4765Y2109D01*
X4749Y2114D01*
X4736Y2119D01*
X4723Y2123D01*
X4713Y2127D01*
X4705Y2132D01*
X4697Y2136D01*
X4692Y2139D01*
X4688Y2141D01*
X4686Y2143D01*
X4685Y2144D01*
X4676Y2152D01*
X4668Y2161D01*
X4661Y2170D01*
X4654Y2180D01*
X4649Y2190D01*
X4645Y2199D01*
X4642Y2208D01*
X4639Y2218D01*
X4636Y2227D01*
X4635Y2234D01*
X4634Y2241D01*
X4633Y2247D01*
X4632Y2252D01*
Y2260D01*
X4633Y2273D01*
X4634Y2286D01*
X4637Y2298D01*
X4640Y2309D01*
X4645Y2320D01*
X4649Y2329D01*
X4654Y2338D01*
X4659Y2346D01*
X4664Y2352D01*
X4668Y2359D01*
X4673Y2364D01*
X4677Y2368D01*
X4680Y2372D01*
X4683Y2374D01*
X4685Y2375D01*
X4685Y2376D01*
X4698Y2385D01*
X4713Y2392D01*
X4728Y2399D01*
X4745Y2405D01*
X4762Y2409D01*
X4779Y2414D01*
X4796Y2417D01*
X4813Y2420D01*
X4830Y2421D01*
X4844Y2423D01*
X4859Y2424D01*
X4870Y2425D01*
X4880Y2426D01*
X4887D01*
X4890D01*
X4893D01*
X4893D01*
X4894D01*
X4921Y2425D01*
D02*
G37*
G36*
X4413Y6594D02*
X4322D01*
Y6790D01*
X4312Y6784D01*
X4304Y6777D01*
X4301Y6774D01*
X4298Y6772D01*
X4296Y6770D01*
X4295Y6770D01*
X4292Y6767D01*
X4289Y6764D01*
X4281Y6755D01*
X4271Y6745D01*
X4261Y6736D01*
X4252Y6726D01*
X4245Y6718D01*
X4242Y6715D01*
X4240Y6713D01*
X4239Y6711D01*
X4238Y6710D01*
X4223Y6694D01*
X4210Y6681D01*
X4198Y6670D01*
X4190Y6661D01*
X4182Y6654D01*
X4177Y6650D01*
X4173Y6647D01*
X4173Y6646D01*
X4160Y6636D01*
X4148Y6628D01*
X4137Y6622D01*
X4127Y6616D01*
X4119Y6612D01*
X4113Y6609D01*
X4109Y6608D01*
X4107Y6607D01*
X4096Y6602D01*
X4084Y6599D01*
X4073Y6597D01*
X4062Y6596D01*
X4054Y6595D01*
X4047Y6594D01*
X4043D01*
X4042D01*
X4030Y6595D01*
X4019Y6596D01*
X4009Y6598D01*
X3999Y6601D01*
X3982Y6608D01*
X3968Y6616D01*
X3961Y6620D01*
X3956Y6624D01*
X3951Y6628D01*
X3947Y6631D01*
X3944Y6634D01*
X3941Y6636D01*
X3940Y6637D01*
X3939Y6638D01*
X3932Y6646D01*
X3925Y6656D01*
X3920Y6665D01*
X3916Y6675D01*
X3908Y6694D01*
X3903Y6713D01*
X3902Y6722D01*
X3900Y6730D01*
X3899Y6738D01*
X3899Y6744D01*
X3898Y6750D01*
Y6757D01*
X3899Y6770D01*
X3899Y6781D01*
X3903Y6804D01*
X3909Y6824D01*
X3912Y6833D01*
X3916Y6841D01*
X3919Y6848D01*
X3922Y6854D01*
X3925Y6860D01*
X3928Y6864D01*
X3931Y6868D01*
X3932Y6870D01*
X3933Y6872D01*
X3934Y6873D01*
X3941Y6881D01*
X3948Y6888D01*
X3957Y6895D01*
X3967Y6901D01*
X3986Y6910D01*
X4005Y6917D01*
X4014Y6919D01*
X4022Y6921D01*
X4030Y6924D01*
X4036Y6924D01*
X4042Y6926D01*
X4046D01*
X4049Y6927D01*
X4050D01*
X4059Y6829D01*
X4045Y6827D01*
X4032Y6824D01*
X4021Y6821D01*
X4013Y6818D01*
X4006Y6815D01*
X4002Y6812D01*
X3999Y6810D01*
X3998Y6809D01*
X3992Y6801D01*
X3988Y6793D01*
X3984Y6785D01*
X3982Y6777D01*
X3980Y6770D01*
X3979Y6764D01*
Y6759D01*
X3980Y6748D01*
X3982Y6739D01*
X3985Y6730D01*
X3988Y6723D01*
X3991Y6718D01*
X3994Y6713D01*
X3996Y6711D01*
X3997Y6710D01*
X4005Y6705D01*
X4013Y6700D01*
X4021Y6697D01*
X4029Y6695D01*
X4036Y6693D01*
X4043Y6693D01*
X4047D01*
X4047D01*
X4048D01*
X4059Y6693D01*
X4070Y6696D01*
X4080Y6699D01*
X4089Y6703D01*
X4097Y6707D01*
X4103Y6710D01*
X4107Y6713D01*
X4108Y6713D01*
X4113Y6716D01*
X4118Y6721D01*
X4124Y6727D01*
X4130Y6733D01*
X4144Y6746D01*
X4158Y6759D01*
X4172Y6773D01*
X4178Y6779D01*
X4182Y6784D01*
X4187Y6789D01*
X4190Y6792D01*
X4192Y6794D01*
X4193Y6795D01*
X4207Y6810D01*
X4220Y6823D01*
X4232Y6836D01*
X4244Y6847D01*
X4255Y6857D01*
X4265Y6866D01*
X4274Y6874D01*
X4283Y6881D01*
X4290Y6887D01*
X4297Y6892D01*
X4302Y6896D01*
X4307Y6899D01*
X4310Y6902D01*
X4313Y6904D01*
X4315Y6905D01*
X4315D01*
X4332Y6915D01*
X4350Y6922D01*
X4366Y6928D01*
X4381Y6932D01*
X4395Y6935D01*
X4400Y6936D01*
X4404Y6937D01*
X4408Y6938D01*
X4411Y6938D01*
X4412D01*
X4413D01*
Y6594D01*
D02*
G37*
G36*
X4187Y6527D02*
X4211Y6525D01*
X4234Y6523D01*
X4255Y6520D01*
X4273Y6517D01*
X4290Y6514D01*
X4305Y6509D01*
X4318Y6505D01*
X4329Y6501D01*
X4340Y6497D01*
X4348Y6493D01*
X4355Y6489D01*
X4359Y6487D01*
X4363Y6485D01*
X4365Y6483D01*
X4366Y6483D01*
X4376Y6474D01*
X4384Y6464D01*
X4392Y6454D01*
X4398Y6444D01*
X4404Y6434D01*
X4409Y6424D01*
X4412Y6414D01*
X4415Y6405D01*
X4418Y6396D01*
X4420Y6388D01*
X4421Y6380D01*
X4422Y6374D01*
Y6369D01*
X4423Y6365D01*
Y6362D01*
X4422Y6349D01*
X4420Y6336D01*
X4417Y6323D01*
X4415Y6312D01*
X4411Y6302D01*
X4406Y6292D01*
X4401Y6284D01*
X4396Y6276D01*
X4392Y6269D01*
X4386Y6263D01*
X4382Y6258D01*
X4378Y6253D01*
X4375Y6250D01*
X4372Y6248D01*
X4371Y6246D01*
X4370Y6246D01*
X4358Y6237D01*
X4343Y6229D01*
X4327Y6222D01*
X4310Y6217D01*
X4293Y6212D01*
X4276Y6208D01*
X4258Y6204D01*
X4241Y6201D01*
X4225Y6200D01*
X4210Y6198D01*
X4196Y6197D01*
X4184Y6196D01*
X4175Y6195D01*
X4167D01*
X4164D01*
X4162D01*
X4161D01*
X4161D01*
X4134Y6196D01*
X4110Y6198D01*
X4087Y6200D01*
X4067Y6204D01*
X4047Y6207D01*
X4030Y6211D01*
X4015Y6216D01*
X4002Y6221D01*
X3989Y6225D01*
X3979Y6229D01*
X3971Y6234D01*
X3963Y6238D01*
X3958Y6241D01*
X3954Y6244D01*
X3952Y6245D01*
X3951Y6246D01*
X3942Y6254D01*
X3934Y6263D01*
X3927Y6272D01*
X3920Y6282D01*
X3915Y6292D01*
X3911Y6301D01*
X3908Y6310D01*
X3905Y6320D01*
X3902Y6329D01*
X3901Y6336D01*
X3899Y6343D01*
X3899Y6349D01*
X3898Y6355D01*
Y6362D01*
X3899Y6375D01*
X3900Y6388D01*
X3903Y6400D01*
X3906Y6411D01*
X3911Y6422D01*
X3915Y6431D01*
X3919Y6440D01*
X3925Y6448D01*
X3930Y6454D01*
X3934Y6461D01*
X3939Y6466D01*
X3943Y6470D01*
X3946Y6474D01*
X3949Y6476D01*
X3951Y6477D01*
X3951Y6478D01*
X3964Y6487D01*
X3979Y6494D01*
X3994Y6501D01*
X4010Y6507D01*
X4028Y6511D01*
X4045Y6516D01*
X4062Y6519D01*
X4079Y6522D01*
X4096Y6523D01*
X4110Y6525D01*
X4124Y6526D01*
X4136Y6527D01*
X4146Y6528D01*
X4153D01*
X4156D01*
X4158D01*
X4159D01*
X4160D01*
X4187Y6527D01*
D02*
G37*
G36*
X4106Y6077D02*
X4095Y6053D01*
X4089Y6042D01*
X4082Y6032D01*
X4076Y6022D01*
X4070Y6013D01*
X4065Y6005D01*
X4059Y5998D01*
X4055Y5992D01*
X4050Y5987D01*
X4047Y5982D01*
X4045Y5979D01*
X4043Y5978D01*
X4042Y5977D01*
X4413D01*
Y5879D01*
X3898D01*
Y5959D01*
X3915Y5966D01*
X3931Y5976D01*
X3945Y5986D01*
X3957Y5996D01*
X3967Y6005D01*
X3974Y6013D01*
X3977Y6016D01*
X3979Y6019D01*
X3980Y6020D01*
X3981Y6021D01*
X3993Y6037D01*
X4003Y6053D01*
X4011Y6067D01*
X4017Y6079D01*
X4022Y6090D01*
X4025Y6097D01*
X4026Y6100D01*
X4027Y6102D01*
X4028Y6103D01*
Y6104D01*
X4116D01*
X4106Y6077D01*
D02*
G37*
G36*
X4086Y5738D02*
X4099Y5737D01*
X4112Y5735D01*
X4123Y5732D01*
X4134Y5728D01*
X4144Y5725D01*
X4153Y5721D01*
X4161Y5717D01*
X4169Y5713D01*
X4176Y5709D01*
X4181Y5706D01*
X4186Y5702D01*
X4189Y5699D01*
X4192Y5697D01*
X4193Y5696D01*
X4194Y5695D01*
X4202Y5687D01*
X4210Y5678D01*
X4215Y5669D01*
X4221Y5660D01*
X4225Y5652D01*
X4230Y5643D01*
X4235Y5627D01*
X4238Y5613D01*
X4239Y5607D01*
X4240Y5602D01*
X4241Y5597D01*
Y5592D01*
X4240Y5581D01*
X4238Y5572D01*
X4237Y5563D01*
X4234Y5554D01*
X4227Y5538D01*
X4219Y5524D01*
X4211Y5514D01*
X4207Y5509D01*
X4204Y5506D01*
X4201Y5503D01*
X4199Y5501D01*
X4198Y5500D01*
X4198Y5499D01*
X4213Y5501D01*
X4228Y5502D01*
X4241Y5504D01*
X4253Y5506D01*
X4264Y5508D01*
X4273Y5510D01*
X4281Y5512D01*
X4289Y5515D01*
X4295Y5518D01*
X4301Y5519D01*
X4305Y5521D01*
X4308Y5523D01*
X4311Y5524D01*
X4312Y5526D01*
X4314Y5526D01*
X4323Y5535D01*
X4329Y5543D01*
X4335Y5552D01*
X4338Y5560D01*
X4340Y5567D01*
X4341Y5572D01*
X4341Y5576D01*
Y5578D01*
X4341Y5586D01*
X4339Y5594D01*
X4337Y5600D01*
X4335Y5606D01*
X4332Y5610D01*
X4330Y5613D01*
X4329Y5615D01*
X4328Y5616D01*
X4322Y5621D01*
X4315Y5625D01*
X4308Y5628D01*
X4301Y5630D01*
X4295Y5632D01*
X4289Y5633D01*
X4286Y5634D01*
X4284D01*
X4295Y5728D01*
X4307Y5726D01*
X4318Y5723D01*
X4328Y5720D01*
X4337Y5717D01*
X4346Y5713D01*
X4354Y5709D01*
X4361Y5705D01*
X4367Y5701D01*
X4372Y5697D01*
X4378Y5694D01*
X4381Y5690D01*
X4385Y5687D01*
X4387Y5685D01*
X4389Y5683D01*
X4390Y5682D01*
X4391Y5681D01*
X4397Y5674D01*
X4401Y5666D01*
X4409Y5650D01*
X4415Y5634D01*
X4419Y5619D01*
X4421Y5605D01*
X4422Y5599D01*
Y5594D01*
X4423Y5590D01*
Y5584D01*
X4422Y5569D01*
X4420Y5555D01*
X4417Y5541D01*
X4413Y5528D01*
X4408Y5516D01*
X4403Y5505D01*
X4398Y5495D01*
X4392Y5486D01*
X4386Y5478D01*
X4380Y5470D01*
X4375Y5464D01*
X4370Y5459D01*
X4366Y5455D01*
X4363Y5452D01*
X4361Y5450D01*
X4361Y5449D01*
X4348Y5440D01*
X4334Y5432D01*
X4318Y5425D01*
X4303Y5419D01*
X4286Y5414D01*
X4269Y5410D01*
X4252Y5407D01*
X4235Y5404D01*
X4220Y5401D01*
X4206Y5400D01*
X4193Y5398D01*
X4181Y5398D01*
X4171Y5397D01*
X4164D01*
X4161D01*
X4159D01*
X4158D01*
X4158D01*
X4133Y5398D01*
X4110Y5399D01*
X4088Y5401D01*
X4068Y5405D01*
X4050Y5409D01*
X4034Y5412D01*
X4019Y5418D01*
X4006Y5422D01*
X3995Y5427D01*
X3985Y5431D01*
X3977Y5435D01*
X3971Y5439D01*
X3965Y5443D01*
X3962Y5445D01*
X3959Y5447D01*
X3959Y5447D01*
X3948Y5457D01*
X3939Y5467D01*
X3931Y5478D01*
X3924Y5488D01*
X3918Y5499D01*
X3913Y5509D01*
X3909Y5520D01*
X3905Y5530D01*
X3903Y5539D01*
X3901Y5548D01*
X3899Y5555D01*
X3899Y5562D01*
Y5568D01*
X3898Y5572D01*
Y5575D01*
X3899Y5589D01*
X3900Y5600D01*
X3902Y5612D01*
X3905Y5623D01*
X3909Y5634D01*
X3914Y5643D01*
X3917Y5653D01*
X3922Y5660D01*
X3927Y5668D01*
X3931Y5674D01*
X3935Y5680D01*
X3939Y5685D01*
X3942Y5689D01*
X3944Y5691D01*
X3945Y5692D01*
X3946Y5693D01*
X3956Y5701D01*
X3965Y5708D01*
X3976Y5714D01*
X3986Y5720D01*
X3996Y5724D01*
X4008Y5728D01*
X4028Y5733D01*
X4036Y5735D01*
X4045Y5737D01*
X4053Y5737D01*
X4059Y5738D01*
X4065Y5739D01*
X4069D01*
X4072D01*
X4073D01*
X4086Y5738D01*
D02*
G37*
G36*
X4413Y5214D02*
X4315D01*
Y5313D01*
X4413D01*
Y5214D01*
D02*
G37*
G36*
X4187Y5134D02*
X4211Y5132D01*
X4234Y5130D01*
X4255Y5127D01*
X4273Y5124D01*
X4290Y5120D01*
X4305Y5116D01*
X4318Y5111D01*
X4329Y5108D01*
X4340Y5103D01*
X4348Y5099D01*
X4355Y5096D01*
X4359Y5094D01*
X4363Y5091D01*
X4365Y5090D01*
X4366Y5089D01*
X4376Y5080D01*
X4384Y5071D01*
X4392Y5061D01*
X4398Y5051D01*
X4404Y5041D01*
X4409Y5031D01*
X4412Y5021D01*
X4415Y5011D01*
X4418Y5003D01*
X4420Y4994D01*
X4421Y4987D01*
X4422Y4981D01*
Y4976D01*
X4423Y4971D01*
Y4968D01*
X4422Y4955D01*
X4420Y4943D01*
X4417Y4930D01*
X4415Y4919D01*
X4411Y4909D01*
X4406Y4899D01*
X4401Y4891D01*
X4396Y4883D01*
X4392Y4876D01*
X4386Y4869D01*
X4382Y4864D01*
X4378Y4860D01*
X4375Y4857D01*
X4372Y4855D01*
X4371Y4853D01*
X4370Y4852D01*
X4358Y4843D01*
X4343Y4836D01*
X4327Y4829D01*
X4310Y4823D01*
X4293Y4818D01*
X4276Y4815D01*
X4258Y4811D01*
X4241Y4808D01*
X4225Y4806D01*
X4210Y4805D01*
X4196Y4803D01*
X4184Y4803D01*
X4175Y4802D01*
X4167D01*
X4164D01*
X4162D01*
X4161D01*
X4161D01*
X4134Y4803D01*
X4110Y4804D01*
X4087Y4806D01*
X4067Y4810D01*
X4047Y4814D01*
X4030Y4818D01*
X4015Y4823D01*
X4002Y4827D01*
X3989Y4832D01*
X3979Y4836D01*
X3971Y4840D01*
X3963Y4844D01*
X3958Y4848D01*
X3954Y4850D01*
X3952Y4852D01*
X3951Y4852D01*
X3942Y4860D01*
X3934Y4869D01*
X3927Y4879D01*
X3920Y4889D01*
X3915Y4898D01*
X3911Y4908D01*
X3908Y4917D01*
X3905Y4926D01*
X3902Y4935D01*
X3901Y4943D01*
X3899Y4950D01*
X3899Y4956D01*
X3898Y4961D01*
Y4968D01*
X3899Y4982D01*
X3900Y4994D01*
X3903Y5007D01*
X3906Y5018D01*
X3911Y5028D01*
X3915Y5038D01*
X3919Y5046D01*
X3925Y5054D01*
X3930Y5061D01*
X3934Y5068D01*
X3939Y5073D01*
X3943Y5077D01*
X3946Y5080D01*
X3949Y5082D01*
X3951Y5084D01*
X3951Y5085D01*
X3964Y5094D01*
X3979Y5101D01*
X3994Y5108D01*
X4010Y5114D01*
X4028Y5118D01*
X4045Y5122D01*
X4062Y5125D01*
X4079Y5128D01*
X4096Y5130D01*
X4110Y5131D01*
X4124Y5133D01*
X4136Y5134D01*
X4146Y5134D01*
X4153D01*
X4156D01*
X4158D01*
X4159D01*
X4160D01*
X4187Y5134D01*
D02*
G37*
G36*
X4190Y4735D02*
X4213Y4734D01*
X4234Y4732D01*
X4253Y4728D01*
X4272Y4724D01*
X4288Y4721D01*
X4302Y4716D01*
X4315Y4711D01*
X4326Y4707D01*
X4336Y4702D01*
X4344Y4698D01*
X4351Y4694D01*
X4356Y4691D01*
X4360Y4689D01*
X4362Y4687D01*
X4363Y4687D01*
X4373Y4677D01*
X4383Y4667D01*
X4391Y4656D01*
X4398Y4645D01*
X4403Y4635D01*
X4408Y4624D01*
X4412Y4613D01*
X4415Y4604D01*
X4417Y4594D01*
X4420Y4586D01*
X4420Y4578D01*
X4422Y4571D01*
Y4566D01*
X4423Y4562D01*
Y4559D01*
X4422Y4545D01*
X4420Y4533D01*
X4418Y4521D01*
X4415Y4510D01*
X4412Y4499D01*
X4408Y4489D01*
X4403Y4480D01*
X4399Y4472D01*
X4395Y4465D01*
X4390Y4459D01*
X4386Y4453D01*
X4383Y4448D01*
X4380Y4445D01*
X4378Y4442D01*
X4376Y4441D01*
X4375Y4440D01*
X4366Y4432D01*
X4356Y4425D01*
X4346Y4419D01*
X4335Y4413D01*
X4325Y4408D01*
X4315Y4405D01*
X4294Y4399D01*
X4285Y4397D01*
X4276Y4396D01*
X4269Y4395D01*
X4262Y4394D01*
X4256Y4394D01*
X4252D01*
X4250D01*
X4249D01*
X4235Y4394D01*
X4222Y4396D01*
X4210Y4398D01*
X4198Y4400D01*
X4187Y4404D01*
X4178Y4408D01*
X4168Y4411D01*
X4160Y4416D01*
X4153Y4420D01*
X4146Y4424D01*
X4141Y4428D01*
X4136Y4431D01*
X4132Y4433D01*
X4130Y4436D01*
X4128Y4437D01*
X4127Y4438D01*
X4119Y4446D01*
X4112Y4455D01*
X4105Y4464D01*
X4100Y4473D01*
X4096Y4482D01*
X4092Y4490D01*
X4086Y4507D01*
X4084Y4514D01*
X4082Y4522D01*
X4082Y4527D01*
X4081Y4533D01*
X4080Y4537D01*
Y4543D01*
X4081Y4553D01*
X4082Y4563D01*
X4084Y4572D01*
X4087Y4581D01*
X4094Y4596D01*
X4102Y4610D01*
X4110Y4620D01*
X4113Y4624D01*
X4117Y4628D01*
X4120Y4631D01*
X4121Y4633D01*
X4123Y4634D01*
X4124Y4635D01*
X4108Y4633D01*
X4093Y4632D01*
X4080Y4630D01*
X4068Y4628D01*
X4058Y4626D01*
X4048Y4624D01*
X4040Y4621D01*
X4033Y4618D01*
X4026Y4616D01*
X4021Y4615D01*
X4016Y4613D01*
X4013Y4611D01*
X4010Y4610D01*
X4009Y4608D01*
X4008Y4607D01*
X3998Y4599D01*
X3991Y4590D01*
X3986Y4581D01*
X3983Y4573D01*
X3981Y4566D01*
X3980Y4560D01*
X3979Y4556D01*
Y4555D01*
X3980Y4547D01*
X3982Y4539D01*
X3984Y4532D01*
X3986Y4527D01*
X3989Y4522D01*
X3991Y4519D01*
X3993Y4517D01*
X3993Y4516D01*
X3999Y4511D01*
X4006Y4507D01*
X4013Y4504D01*
X4020Y4502D01*
X4027Y4500D01*
X4032Y4499D01*
X4035Y4498D01*
X4036D01*
X4026Y4403D01*
X4004Y4408D01*
X3985Y4416D01*
X3969Y4424D01*
X3955Y4432D01*
X3945Y4440D01*
X3941Y4443D01*
X3937Y4447D01*
X3935Y4449D01*
X3933Y4451D01*
X3931Y4452D01*
Y4453D01*
X3925Y4460D01*
X3920Y4468D01*
X3912Y4484D01*
X3906Y4500D01*
X3902Y4515D01*
X3899Y4528D01*
X3899Y4534D01*
Y4539D01*
X3898Y4543D01*
Y4549D01*
X3899Y4564D01*
X3901Y4579D01*
X3904Y4593D01*
X3908Y4605D01*
X3913Y4617D01*
X3918Y4629D01*
X3924Y4638D01*
X3929Y4648D01*
X3935Y4656D01*
X3941Y4664D01*
X3946Y4670D01*
X3951Y4675D01*
X3955Y4679D01*
X3958Y4682D01*
X3960Y4684D01*
X3961Y4684D01*
X3973Y4693D01*
X3988Y4701D01*
X4003Y4708D01*
X4019Y4714D01*
X4036Y4719D01*
X4053Y4724D01*
X4070Y4727D01*
X4086Y4729D01*
X4102Y4732D01*
X4116Y4733D01*
X4130Y4735D01*
X4141Y4735D01*
X4151Y4736D01*
X4158D01*
X4161D01*
X4163D01*
X4164D01*
X4164D01*
X4190Y4735D01*
D02*
G37*
G36*
X4413Y4219D02*
X4315D01*
Y4317D01*
X4413D01*
Y4219D01*
D02*
G37*
G36*
X4106Y4086D02*
X4095Y4063D01*
X4089Y4052D01*
X4082Y4041D01*
X4076Y4032D01*
X4070Y4023D01*
X4065Y4015D01*
X4059Y4007D01*
X4055Y4001D01*
X4050Y3996D01*
X4047Y3992D01*
X4045Y3989D01*
X4043Y3987D01*
X4042Y3987D01*
X4413D01*
Y3888D01*
X3898D01*
Y3968D01*
X3915Y3975D01*
X3931Y3985D01*
X3945Y3995D01*
X3957Y4006D01*
X3967Y4015D01*
X3974Y4023D01*
X3977Y4026D01*
X3979Y4028D01*
X3980Y4029D01*
X3981Y4030D01*
X3993Y4046D01*
X4003Y4062D01*
X4011Y4076D01*
X4017Y4089D01*
X4022Y4099D01*
X4025Y4106D01*
X4026Y4109D01*
X4027Y4112D01*
X4028Y4112D01*
Y4113D01*
X4116D01*
X4106Y4086D01*
D02*
G37*
G36*
Y3688D02*
X4095Y3665D01*
X4089Y3654D01*
X4082Y3643D01*
X4076Y3634D01*
X4070Y3625D01*
X4065Y3617D01*
X4059Y3609D01*
X4055Y3603D01*
X4050Y3598D01*
X4047Y3594D01*
X4045Y3591D01*
X4043Y3589D01*
X4042Y3588D01*
X4413D01*
Y3490D01*
X3898D01*
Y3570D01*
X3915Y3577D01*
X3931Y3587D01*
X3945Y3597D01*
X3957Y3608D01*
X3967Y3617D01*
X3974Y3625D01*
X3977Y3628D01*
X3979Y3630D01*
X3980Y3631D01*
X3981Y3632D01*
X3993Y3648D01*
X4003Y3664D01*
X4011Y3678D01*
X4017Y3691D01*
X4022Y3701D01*
X4025Y3708D01*
X4026Y3711D01*
X4027Y3713D01*
X4028Y3714D01*
Y3715D01*
X4116D01*
X4106Y3688D01*
D02*
G37*
G36*
X1641Y7420D02*
X1555D01*
Y7702D01*
X1418D01*
Y7449D01*
X1333D01*
Y7702D01*
X1222D01*
Y7430D01*
X1136D01*
Y7804D01*
X1641D01*
Y7420D01*
D02*
G37*
G36*
Y7239D02*
X1308D01*
X1641Y7035D01*
Y6932D01*
X1136D01*
Y7026D01*
X1476D01*
X1136Y7235D01*
Y7333D01*
X1641D01*
Y7239D01*
D02*
G37*
G36*
X1222Y6711D02*
X1641D01*
Y6609D01*
X1222D01*
Y6460D01*
X1136D01*
Y6860D01*
X1222D01*
Y6711D01*
D02*
G37*
G36*
X1641Y6292D02*
X1420D01*
Y6093D01*
X1641D01*
Y5991D01*
X1136D01*
Y6093D01*
X1335D01*
Y6292D01*
X1136D01*
Y6394D01*
X1641D01*
Y6292D01*
D02*
G37*
G36*
X1436Y5886D02*
X1450D01*
X1462Y5885D01*
X1474Y5884D01*
X1484Y5883D01*
X1493Y5883D01*
X1502Y5881D01*
X1509Y5881D01*
X1516Y5880D01*
X1522Y5879D01*
X1526Y5878D01*
X1530Y5878D01*
X1532D01*
X1534Y5877D01*
X1534D01*
X1545Y5873D01*
X1555Y5870D01*
X1565Y5864D01*
X1573Y5860D01*
X1580Y5856D01*
X1586Y5852D01*
X1589Y5849D01*
X1590Y5848D01*
X1600Y5840D01*
X1609Y5830D01*
X1616Y5820D01*
X1622Y5811D01*
X1628Y5803D01*
X1631Y5795D01*
X1633Y5791D01*
X1634Y5790D01*
Y5789D01*
X1637Y5782D01*
X1639Y5774D01*
X1644Y5756D01*
X1647Y5738D01*
X1648Y5720D01*
X1649Y5712D01*
X1649Y5704D01*
Y5698D01*
X1650Y5691D01*
Y5679D01*
X1649Y5658D01*
X1648Y5639D01*
X1645Y5622D01*
X1642Y5609D01*
X1641Y5603D01*
X1640Y5597D01*
X1638Y5593D01*
X1637Y5589D01*
X1636Y5586D01*
X1636Y5584D01*
X1635Y5583D01*
Y5582D01*
X1629Y5569D01*
X1622Y5558D01*
X1615Y5547D01*
X1609Y5539D01*
X1603Y5532D01*
X1598Y5527D01*
X1595Y5524D01*
X1594Y5523D01*
X1584Y5515D01*
X1573Y5509D01*
X1563Y5504D01*
X1552Y5499D01*
X1544Y5496D01*
X1536Y5494D01*
X1534Y5493D01*
X1532D01*
X1531Y5493D01*
X1531D01*
X1523Y5491D01*
X1514Y5490D01*
X1504Y5488D01*
X1495Y5488D01*
X1473Y5486D01*
X1452Y5485D01*
X1442D01*
X1433D01*
X1424Y5484D01*
X1417D01*
X1411D01*
X1406D01*
X1403D01*
X1402D01*
X1136D01*
Y5586D01*
X1416D01*
X1427D01*
X1437D01*
X1447Y5587D01*
X1456D01*
X1463Y5587D01*
X1470D01*
X1477Y5588D01*
X1482D01*
X1491Y5590D01*
X1498Y5590D01*
X1501Y5591D01*
X1503D01*
X1512Y5593D01*
X1520Y5597D01*
X1528Y5601D01*
X1534Y5606D01*
X1539Y5610D01*
X1543Y5614D01*
X1545Y5617D01*
X1546Y5617D01*
X1552Y5626D01*
X1556Y5637D01*
X1559Y5647D01*
X1561Y5658D01*
X1563Y5668D01*
X1563Y5675D01*
Y5682D01*
X1563Y5698D01*
X1560Y5711D01*
X1558Y5722D01*
X1554Y5733D01*
X1551Y5740D01*
X1548Y5746D01*
X1546Y5749D01*
X1545Y5750D01*
X1538Y5758D01*
X1529Y5765D01*
X1521Y5770D01*
X1513Y5774D01*
X1506Y5777D01*
X1500Y5779D01*
X1496Y5781D01*
X1495D01*
X1491Y5781D01*
X1486Y5782D01*
X1480D01*
X1474Y5783D01*
X1460Y5784D01*
X1445D01*
X1432Y5784D01*
X1426D01*
X1421D01*
X1416D01*
X1413D01*
X1411D01*
X1410D01*
X1136D01*
Y5886D01*
X1406D01*
X1421D01*
X1436Y5886D01*
D02*
G37*
G36*
X1492Y5401D02*
X1507Y5398D01*
X1520Y5394D01*
X1533Y5390D01*
X1544Y5385D01*
X1555Y5380D01*
X1565Y5375D01*
X1574Y5369D01*
X1581Y5364D01*
X1587Y5359D01*
X1593Y5355D01*
X1598Y5351D01*
X1602Y5348D01*
X1604Y5345D01*
X1606Y5343D01*
X1606Y5343D01*
X1614Y5332D01*
X1621Y5321D01*
X1627Y5310D01*
X1632Y5297D01*
X1636Y5286D01*
X1639Y5273D01*
X1644Y5249D01*
X1647Y5238D01*
X1648Y5228D01*
X1649Y5219D01*
X1649Y5211D01*
X1650Y5205D01*
Y5195D01*
X1649Y5172D01*
X1647Y5151D01*
X1644Y5132D01*
X1643Y5124D01*
X1641Y5116D01*
X1639Y5109D01*
X1638Y5103D01*
X1636Y5098D01*
X1635Y5094D01*
X1633Y5090D01*
X1633Y5088D01*
X1632Y5087D01*
Y5086D01*
X1624Y5070D01*
X1615Y5057D01*
X1606Y5044D01*
X1597Y5035D01*
X1589Y5028D01*
X1582Y5022D01*
X1577Y5019D01*
X1577Y5017D01*
X1576D01*
X1561Y5009D01*
X1547Y5003D01*
X1534Y4998D01*
X1520Y4996D01*
X1510Y4994D01*
X1505Y4993D01*
X1501Y4993D01*
X1499D01*
X1496D01*
X1495D01*
X1494D01*
X1477Y4993D01*
X1461Y4996D01*
X1447Y4999D01*
X1436Y5003D01*
X1426Y5006D01*
X1420Y5010D01*
X1415Y5012D01*
X1414Y5013D01*
X1402Y5021D01*
X1392Y5030D01*
X1383Y5040D01*
X1376Y5049D01*
X1370Y5057D01*
X1366Y5063D01*
X1363Y5068D01*
X1362Y5068D01*
Y5069D01*
X1359Y5076D01*
X1355Y5084D01*
X1348Y5101D01*
X1343Y5119D01*
X1337Y5137D01*
X1335Y5145D01*
X1332Y5153D01*
X1330Y5160D01*
X1329Y5166D01*
X1327Y5171D01*
X1326Y5175D01*
X1326Y5178D01*
Y5178D01*
X1322Y5192D01*
X1319Y5203D01*
X1316Y5214D01*
X1313Y5224D01*
X1310Y5232D01*
X1308Y5240D01*
X1305Y5247D01*
X1302Y5253D01*
X1300Y5258D01*
X1298Y5262D01*
X1297Y5265D01*
X1295Y5267D01*
X1293Y5271D01*
X1292Y5272D01*
X1287Y5277D01*
X1282Y5281D01*
X1277Y5283D01*
X1272Y5284D01*
X1268Y5286D01*
X1265Y5286D01*
X1262D01*
X1262D01*
X1254Y5286D01*
X1248Y5284D01*
X1243Y5281D01*
X1238Y5278D01*
X1235Y5275D01*
X1232Y5273D01*
X1231Y5271D01*
X1230Y5270D01*
X1224Y5260D01*
X1219Y5249D01*
X1216Y5238D01*
X1213Y5227D01*
X1212Y5217D01*
X1211Y5209D01*
Y5202D01*
X1212Y5186D01*
X1214Y5173D01*
X1217Y5162D01*
X1220Y5154D01*
X1223Y5146D01*
X1226Y5141D01*
X1228Y5138D01*
X1229Y5138D01*
X1236Y5130D01*
X1245Y5124D01*
X1254Y5119D01*
X1263Y5115D01*
X1271Y5112D01*
X1278Y5111D01*
X1283Y5109D01*
X1283D01*
X1284D01*
X1281Y5007D01*
X1267Y5008D01*
X1256Y5010D01*
X1244Y5013D01*
X1234Y5017D01*
X1224Y5020D01*
X1214Y5025D01*
X1206Y5029D01*
X1198Y5033D01*
X1192Y5039D01*
X1186Y5043D01*
X1181Y5047D01*
X1176Y5051D01*
X1173Y5054D01*
X1171Y5056D01*
X1170Y5057D01*
X1169Y5058D01*
X1162Y5068D01*
X1155Y5078D01*
X1149Y5089D01*
X1144Y5100D01*
X1141Y5112D01*
X1137Y5124D01*
X1132Y5147D01*
X1130Y5158D01*
X1129Y5168D01*
X1128Y5177D01*
X1127Y5185D01*
X1127Y5192D01*
Y5200D01*
X1127Y5221D01*
X1130Y5240D01*
X1133Y5257D01*
X1135Y5272D01*
X1138Y5278D01*
X1139Y5284D01*
X1141Y5289D01*
X1142Y5293D01*
X1144Y5296D01*
X1144Y5298D01*
X1145Y5299D01*
Y5300D01*
X1152Y5315D01*
X1160Y5327D01*
X1169Y5338D01*
X1177Y5347D01*
X1184Y5354D01*
X1190Y5359D01*
X1195Y5362D01*
X1195Y5363D01*
X1196D01*
X1208Y5370D01*
X1222Y5375D01*
X1234Y5379D01*
X1245Y5381D01*
X1254Y5383D01*
X1262Y5384D01*
X1265D01*
X1267D01*
X1267D01*
X1268D01*
X1279Y5383D01*
X1290Y5382D01*
X1300Y5380D01*
X1309Y5377D01*
X1326Y5369D01*
X1342Y5361D01*
X1348Y5357D01*
X1353Y5353D01*
X1359Y5349D01*
X1363Y5345D01*
X1366Y5343D01*
X1368Y5340D01*
X1370Y5339D01*
X1370Y5338D01*
X1375Y5332D01*
X1380Y5324D01*
X1386Y5316D01*
X1390Y5306D01*
X1399Y5288D01*
X1406Y5269D01*
X1409Y5259D01*
X1412Y5251D01*
X1414Y5243D01*
X1416Y5237D01*
X1418Y5232D01*
X1419Y5227D01*
X1420Y5224D01*
Y5224D01*
X1423Y5212D01*
X1426Y5202D01*
X1428Y5192D01*
X1430Y5184D01*
X1432Y5176D01*
X1434Y5170D01*
X1436Y5164D01*
X1437Y5159D01*
X1438Y5154D01*
X1439Y5151D01*
X1441Y5146D01*
X1442Y5143D01*
Y5142D01*
X1446Y5133D01*
X1450Y5125D01*
X1453Y5119D01*
X1457Y5114D01*
X1460Y5110D01*
X1462Y5108D01*
X1464Y5106D01*
X1464Y5106D01*
X1469Y5102D01*
X1474Y5099D01*
X1480Y5098D01*
X1484Y5096D01*
X1488Y5095D01*
X1492Y5095D01*
X1494D01*
X1495D01*
X1505Y5095D01*
X1514Y5098D01*
X1523Y5103D01*
X1530Y5107D01*
X1536Y5112D01*
X1540Y5116D01*
X1543Y5119D01*
X1544Y5120D01*
X1550Y5130D01*
X1555Y5142D01*
X1559Y5154D01*
X1561Y5166D01*
X1563Y5177D01*
X1564Y5186D01*
Y5194D01*
X1563Y5211D01*
X1560Y5225D01*
X1557Y5238D01*
X1552Y5248D01*
X1548Y5257D01*
X1544Y5263D01*
X1542Y5267D01*
X1541Y5268D01*
X1531Y5278D01*
X1520Y5285D01*
X1507Y5291D01*
X1495Y5296D01*
X1484Y5299D01*
X1475Y5302D01*
X1472Y5303D01*
X1469D01*
X1468Y5304D01*
X1467D01*
X1477Y5403D01*
X1492Y5401D01*
D02*
G37*
G36*
X1641Y4807D02*
X1136D01*
Y4909D01*
X1641D01*
Y4807D01*
D02*
G37*
G36*
X1026Y4679D02*
X815D01*
Y4646D01*
X816Y4636D01*
X817Y4627D01*
X818Y4620D01*
X819Y4614D01*
X820Y4611D01*
X821Y4608D01*
Y4608D01*
X824Y4602D01*
X827Y4596D01*
X830Y4591D01*
X833Y4586D01*
X837Y4582D01*
X840Y4579D01*
X841Y4578D01*
X842Y4577D01*
X846Y4574D01*
X849Y4570D01*
X860Y4562D01*
X872Y4554D01*
X885Y4544D01*
X897Y4536D01*
X903Y4533D01*
X907Y4530D01*
X911Y4527D01*
X914Y4525D01*
X916Y4524D01*
X917Y4523D01*
X1026Y4450D01*
Y4328D01*
X927Y4390D01*
X917Y4396D01*
X907Y4403D01*
X898Y4409D01*
X890Y4414D01*
X883Y4420D01*
X876Y4424D01*
X865Y4433D01*
X856Y4439D01*
X850Y4444D01*
X847Y4447D01*
X846Y4448D01*
X837Y4456D01*
X829Y4466D01*
X822Y4474D01*
X816Y4483D01*
X811Y4490D01*
X807Y4496D01*
X804Y4501D01*
X803Y4501D01*
Y4502D01*
X801Y4490D01*
X798Y4479D01*
X795Y4468D01*
X792Y4458D01*
X788Y4449D01*
X785Y4441D01*
X781Y4433D01*
X777Y4427D01*
X773Y4421D01*
X769Y4416D01*
X766Y4412D01*
X763Y4409D01*
X760Y4406D01*
X758Y4404D01*
X758Y4403D01*
X757Y4402D01*
X750Y4396D01*
X742Y4391D01*
X726Y4382D01*
X711Y4377D01*
X696Y4373D01*
X682Y4370D01*
X677Y4369D01*
X672D01*
X669Y4369D01*
X665D01*
X664D01*
X663D01*
X647Y4369D01*
X631Y4372D01*
X618Y4376D01*
X607Y4379D01*
X597Y4384D01*
X590Y4388D01*
X588Y4389D01*
X586Y4390D01*
X585Y4391D01*
X584D01*
X572Y4400D01*
X561Y4409D01*
X553Y4419D01*
X546Y4428D01*
X542Y4437D01*
X538Y4444D01*
X536Y4448D01*
X535Y4449D01*
Y4449D01*
X533Y4457D01*
X531Y4465D01*
X527Y4483D01*
X525Y4503D01*
X523Y4522D01*
Y4531D01*
X522Y4539D01*
Y4547D01*
X521Y4554D01*
Y4781D01*
X1026D01*
Y4679D01*
D02*
G37*
G36*
X1641Y4654D02*
X1526Y4612D01*
Y4409D01*
X1641Y4366D01*
Y4256D01*
X1136Y4458D01*
Y4566D01*
X1641Y4761D01*
Y4654D01*
D02*
G37*
G36*
X1026Y4170D02*
X812D01*
Y3960D01*
X726D01*
Y4170D01*
X607D01*
Y3926D01*
X521D01*
Y4272D01*
X1026D01*
Y4170D01*
D02*
G37*
G36*
X1492Y4226D02*
X1507Y4223D01*
X1520Y4218D01*
X1533Y4215D01*
X1544Y4210D01*
X1555Y4205D01*
X1565Y4199D01*
X1574Y4194D01*
X1581Y4189D01*
X1587Y4184D01*
X1593Y4180D01*
X1598Y4175D01*
X1602Y4172D01*
X1604Y4170D01*
X1606Y4168D01*
X1606Y4167D01*
X1614Y4157D01*
X1621Y4146D01*
X1627Y4135D01*
X1632Y4122D01*
X1636Y4110D01*
X1639Y4098D01*
X1644Y4074D01*
X1647Y4063D01*
X1648Y4053D01*
X1649Y4044D01*
X1649Y4036D01*
X1650Y4030D01*
Y4020D01*
X1649Y3997D01*
X1647Y3976D01*
X1644Y3957D01*
X1643Y3949D01*
X1641Y3941D01*
X1639Y3934D01*
X1638Y3928D01*
X1636Y3923D01*
X1635Y3919D01*
X1633Y3915D01*
X1633Y3913D01*
X1632Y3911D01*
Y3911D01*
X1624Y3895D01*
X1615Y3882D01*
X1606Y3869D01*
X1597Y3860D01*
X1589Y3852D01*
X1582Y3847D01*
X1577Y3844D01*
X1577Y3842D01*
X1576D01*
X1561Y3834D01*
X1547Y3828D01*
X1534Y3823D01*
X1520Y3820D01*
X1510Y3819D01*
X1505Y3818D01*
X1501Y3817D01*
X1499D01*
X1496D01*
X1495D01*
X1494D01*
X1477Y3818D01*
X1461Y3820D01*
X1447Y3824D01*
X1436Y3828D01*
X1426Y3831D01*
X1420Y3835D01*
X1415Y3837D01*
X1414Y3838D01*
X1402Y3846D01*
X1392Y3855D01*
X1383Y3865D01*
X1376Y3874D01*
X1370Y3882D01*
X1366Y3888D01*
X1363Y3893D01*
X1362Y3893D01*
Y3894D01*
X1359Y3901D01*
X1355Y3909D01*
X1348Y3926D01*
X1343Y3944D01*
X1337Y3962D01*
X1335Y3970D01*
X1332Y3978D01*
X1330Y3985D01*
X1329Y3991D01*
X1327Y3996D01*
X1326Y4000D01*
X1326Y4003D01*
Y4003D01*
X1322Y4016D01*
X1319Y4028D01*
X1316Y4039D01*
X1313Y4049D01*
X1310Y4057D01*
X1308Y4065D01*
X1305Y4072D01*
X1302Y4078D01*
X1300Y4083D01*
X1298Y4086D01*
X1297Y4090D01*
X1295Y4092D01*
X1293Y4096D01*
X1292Y4097D01*
X1287Y4102D01*
X1282Y4105D01*
X1277Y4108D01*
X1272Y4109D01*
X1268Y4110D01*
X1265Y4111D01*
X1262D01*
X1262D01*
X1254Y4110D01*
X1248Y4109D01*
X1243Y4106D01*
X1238Y4103D01*
X1235Y4100D01*
X1232Y4097D01*
X1231Y4096D01*
X1230Y4095D01*
X1224Y4085D01*
X1219Y4074D01*
X1216Y4062D01*
X1213Y4051D01*
X1212Y4042D01*
X1211Y4034D01*
Y4027D01*
X1212Y4011D01*
X1214Y3998D01*
X1217Y3987D01*
X1220Y3979D01*
X1223Y3971D01*
X1226Y3966D01*
X1228Y3963D01*
X1229Y3963D01*
X1236Y3955D01*
X1245Y3949D01*
X1254Y3944D01*
X1263Y3940D01*
X1271Y3937D01*
X1278Y3936D01*
X1283Y3934D01*
X1283D01*
X1284D01*
X1281Y3832D01*
X1267Y3833D01*
X1256Y3835D01*
X1244Y3838D01*
X1234Y3841D01*
X1224Y3845D01*
X1214Y3850D01*
X1206Y3854D01*
X1198Y3858D01*
X1192Y3863D01*
X1186Y3868D01*
X1181Y3872D01*
X1176Y3876D01*
X1173Y3879D01*
X1171Y3881D01*
X1170Y3882D01*
X1169Y3883D01*
X1162Y3893D01*
X1155Y3903D01*
X1149Y3914D01*
X1144Y3925D01*
X1141Y3937D01*
X1137Y3949D01*
X1132Y3972D01*
X1130Y3983D01*
X1129Y3992D01*
X1128Y4002D01*
X1127Y4010D01*
X1127Y4016D01*
Y4025D01*
X1127Y4046D01*
X1130Y4065D01*
X1133Y4082D01*
X1135Y4097D01*
X1138Y4103D01*
X1139Y4109D01*
X1141Y4113D01*
X1142Y4118D01*
X1144Y4121D01*
X1144Y4123D01*
X1145Y4124D01*
Y4125D01*
X1152Y4140D01*
X1160Y4152D01*
X1169Y4163D01*
X1177Y4172D01*
X1184Y4179D01*
X1190Y4183D01*
X1195Y4187D01*
X1195Y4188D01*
X1196D01*
X1208Y4195D01*
X1222Y4200D01*
X1234Y4204D01*
X1245Y4206D01*
X1254Y4207D01*
X1262Y4209D01*
X1265D01*
X1267D01*
X1267D01*
X1268D01*
X1279Y4208D01*
X1290Y4207D01*
X1300Y4205D01*
X1309Y4202D01*
X1326Y4194D01*
X1342Y4186D01*
X1348Y4182D01*
X1353Y4178D01*
X1359Y4174D01*
X1363Y4170D01*
X1366Y4167D01*
X1368Y4165D01*
X1370Y4164D01*
X1370Y4163D01*
X1375Y4156D01*
X1380Y4148D01*
X1386Y4140D01*
X1390Y4131D01*
X1399Y4113D01*
X1406Y4094D01*
X1409Y4084D01*
X1412Y4076D01*
X1414Y4068D01*
X1416Y4062D01*
X1418Y4057D01*
X1419Y4052D01*
X1420Y4049D01*
Y4049D01*
X1423Y4037D01*
X1426Y4027D01*
X1428Y4017D01*
X1430Y4008D01*
X1432Y4001D01*
X1434Y3995D01*
X1436Y3989D01*
X1437Y3984D01*
X1438Y3979D01*
X1439Y3976D01*
X1441Y3971D01*
X1442Y3968D01*
Y3967D01*
X1446Y3957D01*
X1450Y3950D01*
X1453Y3944D01*
X1457Y3938D01*
X1460Y3935D01*
X1462Y3933D01*
X1464Y3931D01*
X1464Y3930D01*
X1469Y3927D01*
X1474Y3924D01*
X1480Y3922D01*
X1484Y3921D01*
X1488Y3920D01*
X1492Y3920D01*
X1494D01*
X1495D01*
X1505Y3920D01*
X1514Y3923D01*
X1523Y3928D01*
X1530Y3932D01*
X1536Y3937D01*
X1540Y3941D01*
X1543Y3944D01*
X1544Y3945D01*
X1550Y3955D01*
X1555Y3967D01*
X1559Y3979D01*
X1561Y3991D01*
X1563Y4002D01*
X1564Y4011D01*
Y4019D01*
X1563Y4035D01*
X1560Y4050D01*
X1557Y4062D01*
X1552Y4073D01*
X1548Y4082D01*
X1544Y4088D01*
X1542Y4092D01*
X1541Y4093D01*
X1531Y4102D01*
X1520Y4110D01*
X1507Y4116D01*
X1495Y4121D01*
X1484Y4124D01*
X1475Y4127D01*
X1472Y4128D01*
X1469D01*
X1468Y4129D01*
X1467D01*
X1477Y4228D01*
X1492Y4226D01*
D02*
G37*
G36*
X1222Y3617D02*
X1641D01*
Y3515D01*
X1222D01*
Y3366D01*
X1136D01*
Y3766D01*
X1222D01*
Y3617D01*
D02*
G37*
G36*
X1492Y3325D02*
X1507Y3322D01*
X1520Y3317D01*
X1533Y3314D01*
X1544Y3309D01*
X1555Y3303D01*
X1565Y3298D01*
X1574Y3293D01*
X1581Y3288D01*
X1587Y3283D01*
X1593Y3279D01*
X1598Y3274D01*
X1602Y3271D01*
X1604Y3268D01*
X1606Y3267D01*
X1606Y3266D01*
X1614Y3256D01*
X1621Y3245D01*
X1627Y3234D01*
X1632Y3221D01*
X1636Y3209D01*
X1639Y3197D01*
X1644Y3173D01*
X1647Y3162D01*
X1648Y3152D01*
X1649Y3143D01*
X1649Y3135D01*
X1650Y3129D01*
Y3119D01*
X1649Y3096D01*
X1647Y3075D01*
X1644Y3056D01*
X1643Y3048D01*
X1641Y3040D01*
X1639Y3033D01*
X1638Y3027D01*
X1636Y3022D01*
X1635Y3018D01*
X1633Y3014D01*
X1633Y3012D01*
X1632Y3010D01*
Y3010D01*
X1624Y2994D01*
X1615Y2981D01*
X1606Y2968D01*
X1597Y2959D01*
X1589Y2951D01*
X1582Y2946D01*
X1577Y2943D01*
X1577Y2941D01*
X1576D01*
X1561Y2933D01*
X1547Y2927D01*
X1534Y2922D01*
X1520Y2919D01*
X1510Y2918D01*
X1505Y2917D01*
X1501Y2916D01*
X1499D01*
X1496D01*
X1495D01*
X1494D01*
X1477Y2917D01*
X1461Y2919D01*
X1447Y2923D01*
X1436Y2927D01*
X1426Y2930D01*
X1420Y2934D01*
X1415Y2936D01*
X1414Y2937D01*
X1402Y2945D01*
X1392Y2954D01*
X1383Y2964D01*
X1376Y2973D01*
X1370Y2981D01*
X1366Y2987D01*
X1363Y2991D01*
X1362Y2992D01*
Y2993D01*
X1359Y3000D01*
X1355Y3008D01*
X1348Y3025D01*
X1343Y3043D01*
X1337Y3061D01*
X1335Y3069D01*
X1332Y3077D01*
X1330Y3084D01*
X1329Y3090D01*
X1327Y3095D01*
X1326Y3099D01*
X1326Y3102D01*
Y3102D01*
X1322Y3115D01*
X1319Y3127D01*
X1316Y3138D01*
X1313Y3148D01*
X1310Y3156D01*
X1308Y3164D01*
X1305Y3171D01*
X1302Y3177D01*
X1300Y3182D01*
X1298Y3185D01*
X1297Y3189D01*
X1295Y3191D01*
X1293Y3195D01*
X1292Y3196D01*
X1287Y3201D01*
X1282Y3204D01*
X1277Y3207D01*
X1272Y3208D01*
X1268Y3209D01*
X1265Y3210D01*
X1262D01*
X1262D01*
X1254Y3209D01*
X1248Y3208D01*
X1243Y3205D01*
X1238Y3202D01*
X1235Y3199D01*
X1232Y3196D01*
X1231Y3195D01*
X1230Y3194D01*
X1224Y3184D01*
X1219Y3173D01*
X1216Y3161D01*
X1213Y3150D01*
X1212Y3141D01*
X1211Y3133D01*
Y3126D01*
X1212Y3110D01*
X1214Y3097D01*
X1217Y3086D01*
X1220Y3077D01*
X1223Y3070D01*
X1226Y3065D01*
X1228Y3062D01*
X1229Y3061D01*
X1236Y3054D01*
X1245Y3048D01*
X1254Y3043D01*
X1263Y3039D01*
X1271Y3036D01*
X1278Y3034D01*
X1283Y3033D01*
X1283D01*
X1284D01*
X1281Y2931D01*
X1267Y2932D01*
X1256Y2934D01*
X1244Y2937D01*
X1234Y2940D01*
X1224Y2944D01*
X1214Y2948D01*
X1206Y2953D01*
X1198Y2957D01*
X1192Y2962D01*
X1186Y2967D01*
X1181Y2971D01*
X1176Y2975D01*
X1173Y2978D01*
X1171Y2980D01*
X1170Y2981D01*
X1169Y2982D01*
X1162Y2991D01*
X1155Y3002D01*
X1149Y3013D01*
X1144Y3024D01*
X1141Y3036D01*
X1137Y3048D01*
X1132Y3071D01*
X1130Y3082D01*
X1129Y3091D01*
X1128Y3101D01*
X1127Y3109D01*
X1127Y3115D01*
Y3124D01*
X1127Y3145D01*
X1130Y3164D01*
X1133Y3181D01*
X1135Y3196D01*
X1138Y3202D01*
X1139Y3208D01*
X1141Y3212D01*
X1142Y3217D01*
X1144Y3220D01*
X1144Y3222D01*
X1145Y3223D01*
Y3224D01*
X1152Y3239D01*
X1160Y3251D01*
X1169Y3262D01*
X1177Y3271D01*
X1184Y3278D01*
X1190Y3282D01*
X1195Y3286D01*
X1195Y3287D01*
X1196D01*
X1208Y3294D01*
X1222Y3299D01*
X1234Y3303D01*
X1245Y3305D01*
X1254Y3306D01*
X1262Y3308D01*
X1265D01*
X1267D01*
X1267D01*
X1268D01*
X1279Y3307D01*
X1290Y3306D01*
X1300Y3303D01*
X1309Y3301D01*
X1326Y3293D01*
X1342Y3285D01*
X1348Y3281D01*
X1353Y3277D01*
X1359Y3273D01*
X1363Y3269D01*
X1366Y3266D01*
X1368Y3264D01*
X1370Y3263D01*
X1370Y3262D01*
X1375Y3255D01*
X1380Y3247D01*
X1386Y3239D01*
X1390Y3230D01*
X1399Y3212D01*
X1406Y3193D01*
X1409Y3183D01*
X1412Y3175D01*
X1414Y3167D01*
X1416Y3161D01*
X1418Y3155D01*
X1419Y3151D01*
X1420Y3148D01*
Y3147D01*
X1423Y3136D01*
X1426Y3126D01*
X1428Y3116D01*
X1430Y3107D01*
X1432Y3100D01*
X1434Y3094D01*
X1436Y3088D01*
X1437Y3083D01*
X1438Y3078D01*
X1439Y3075D01*
X1441Y3069D01*
X1442Y3067D01*
Y3066D01*
X1446Y3056D01*
X1450Y3049D01*
X1453Y3043D01*
X1457Y3037D01*
X1460Y3034D01*
X1462Y3032D01*
X1464Y3030D01*
X1464Y3029D01*
X1469Y3026D01*
X1474Y3023D01*
X1480Y3021D01*
X1484Y3020D01*
X1488Y3019D01*
X1492Y3018D01*
X1494D01*
X1495D01*
X1505Y3019D01*
X1514Y3022D01*
X1523Y3026D01*
X1530Y3031D01*
X1536Y3036D01*
X1540Y3040D01*
X1543Y3043D01*
X1544Y3044D01*
X1550Y3054D01*
X1555Y3066D01*
X1559Y3078D01*
X1561Y3090D01*
X1563Y3101D01*
X1564Y3110D01*
Y3118D01*
X1563Y3134D01*
X1560Y3149D01*
X1557Y3161D01*
X1552Y3172D01*
X1548Y3181D01*
X1544Y3187D01*
X1542Y3191D01*
X1541Y3192D01*
X1531Y3201D01*
X1520Y3209D01*
X1507Y3215D01*
X1495Y3220D01*
X1484Y3223D01*
X1475Y3226D01*
X1472Y3227D01*
X1469D01*
X1468Y3228D01*
X1467D01*
X1477Y3327D01*
X1492Y3325D01*
D02*
G37*
%LPC*%
G36*
X4852Y7708D02*
X4722D01*
Y7590D01*
X4722Y7583D01*
Y7567D01*
X4723Y7560D01*
Y7556D01*
X4724Y7554D01*
Y7553D01*
X4726Y7544D01*
X4729Y7536D01*
X4732Y7529D01*
X4736Y7524D01*
X4739Y7520D01*
X4742Y7516D01*
X4744Y7515D01*
X4745Y7514D01*
X4750Y7509D01*
X4758Y7506D01*
X4765Y7504D01*
X4771Y7501D01*
X4777Y7501D01*
X4782Y7500D01*
X4785D01*
X4786D01*
X4794Y7501D01*
X4802Y7501D01*
X4808Y7504D01*
X4814Y7505D01*
X4819Y7507D01*
X4821Y7509D01*
X4824Y7510D01*
X4824Y7511D01*
X4830Y7515D01*
X4834Y7520D01*
X4841Y7529D01*
X4843Y7533D01*
X4844Y7537D01*
X4846Y7539D01*
Y7540D01*
X4847Y7543D01*
X4848Y7549D01*
X4849Y7555D01*
X4850Y7562D01*
X4850Y7578D01*
X4851Y7593D01*
X4852Y7608D01*
Y7708D01*
D02*
G37*
G36*
X4917Y5147D02*
X4910D01*
X4904D01*
X4898D01*
X4895D01*
X4895D01*
X4878D01*
X4863Y5146D01*
X4850D01*
X4836Y5145D01*
X4825Y5144D01*
X4814Y5144D01*
X4805Y5143D01*
X4796Y5141D01*
X4789Y5141D01*
X4783Y5140D01*
X4778Y5139D01*
X4773Y5138D01*
X4770Y5138D01*
X4767D01*
X4767Y5137D01*
X4766D01*
X4756Y5134D01*
X4747Y5130D01*
X4740Y5127D01*
X4734Y5124D01*
X4730Y5121D01*
X4728Y5118D01*
X4726Y5117D01*
X4725Y5116D01*
X4722Y5111D01*
X4719Y5105D01*
X4716Y5100D01*
X4715Y5095D01*
X4714Y5091D01*
X4713Y5087D01*
Y5084D01*
X4714Y5078D01*
X4715Y5072D01*
X4717Y5067D01*
X4719Y5062D01*
X4722Y5059D01*
X4723Y5056D01*
X4725Y5054D01*
X4725Y5053D01*
X4730Y5049D01*
X4737Y5044D01*
X4745Y5041D01*
X4752Y5037D01*
X4759Y5035D01*
X4765Y5033D01*
X4769Y5032D01*
X4770Y5031D01*
X4770D01*
X4777Y5030D01*
X4785Y5028D01*
X4795Y5027D01*
X4804Y5025D01*
X4824Y5024D01*
X4845Y5023D01*
X4855Y5022D01*
X4864D01*
X4873Y5022D01*
X4880D01*
X4886D01*
X4891D01*
X4894D01*
X4895D01*
X4911D01*
X4927Y5022D01*
X4941D01*
X4953Y5023D01*
X4965Y5024D01*
X4975Y5025D01*
X4985Y5026D01*
X4993Y5027D01*
X5001Y5027D01*
X5006Y5029D01*
X5012Y5030D01*
X5016Y5030D01*
X5019Y5031D01*
X5022D01*
X5023Y5032D01*
X5024D01*
X5034Y5035D01*
X5042Y5039D01*
X5049Y5042D01*
X5055Y5045D01*
X5059Y5048D01*
X5062Y5051D01*
X5063Y5053D01*
X5064Y5053D01*
X5068Y5059D01*
X5071Y5064D01*
X5072Y5069D01*
X5074Y5074D01*
X5075Y5078D01*
X5075Y5081D01*
Y5084D01*
X5075Y5091D01*
X5074Y5097D01*
X5072Y5102D01*
X5069Y5107D01*
X5068Y5110D01*
X5066Y5113D01*
X5065Y5115D01*
X5064Y5116D01*
X5059Y5120D01*
X5052Y5124D01*
X5045Y5128D01*
X5038Y5132D01*
X5031Y5134D01*
X5025Y5136D01*
X5021Y5137D01*
X5020Y5138D01*
X5012Y5139D01*
X5004Y5141D01*
X4995Y5142D01*
X4986Y5143D01*
X4965Y5144D01*
X4944Y5145D01*
X4935Y5146D01*
X4925D01*
X4917Y5147D01*
D02*
G37*
G36*
Y2322D02*
X4910D01*
X4904D01*
X4898D01*
X4895D01*
X4895D01*
X4878D01*
X4863Y2321D01*
X4850D01*
X4836Y2321D01*
X4825Y2320D01*
X4814Y2319D01*
X4805Y2318D01*
X4796Y2317D01*
X4789Y2316D01*
X4783Y2315D01*
X4778Y2315D01*
X4773Y2314D01*
X4770Y2313D01*
X4767D01*
X4767Y2312D01*
X4766D01*
X4756Y2309D01*
X4747Y2306D01*
X4740Y2303D01*
X4734Y2299D01*
X4730Y2296D01*
X4728Y2294D01*
X4726Y2292D01*
X4725Y2292D01*
X4722Y2287D01*
X4719Y2281D01*
X4716Y2275D01*
X4715Y2270D01*
X4714Y2267D01*
X4713Y2263D01*
Y2260D01*
X4714Y2253D01*
X4715Y2247D01*
X4717Y2242D01*
X4719Y2238D01*
X4722Y2234D01*
X4723Y2231D01*
X4725Y2230D01*
X4725Y2229D01*
X4730Y2224D01*
X4737Y2220D01*
X4745Y2216D01*
X4752Y2213D01*
X4759Y2210D01*
X4765Y2208D01*
X4769Y2207D01*
X4770Y2207D01*
X4770D01*
X4777Y2205D01*
X4785Y2204D01*
X4795Y2202D01*
X4804Y2201D01*
X4824Y2199D01*
X4845Y2198D01*
X4855Y2198D01*
X4864D01*
X4873Y2197D01*
X4880D01*
X4886D01*
X4891D01*
X4894D01*
X4895D01*
X4911D01*
X4927Y2198D01*
X4941D01*
X4953Y2198D01*
X4965Y2199D01*
X4975Y2200D01*
X4985Y2201D01*
X4993Y2202D01*
X5001Y2203D01*
X5006Y2204D01*
X5012Y2205D01*
X5016Y2206D01*
X5019Y2207D01*
X5022D01*
X5023Y2207D01*
X5024D01*
X5034Y2210D01*
X5042Y2214D01*
X5049Y2218D01*
X5055Y2221D01*
X5059Y2224D01*
X5062Y2227D01*
X5063Y2228D01*
X5064Y2229D01*
X5068Y2234D01*
X5071Y2239D01*
X5072Y2244D01*
X5074Y2250D01*
X5075Y2253D01*
X5075Y2257D01*
Y2260D01*
X5075Y2267D01*
X5074Y2272D01*
X5072Y2278D01*
X5069Y2282D01*
X5068Y2286D01*
X5066Y2289D01*
X5065Y2290D01*
X5064Y2291D01*
X5059Y2295D01*
X5052Y2300D01*
X5045Y2304D01*
X5038Y2307D01*
X5031Y2309D01*
X5025Y2312D01*
X5021Y2312D01*
X5020Y2313D01*
X5012Y2315D01*
X5004Y2316D01*
X4995Y2318D01*
X4986Y2318D01*
X4965Y2320D01*
X4944Y2321D01*
X4935Y2321D01*
X4925D01*
X4917Y2322D01*
D02*
G37*
G36*
X4183Y6424D02*
X4176D01*
X4170D01*
X4164D01*
X4161D01*
X4161D01*
X4144D01*
X4129Y6423D01*
X4116D01*
X4102Y6423D01*
X4091Y6422D01*
X4080Y6421D01*
X4071Y6420D01*
X4062Y6419D01*
X4055Y6418D01*
X4049Y6417D01*
X4044Y6417D01*
X4039Y6416D01*
X4036Y6415D01*
X4033D01*
X4033Y6414D01*
X4032D01*
X4022Y6411D01*
X4013Y6408D01*
X4006Y6405D01*
X4000Y6401D01*
X3996Y6398D01*
X3993Y6396D01*
X3992Y6394D01*
X3991Y6394D01*
X3988Y6389D01*
X3985Y6383D01*
X3982Y6377D01*
X3981Y6372D01*
X3980Y6369D01*
X3979Y6365D01*
Y6362D01*
X3980Y6355D01*
X3981Y6349D01*
X3983Y6344D01*
X3985Y6340D01*
X3988Y6336D01*
X3989Y6333D01*
X3991Y6332D01*
X3991Y6331D01*
X3996Y6326D01*
X4003Y6322D01*
X4010Y6318D01*
X4018Y6315D01*
X4025Y6312D01*
X4031Y6310D01*
X4035Y6309D01*
X4036Y6309D01*
X4036D01*
X4043Y6307D01*
X4051Y6306D01*
X4061Y6304D01*
X4070Y6303D01*
X4090Y6301D01*
X4111Y6300D01*
X4121Y6300D01*
X4130D01*
X4139Y6299D01*
X4146D01*
X4152D01*
X4157D01*
X4160D01*
X4161D01*
X4177D01*
X4193Y6300D01*
X4207D01*
X4219Y6300D01*
X4231Y6301D01*
X4241Y6302D01*
X4251Y6303D01*
X4259Y6304D01*
X4267Y6305D01*
X4272Y6306D01*
X4278Y6307D01*
X4282Y6308D01*
X4285Y6309D01*
X4288D01*
X4289Y6309D01*
X4289D01*
X4300Y6312D01*
X4308Y6316D01*
X4315Y6320D01*
X4321Y6323D01*
X4325Y6326D01*
X4328Y6329D01*
X4329Y6330D01*
X4330Y6331D01*
X4334Y6336D01*
X4337Y6341D01*
X4338Y6346D01*
X4340Y6352D01*
X4341Y6355D01*
X4341Y6359D01*
Y6362D01*
X4341Y6369D01*
X4340Y6374D01*
X4338Y6380D01*
X4335Y6384D01*
X4334Y6388D01*
X4332Y6391D01*
X4331Y6392D01*
X4330Y6393D01*
X4325Y6397D01*
X4318Y6402D01*
X4311Y6406D01*
X4304Y6409D01*
X4297Y6411D01*
X4291Y6414D01*
X4287Y6414D01*
X4286Y6415D01*
X4278Y6417D01*
X4270Y6418D01*
X4261Y6420D01*
X4252Y6420D01*
X4231Y6422D01*
X4210Y6423D01*
X4201Y6423D01*
X4191D01*
X4183Y6424D01*
D02*
G37*
G36*
X4081Y5643D02*
X4077D01*
X4075D01*
X4073D01*
X4073D01*
X4056Y5642D01*
X4041Y5640D01*
X4028Y5637D01*
X4019Y5634D01*
X4011Y5631D01*
X4006Y5628D01*
X4002Y5626D01*
X4002Y5625D01*
X3994Y5617D01*
X3989Y5610D01*
X3985Y5603D01*
X3982Y5595D01*
X3981Y5589D01*
X3979Y5584D01*
Y5580D01*
X3981Y5569D01*
X3984Y5560D01*
X3988Y5551D01*
X3993Y5543D01*
X3998Y5538D01*
X4002Y5533D01*
X4005Y5530D01*
X4006Y5529D01*
X4017Y5522D01*
X4029Y5517D01*
X4042Y5512D01*
X4053Y5510D01*
X4065Y5509D01*
X4073Y5507D01*
X4076D01*
X4079D01*
X4080D01*
X4081D01*
X4096Y5508D01*
X4110Y5510D01*
X4121Y5514D01*
X4130Y5517D01*
X4137Y5521D01*
X4142Y5524D01*
X4146Y5526D01*
X4147Y5527D01*
X4154Y5535D01*
X4159Y5543D01*
X4164Y5551D01*
X4166Y5558D01*
X4167Y5565D01*
X4168Y5570D01*
X4169Y5573D01*
Y5575D01*
X4168Y5585D01*
X4165Y5595D01*
X4161Y5603D01*
X4157Y5610D01*
X4153Y5616D01*
X4150Y5620D01*
X4147Y5623D01*
X4146Y5623D01*
X4136Y5630D01*
X4124Y5634D01*
X4113Y5638D01*
X4100Y5640D01*
X4090Y5642D01*
X4081Y5643D01*
D02*
G37*
G36*
X4183Y5031D02*
X4176D01*
X4170D01*
X4164D01*
X4161D01*
X4161D01*
X4144D01*
X4129Y5030D01*
X4116D01*
X4102Y5029D01*
X4091Y5028D01*
X4080Y5028D01*
X4071Y5027D01*
X4062Y5025D01*
X4055Y5025D01*
X4049Y5024D01*
X4044Y5023D01*
X4039Y5023D01*
X4036Y5022D01*
X4033D01*
X4033Y5021D01*
X4032D01*
X4022Y5018D01*
X4013Y5014D01*
X4006Y5011D01*
X4000Y5008D01*
X3996Y5005D01*
X3993Y5003D01*
X3992Y5001D01*
X3991Y5000D01*
X3988Y4995D01*
X3985Y4989D01*
X3982Y4984D01*
X3981Y4979D01*
X3980Y4975D01*
X3979Y4971D01*
Y4968D01*
X3980Y4962D01*
X3981Y4956D01*
X3983Y4951D01*
X3985Y4946D01*
X3988Y4943D01*
X3989Y4940D01*
X3991Y4938D01*
X3991Y4937D01*
X3996Y4933D01*
X4003Y4929D01*
X4010Y4925D01*
X4018Y4921D01*
X4025Y4919D01*
X4031Y4917D01*
X4035Y4916D01*
X4036Y4915D01*
X4036D01*
X4043Y4914D01*
X4051Y4912D01*
X4061Y4911D01*
X4070Y4909D01*
X4090Y4908D01*
X4111Y4907D01*
X4121Y4906D01*
X4130D01*
X4139Y4906D01*
X4146D01*
X4152D01*
X4157D01*
X4160D01*
X4161D01*
X4177D01*
X4193Y4906D01*
X4207D01*
X4219Y4907D01*
X4231Y4908D01*
X4241Y4909D01*
X4251Y4910D01*
X4259Y4911D01*
X4267Y4912D01*
X4272Y4913D01*
X4278Y4914D01*
X4282Y4914D01*
X4285Y4915D01*
X4288D01*
X4289Y4916D01*
X4289D01*
X4300Y4919D01*
X4308Y4923D01*
X4315Y4926D01*
X4321Y4929D01*
X4325Y4932D01*
X4328Y4935D01*
X4329Y4937D01*
X4330Y4937D01*
X4334Y4943D01*
X4337Y4948D01*
X4338Y4953D01*
X4340Y4958D01*
X4341Y4962D01*
X4341Y4966D01*
Y4968D01*
X4341Y4975D01*
X4340Y4981D01*
X4338Y4986D01*
X4335Y4991D01*
X4334Y4994D01*
X4332Y4997D01*
X4331Y4999D01*
X4330Y5000D01*
X4325Y5004D01*
X4318Y5008D01*
X4311Y5012D01*
X4304Y5016D01*
X4297Y5018D01*
X4291Y5020D01*
X4287Y5021D01*
X4286Y5022D01*
X4278Y5023D01*
X4270Y5025D01*
X4261Y5026D01*
X4252Y5027D01*
X4231Y5028D01*
X4210Y5029D01*
X4201Y5030D01*
X4191D01*
X4183Y5031D01*
D02*
G37*
G36*
X4250Y4626D02*
X4246D01*
X4244D01*
X4242D01*
X4241D01*
X4226Y4625D01*
X4213Y4623D01*
X4201Y4620D01*
X4192Y4616D01*
X4185Y4613D01*
X4180Y4610D01*
X4176Y4607D01*
X4176Y4607D01*
X4168Y4599D01*
X4162Y4591D01*
X4158Y4583D01*
X4156Y4576D01*
X4154Y4569D01*
X4153Y4563D01*
Y4559D01*
X4153Y4548D01*
X4156Y4539D01*
X4160Y4530D01*
X4164Y4523D01*
X4169Y4517D01*
X4173Y4513D01*
X4176Y4510D01*
X4176Y4510D01*
X4186Y4503D01*
X4198Y4498D01*
X4210Y4495D01*
X4222Y4492D01*
X4233Y4490D01*
X4242Y4490D01*
X4245D01*
X4248D01*
X4250D01*
X4250D01*
X4267Y4490D01*
X4282Y4493D01*
X4294Y4496D01*
X4304Y4499D01*
X4311Y4502D01*
X4316Y4505D01*
X4320Y4507D01*
X4321Y4508D01*
X4327Y4516D01*
X4332Y4523D01*
X4336Y4531D01*
X4338Y4538D01*
X4340Y4544D01*
X4341Y4550D01*
Y4554D01*
X4340Y4564D01*
X4337Y4574D01*
X4333Y4582D01*
X4328Y4590D01*
X4324Y4596D01*
X4319Y4601D01*
X4316Y4604D01*
X4315Y4604D01*
X4305Y4612D01*
X4293Y4617D01*
X4281Y4621D01*
X4269Y4623D01*
X4258Y4624D01*
X4250Y4626D01*
D02*
G37*
G36*
X735Y4679D02*
X607D01*
Y4562D01*
X607Y4556D01*
Y4540D01*
X608Y4533D01*
Y4529D01*
X609Y4527D01*
Y4526D01*
X611Y4517D01*
X614Y4509D01*
X617Y4503D01*
X621Y4498D01*
X624Y4493D01*
X626Y4490D01*
X629Y4488D01*
X629Y4487D01*
X635Y4483D01*
X642Y4479D01*
X649Y4477D01*
X656Y4475D01*
X661Y4474D01*
X666Y4474D01*
X669D01*
X670D01*
X678Y4474D01*
X685Y4475D01*
X692Y4477D01*
X698Y4479D01*
X702Y4481D01*
X705Y4483D01*
X707Y4484D01*
X708Y4484D01*
X713Y4489D01*
X717Y4493D01*
X724Y4503D01*
X726Y4506D01*
X728Y4510D01*
X729Y4512D01*
Y4513D01*
X730Y4517D01*
X731Y4522D01*
X732Y4528D01*
X733Y4535D01*
X734Y4550D01*
X734Y4565D01*
X735Y4580D01*
Y4679D01*
D02*
G37*
G36*
X1441Y4581D02*
X1254Y4513D01*
X1441Y4442D01*
Y4581D01*
D02*
G37*
%LPD*%
D51*
X158Y6590D02*
Y6690D01*
X178Y6530D02*
Y6730D01*
X198Y6490D02*
Y6770D01*
X218Y6470D02*
Y6790D01*
X238Y6450D02*
Y6810D01*
X258Y6430D02*
Y6830D01*
X278Y6430D02*
Y6830D01*
X298Y6430D02*
Y6850D01*
X318Y6430D02*
Y6850D01*
X338Y6410D02*
Y6870D01*
X358Y6410D02*
Y6870D01*
X378Y6430D02*
Y6870D01*
X398Y6430D02*
Y6890D01*
X418Y7330D02*
Y7390D01*
Y6430D02*
Y6890D01*
X438Y7290D02*
Y7450D01*
Y6430D02*
Y6890D01*
Y5650D02*
Y5950D01*
X458Y7250D02*
Y7470D01*
Y6430D02*
Y6890D01*
Y5610D02*
Y5990D01*
X478Y7210D02*
Y7490D01*
Y6450D02*
Y6890D01*
Y5590D02*
Y6050D01*
X498Y7190D02*
Y7510D01*
Y6450D02*
Y6890D01*
Y5570D02*
Y6090D01*
X518Y7170D02*
Y7510D01*
Y6470D02*
Y6890D01*
Y5550D02*
Y6130D01*
X538Y7150D02*
Y7530D01*
Y6470D02*
Y6890D01*
Y5530D02*
Y6170D01*
X558Y7150D02*
Y7530D01*
Y6490D02*
Y6890D01*
Y5530D02*
Y6190D01*
X578Y7130D02*
Y7550D01*
Y6510D02*
Y6890D01*
Y5510D02*
Y6230D01*
X598Y7110D02*
Y7550D01*
Y6510D02*
Y6890D01*
Y5510D02*
Y6250D01*
X618Y7110D02*
Y7550D01*
Y6530D02*
Y6890D01*
Y5510D02*
Y6270D01*
X638Y7090D02*
Y7550D01*
Y6550D02*
Y6890D01*
Y5510D02*
Y6290D01*
X658Y7090D02*
Y7550D01*
Y6550D02*
Y6870D01*
Y5510D02*
Y6310D01*
X678Y7070D02*
Y7530D01*
Y6570D02*
Y6870D01*
Y5510D02*
Y6330D01*
X698Y7070D02*
Y7530D01*
Y6590D02*
Y6870D01*
Y5510D02*
Y6370D01*
X718Y7050D02*
Y7510D01*
Y6610D02*
Y6870D01*
Y5530D02*
Y6390D01*
X738Y7050D02*
Y7510D01*
Y6610D02*
Y6870D01*
Y5550D02*
Y6390D01*
X758Y7030D02*
Y7490D01*
Y6630D02*
Y6850D01*
Y5570D02*
Y6410D01*
X778Y7030D02*
Y7470D01*
Y6630D02*
Y6850D01*
Y5610D02*
Y6430D01*
X798Y7010D02*
Y7470D01*
Y6650D02*
Y6830D01*
Y5670D02*
Y6450D01*
X818Y6990D02*
Y7430D01*
Y6650D02*
Y6830D01*
Y6170D02*
Y6450D01*
X838Y6990D02*
Y7410D01*
Y6650D02*
Y6810D01*
Y6230D02*
Y6470D01*
X858Y6970D02*
Y7390D01*
Y6650D02*
Y6810D01*
Y6270D02*
Y6470D01*
X878Y6950D02*
Y7370D01*
Y6650D02*
Y6790D01*
Y6310D02*
Y6490D01*
X898Y6930D02*
Y7330D01*
Y6670D02*
Y6790D01*
Y6350D02*
Y6490D01*
X918Y6930D02*
Y7310D01*
Y6650D02*
Y6770D01*
Y6390D02*
Y6510D01*
X938Y6910D02*
Y7270D01*
Y6650D02*
Y6750D01*
Y6410D02*
Y6510D01*
X958Y6890D02*
Y7230D01*
Y6650D02*
Y6730D01*
Y6430D02*
Y6530D01*
X978Y6870D02*
Y7210D01*
Y6650D02*
Y6730D01*
Y6450D02*
Y6530D01*
X998Y6830D02*
Y7170D01*
Y6630D02*
Y6710D01*
Y6470D02*
Y6530D01*
X1018Y6810D02*
Y7110D01*
Y6630D02*
Y6690D01*
Y6490D02*
Y6530D01*
X1038Y6770D02*
Y7070D01*
Y6610D02*
Y6670D01*
Y6510D02*
Y6530D01*
X1058Y6730D02*
Y7010D01*
Y6610D02*
Y6630D01*
Y6510D02*
Y6550D01*
X1078Y6670D02*
Y6890D01*
M02*
