G04*
G04 #@! TF.GenerationSoftware,Altium Limited,Altium Designer,18.1.7 (191)*
G04*
G04 Layer_Physical_Order=1*
G04 Layer_Color=2441676*
%FSLAX24Y24*%
%MOIN*%
G70*
G01*
G75*
%ADD14C,0.0100*%
%ADD15R,0.0709X0.1772*%
%ADD16R,0.0394X0.1969*%
%ADD17R,0.0200X0.0200*%
%ADD18R,0.1299X0.0315*%
%ADD19R,0.1181X0.0315*%
%ADD20R,0.0472X0.0551*%
%ADD21R,0.0118X0.0354*%
%ADD22R,0.0354X0.0118*%
%ADD23R,0.0394X0.0394*%
%ADD24R,0.0197X0.0197*%
%ADD25R,0.0197X0.0197*%
%ADD42C,0.0300*%
%ADD43C,0.0200*%
%ADD44C,0.0591*%
%ADD45R,0.0591X0.0591*%
%ADD46R,0.0900X0.0900*%
%ADD47C,0.0250*%
%ADD48C,0.0200*%
%ADD49C,0.0276*%
%ADD50C,0.0300*%
G36*
X2777Y8146D02*
X2761Y8134D01*
X2747Y8115D01*
X2734Y8089D01*
X2724Y8054D01*
X2715Y8012D01*
X2709Y7963D01*
X2701Y7841D01*
X2700Y7768D01*
X2500D01*
X2499Y7841D01*
X2485Y8012D01*
X2476Y8054D01*
X2466Y8089D01*
X2453Y8115D01*
X2439Y8134D01*
X2423Y8146D01*
X2404Y8150D01*
X2796D01*
X2777Y8146D01*
D02*
G37*
G36*
X1934Y4258D02*
X1941Y4247D01*
X1942Y4239D01*
X1935Y4232D01*
X1971Y4217D01*
Y4084D01*
X1964D01*
Y3897D01*
X1502D01*
Y3890D01*
X1404D01*
X1353Y3900D01*
Y3994D01*
X1016D01*
Y3658D01*
X1016Y3658D01*
X1016Y3608D01*
X929D01*
Y3737D01*
X884D01*
Y4355D01*
X1837D01*
X1934Y4258D01*
D02*
G37*
G36*
X300Y10145D02*
X2298D01*
Y8054D01*
X2402D01*
X2407Y8037D01*
X2414Y8002D01*
X2427Y7850D01*
Y7768D01*
X2432Y7744D01*
Y7638D01*
X2430Y7588D01*
X2430Y7551D01*
Y7435D01*
X2427Y7419D01*
Y7050D01*
Y6700D01*
X2432Y6675D01*
X2432Y6532D01*
X2432Y6482D01*
Y6375D01*
X2427Y6350D01*
Y6000D01*
Y5634D01*
X2432Y5610D01*
X2432Y5466D01*
X2384Y5460D01*
X2109D01*
Y5380D01*
X2090Y5351D01*
X2077Y5284D01*
X2090Y5218D01*
X2091Y5216D01*
X2077Y5157D01*
X2068Y5153D01*
X1732D01*
Y4816D01*
X1687Y4804D01*
X748D01*
X662Y4787D01*
X590Y4738D01*
X541Y4665D01*
X524Y4579D01*
X538Y4510D01*
Y3737D01*
X396D01*
Y3696D01*
X323D01*
X257Y3683D01*
X201Y3646D01*
X138Y3583D01*
X91Y3602D01*
Y9886D01*
X91Y9887D01*
X91Y9936D01*
X100Y9983D01*
X107Y10016D01*
X152Y10084D01*
X220Y10130D01*
X298Y10145D01*
X300Y10145D01*
D02*
G37*
G36*
X3628Y3134D02*
Y2874D01*
X3637Y2827D01*
X3663Y2787D01*
X4528Y1923D01*
Y1705D01*
X4478Y1688D01*
X4461Y1711D01*
X4384Y1769D01*
X4295Y1806D01*
X4200Y1818D01*
X4105Y1806D01*
X4016Y1769D01*
X3939Y1711D01*
X3881Y1634D01*
X3844Y1545D01*
X3832Y1450D01*
X3844Y1355D01*
X3881Y1266D01*
X3939Y1189D01*
X4016Y1131D01*
X4105Y1094D01*
X4200Y1082D01*
X4295Y1094D01*
X4384Y1131D01*
X4409Y1090D01*
X4342Y1022D01*
X3011D01*
X2992Y1069D01*
X3043Y1120D01*
X3105Y1094D01*
X3200Y1082D01*
X3295Y1094D01*
X3384Y1131D01*
X3461Y1189D01*
X3519Y1266D01*
X3556Y1355D01*
X3568Y1450D01*
X3556Y1545D01*
X3519Y1634D01*
X3461Y1711D01*
X3384Y1769D01*
X3295Y1806D01*
X3220Y1816D01*
X3223Y1866D01*
X3418D01*
Y2203D01*
X3361D01*
Y2413D01*
X3365Y2433D01*
X3361Y2452D01*
Y2503D01*
X3340D01*
X3329Y2519D01*
X3289Y2546D01*
X3243Y2555D01*
Y2555D01*
X3241Y2553D01*
X3151Y2571D01*
X3082Y2617D01*
X3038Y2661D01*
X3039Y2662D01*
X3025Y2684D01*
X3020Y2709D01*
X3019D01*
X3016Y2720D01*
Y2768D01*
X3066Y2774D01*
X3109Y2709D01*
X3174Y2666D01*
X3250Y2651D01*
X3326Y2666D01*
X3391Y2709D01*
X3434Y2774D01*
X3449Y2850D01*
X3434Y2926D01*
X3391Y2991D01*
X3379Y2998D01*
X3381Y3048D01*
X3485D01*
Y3206D01*
X3535Y3226D01*
X3628Y3134D01*
D02*
G37*
G36*
X5100Y10145D02*
D01*
X5149Y10136D01*
X5180Y10130D01*
X5248Y10084D01*
X5293Y10016D01*
X5309Y9938D01*
X5309Y9936D01*
Y350D01*
X5309Y349D01*
X5309Y300D01*
X5300Y254D01*
X5293Y220D01*
X5248Y152D01*
X5180Y107D01*
X5102Y91D01*
X5100Y91D01*
X4415D01*
X4398Y141D01*
X4461Y189D01*
X4519Y266D01*
X4556Y355D01*
X4568Y450D01*
X4556Y545D01*
X4519Y634D01*
X4461Y711D01*
X4430Y734D01*
X4439Y787D01*
X4479Y813D01*
X4737Y1071D01*
X4763Y1111D01*
X4772Y1157D01*
Y1974D01*
X4763Y2020D01*
X4737Y2060D01*
X3872Y2924D01*
Y3184D01*
X3863Y3231D01*
X3837Y3271D01*
X3705Y3402D01*
X3724Y3449D01*
X3833D01*
X3879Y3458D01*
X3919Y3484D01*
X3947Y3512D01*
X4443D01*
X4489Y3453D01*
X4533Y3346D01*
X4544Y3264D01*
Y2873D01*
X4634D01*
Y2584D01*
X4639Y2560D01*
Y2416D01*
X4783D01*
X4807Y2411D01*
X4832Y2416D01*
X4976D01*
Y2560D01*
X4981Y2584D01*
Y2716D01*
X4991Y2791D01*
X5023Y2869D01*
X5026Y2873D01*
X5156D01*
Y3564D01*
X4761D01*
X4709Y3598D01*
X4598Y3709D01*
X4592Y3717D01*
X4591Y3716D01*
X4591Y3716D01*
X4587Y3721D01*
X4547Y3747D01*
X4500Y3757D01*
X4487D01*
Y4430D01*
X4422D01*
Y4511D01*
X4443Y4553D01*
X4449Y4555D01*
X4494Y4566D01*
X4618D01*
Y4903D01*
X4282D01*
Y4779D01*
X4271Y4733D01*
X4268Y4727D01*
X4269Y4726D01*
X4213Y4671D01*
X4187Y4631D01*
X4178Y4584D01*
Y4575D01*
X4161Y4493D01*
X4119Y4430D01*
X3874D01*
Y4258D01*
X3846Y4246D01*
X3776Y4237D01*
Y4237D01*
X3704D01*
X3697Y4237D01*
Y4237D01*
X3534D01*
X3487Y4227D01*
X3448Y4201D01*
X3343Y4096D01*
X3337Y4094D01*
X3016D01*
Y4403D01*
X3643D01*
X3667Y4408D01*
X3811D01*
Y4552D01*
X3816Y4577D01*
X3811Y4601D01*
Y4745D01*
X3667D01*
X3643Y4750D01*
X3422D01*
X3413Y4763D01*
X3414Y4767D01*
X3435Y4801D01*
X3442Y4808D01*
X3583D01*
X3607Y4803D01*
X3632Y4808D01*
X3776D01*
Y4952D01*
X3781Y4977D01*
Y5158D01*
X3811D01*
Y5302D01*
X3816Y5327D01*
X3811Y5351D01*
Y5495D01*
X3667D01*
X3643Y5500D01*
X3618Y5495D01*
X3474D01*
Y5398D01*
X3447Y5358D01*
X3434Y5292D01*
Y5192D01*
X3426Y5145D01*
X3317D01*
X3293Y5150D01*
X3268Y5145D01*
X3118D01*
Y5260D01*
X3123Y5284D01*
X3118Y5309D01*
Y5439D01*
X3024D01*
X3016Y5444D01*
X2950Y5458D01*
X2815D01*
X2768Y5466D01*
X2768Y5508D01*
Y5610D01*
X2773Y5634D01*
Y6000D01*
Y6350D01*
X2768Y6375D01*
X2768Y6518D01*
X2768Y6568D01*
Y6675D01*
X2773Y6700D01*
Y7050D01*
Y7419D01*
X2770Y7435D01*
X2770Y7588D01*
X2768Y7638D01*
Y7744D01*
X2773Y7768D01*
Y7855D01*
X2780Y7956D01*
X2786Y8000D01*
X2793Y8037D01*
X2798Y8054D01*
X2898D01*
Y10145D01*
X5051D01*
X5100Y10145D01*
D02*
G37*
G36*
X1502Y3442D02*
X1964D01*
Y3306D01*
X1502D01*
Y3225D01*
X1333Y3056D01*
X1323Y3042D01*
X1308Y3027D01*
X1282Y2987D01*
X1273Y2940D01*
Y2255D01*
X1282Y2208D01*
X1308Y2168D01*
X1503Y1974D01*
Y1729D01*
X1453Y1716D01*
X1384Y1769D01*
X1295Y1806D01*
X1200Y1818D01*
X1105Y1806D01*
X1016Y1769D01*
X939Y1711D01*
X881Y1634D01*
X876Y1623D01*
X607D01*
X373Y1857D01*
Y3163D01*
X396Y3204D01*
X929D01*
Y3261D01*
X1143D01*
X1209Y3274D01*
X1246Y3299D01*
X1360D01*
Y3371D01*
X1437Y3449D01*
X1502D01*
Y3442D01*
D02*
G37*
G36*
X413Y1327D02*
X469Y1290D01*
X536Y1277D01*
X876D01*
X881Y1266D01*
X939Y1189D01*
X1016Y1131D01*
X1105Y1094D01*
X1200Y1082D01*
X1295Y1094D01*
X1384Y1131D01*
X1461Y1189D01*
X1474Y1207D01*
X1535Y1205D01*
X1539Y1199D01*
X1812Y926D01*
X1852Y899D01*
X1899Y890D01*
X2396D01*
X2417Y840D01*
X2357Y780D01*
X2295Y806D01*
X2200Y818D01*
X2105Y806D01*
X2016Y769D01*
X1939Y711D01*
X1881Y634D01*
X1844Y545D01*
X1832Y450D01*
X1844Y355D01*
X1881Y266D01*
X1939Y189D01*
X2002Y141D01*
X1985Y91D01*
X350D01*
X349Y91D01*
X300Y91D01*
X254Y100D01*
X220Y107D01*
X152Y152D01*
X107Y220D01*
X91Y298D01*
X91Y300D01*
Y1584D01*
X138Y1603D01*
X413Y1327D01*
D02*
G37*
%LPC*%
G36*
X2964Y7818D02*
X2927Y7803D01*
X2899Y7775D01*
X2884Y7738D01*
Y7588D01*
X2830D01*
Y7435D01*
X2827Y7419D01*
X2830Y7402D01*
Y7248D01*
X2884D01*
Y7208D01*
X2894Y7157D01*
X2914Y7108D01*
X2943Y7065D01*
X2980Y7028D01*
X3023Y6999D01*
X3072Y6979D01*
X3123Y6969D01*
X5000D01*
X5025Y6974D01*
X5066Y7002D01*
X5094Y7044D01*
X5103Y7094D01*
X5098Y7118D01*
X5098Y7118D01*
X5098Y7657D01*
X5105Y7683D01*
X5096Y7736D01*
X5069Y7781D01*
X5026Y7812D01*
X5000Y7818D01*
X5000Y7818D01*
X2964Y7818D01*
D02*
G37*
%LPD*%
G36*
X3551Y7247D02*
X3547Y7261D01*
X3535Y7273D01*
X3515Y7284D01*
X3487Y7293D01*
X3451Y7301D01*
X3407Y7307D01*
X3295Y7316D01*
X3151Y7319D01*
Y7519D01*
X3227Y7519D01*
X3515Y7539D01*
X3535Y7545D01*
X3547Y7552D01*
X3551Y7560D01*
Y7247D01*
D02*
G37*
D14*
X863Y2884D02*
G03*
X662Y2801I0J-283D01*
G01*
Y2967D02*
G03*
X863Y2884I200J200D01*
G01*
X1249Y3434D02*
G03*
X1184Y3407I0J-91D01*
G01*
X1191Y3467D02*
G03*
X1250Y3434I59J36D01*
G01*
X1155Y3490D02*
G03*
X1387Y3571I31J281D01*
G01*
X2849Y4868D02*
G03*
X2691Y4486I382J-382D01*
G01*
X2494Y4502D02*
G03*
X2336Y4884I-540J0D01*
G01*
X2896Y2709D02*
G03*
X2952Y2575I189J0D01*
G01*
X3356Y3974D02*
G03*
X3420Y4000I0J91D01*
G01*
X1184Y3861D02*
G03*
X1409Y3768I225J225D01*
G01*
X1249Y4134D02*
G03*
X1184Y4107I0J-91D01*
G01*
Y4176D02*
G03*
X1285Y4134I101J101D01*
G01*
X1249D02*
G03*
X1184Y4107I0J-91D01*
G01*
X1191Y4167D02*
G03*
X1250Y4134I59J36D01*
G01*
X2867Y4887D02*
G03*
X2902Y4969I-83J83D01*
G01*
X2950Y4921D02*
G03*
X2867Y4887I0J-117D01*
G01*
X1067Y3044D02*
G03*
X1102Y3127I-83J83D01*
G01*
X1150Y3078D02*
G03*
X1067Y3044I0J-117D01*
G01*
X1267Y3127D02*
G03*
X1184Y3093I0J-117D01*
G01*
Y3161D02*
G03*
X1267Y3127I83J83D01*
G01*
X1150Y3175D02*
G03*
X1453Y3301I0J429D01*
G01*
X1150Y3075D02*
G03*
X1282Y3130I0J187D01*
G01*
X4360Y4644D02*
G03*
X4394Y4727I-83J83D01*
G01*
X4443Y4678D02*
G03*
X4360Y4644I0J-117D01*
G01*
X2989Y2538D02*
G03*
X3243Y2433I253J253D01*
G01*
X4103Y4264D02*
G03*
X4300Y4584I-160J320D01*
G01*
X4148Y4175D02*
G03*
X4300Y4422I-124J247D01*
G01*
X3776Y4114D02*
G03*
X4055Y4230I0J394D01*
G01*
Y3966D02*
G03*
X3697Y4114I-357J-357D01*
G01*
X4125Y4037D02*
G03*
X3939Y4114I-186J-186D01*
G01*
X4618Y3517D02*
G03*
X4856Y3418I238J238D01*
G01*
X4669Y3232D02*
G03*
X4504Y3630I-563J0D01*
G01*
X4769Y3232D02*
G03*
X4675Y3459I-321J0D01*
G01*
X3358Y3768D02*
G03*
X3647Y3887I0J408D01*
G01*
X1250Y4134D02*
G03*
X1440Y4229I0J237D01*
G01*
X1560Y4140D02*
G03*
X1570Y4015I77J-57D01*
G01*
X3100Y2034D02*
X3243D01*
X2850Y2284D02*
X3100Y2034D01*
X1143Y3434D02*
X1250D01*
X2762Y1012D02*
X3200Y1450D01*
X1899Y1012D02*
X2762D01*
X1625Y1286D02*
X1899Y1012D01*
X550Y2884D02*
X907D01*
X3238Y3177D02*
X3250Y3165D01*
Y2850D02*
Y3165D01*
X1827Y2827D02*
X2100D01*
X1650Y2650D02*
X1827Y2827D01*
X1395Y2940D02*
X1420Y2965D01*
X1395Y2255D02*
X1625Y2025D01*
X1395Y2255D02*
Y2940D01*
X1625Y1286D02*
Y2025D01*
X1420Y2970D02*
X1627Y3177D01*
X1420Y2965D02*
Y2970D01*
X1627Y3177D02*
X1750D01*
X2905Y900D02*
X4393D01*
X2775Y770D02*
X2905Y900D01*
X2183Y2100D02*
X2297Y2214D01*
X2520Y770D02*
X2775D01*
X2200Y450D02*
X2520Y770D01*
X2297Y2214D02*
Y2827D01*
X2494Y2180D02*
Y2827D01*
Y2180D02*
X2750Y1924D01*
X2691Y2444D02*
Y2827D01*
Y2444D02*
X2850Y2284D01*
X2887Y2639D02*
Y2827D01*
Y2639D02*
X3193Y2334D01*
X4393Y900D02*
X4650Y1157D01*
Y1974D01*
X3750Y2874D02*
X4650Y1974D01*
X3750Y2874D02*
Y3184D01*
X2288Y4327D02*
Y4347D01*
X907Y2884D02*
X1150Y3127D01*
X1209Y3768D02*
X1750D01*
X1620Y3965D02*
X1750D01*
X1450Y4134D02*
X1620Y3965D01*
X1250Y4134D02*
X1450D01*
X1150Y3127D02*
X1279D01*
X1526Y3374D01*
X1750D01*
X1250Y3434D02*
X1387Y3571D01*
X1150Y3827D02*
X1209Y3768D01*
X3560Y3374D02*
X3750Y3184D01*
X3238Y3374D02*
X3560D01*
X3833Y3571D02*
X3896Y3634D01*
X4500D02*
X4806Y3329D01*
Y3185D02*
Y3329D01*
X3896Y3634D02*
X4500D01*
X3500Y3571D02*
X3833D01*
X3384Y3965D02*
X3534Y4114D01*
X3500Y3571D02*
X3584D01*
X3238D02*
X3500D01*
X3534Y4114D02*
X4199D01*
X3633Y3768D02*
X3700Y3834D01*
X3238Y3965D02*
X3384D01*
X3238Y3768D02*
X3633D01*
X4199Y4114D02*
X4300Y4215D01*
X2884Y4468D02*
X2993Y4577D01*
X2884Y4382D02*
Y4468D01*
X2849Y4868D02*
X2950Y4969D01*
X2691Y4315D02*
Y4486D01*
X2494Y4315D02*
Y4502D01*
X2250Y4969D02*
X2336Y4884D01*
X1387Y3571D02*
X1750D01*
X4300Y4215D02*
Y4584D01*
X4443Y4727D01*
D15*
X3860Y9231D02*
D03*
X1340D02*
D03*
D16*
X2600Y9133D02*
D03*
D17*
X3000Y7419D02*
D03*
X2600D02*
D03*
D18*
X4357Y6774D02*
D03*
X4199Y7404D02*
D03*
D19*
X4357Y8033D02*
D03*
D20*
X4850Y3218D02*
D03*
X4181D02*
D03*
Y4084D02*
D03*
X4850D02*
D03*
D21*
X2100Y4315D02*
D03*
X2297D02*
D03*
X2887D02*
D03*
X2691Y2827D02*
D03*
X2494D02*
D03*
X2100D02*
D03*
X2297D02*
D03*
X2887D02*
D03*
X2691Y4315D02*
D03*
X2494D02*
D03*
D22*
X3238Y3768D02*
D03*
X1750Y3571D02*
D03*
X3238Y3177D02*
D03*
X1750Y3965D02*
D03*
Y3374D02*
D03*
X3238Y3571D02*
D03*
Y3374D02*
D03*
Y3965D02*
D03*
X1750Y3768D02*
D03*
Y3177D02*
D03*
D23*
X662Y3471D02*
D03*
Y2801D02*
D03*
D24*
X1184Y3826D02*
D03*
Y4176D02*
D03*
X2600Y6350D02*
D03*
Y6700D02*
D03*
Y5634D02*
D03*
Y5284D02*
D03*
X2278Y5291D02*
D03*
Y4941D02*
D03*
X1250Y4984D02*
D03*
Y4634D02*
D03*
X1191Y3467D02*
D03*
Y3117D02*
D03*
X2950Y4921D02*
D03*
Y5271D02*
D03*
X2600Y7768D02*
D03*
Y7419D02*
D03*
D25*
X3257Y4977D02*
D03*
X3607D02*
D03*
X4800Y4734D02*
D03*
X4450D02*
D03*
X4807Y2584D02*
D03*
X4457D02*
D03*
X3643Y4577D02*
D03*
X3993D02*
D03*
X3600Y2034D02*
D03*
X3250D02*
D03*
X3643Y5327D02*
D03*
X3993D02*
D03*
X3193Y2334D02*
D03*
X3543D02*
D03*
X2600Y7050D02*
D03*
X2250D02*
D03*
Y6000D02*
D03*
X2600D02*
D03*
X1550Y4984D02*
D03*
X1900D02*
D03*
D42*
X2106Y4403D02*
G03*
X2100Y4406I-6J-6D01*
G01*
X748Y4579D02*
X1930D01*
X2195Y4315D01*
D43*
X4952Y3057D02*
G03*
X4807Y2708I349J-349D01*
G01*
X4184Y7419D02*
X4199Y7404D01*
X3000Y7419D02*
X4184D01*
X2600Y7768D02*
Y9034D01*
Y7050D02*
Y7419D01*
Y6700D02*
Y7050D01*
Y6000D02*
Y6350D01*
Y5634D02*
Y6000D01*
X200Y1786D02*
Y3400D01*
Y1786D02*
X536Y1450D01*
X200Y3400D02*
X323Y3523D01*
X711D01*
X2993Y4577D02*
X3643D01*
X536Y1450D02*
X1200D01*
X800Y3434D02*
X1143D01*
X4807Y3144D02*
X4856Y3193D01*
X4807Y2584D02*
Y3144D01*
X711Y3523D02*
Y4606D01*
X2250Y5284D02*
X2950D01*
X3607Y5292D02*
X3643Y5327D01*
X3607Y4977D02*
Y5292D01*
X3285Y4969D02*
X3293Y4977D01*
X2950Y4969D02*
X3285D01*
X1915D02*
X2250D01*
X1907Y4977D02*
X1915Y4969D01*
D44*
X4200Y1450D02*
D03*
Y450D02*
D03*
X3200Y1450D02*
D03*
Y450D02*
D03*
X2200Y1450D02*
D03*
Y450D02*
D03*
X1200Y1450D02*
D03*
D45*
Y450D02*
D03*
D46*
X2486Y3561D02*
D03*
D47*
X4300Y2750D02*
D03*
X450Y4969D02*
D03*
X5105Y500D02*
D03*
X5069Y1300D02*
D03*
X5080Y2000D02*
D03*
X300Y350D02*
D03*
X650Y2025D02*
D03*
X3800Y2334D02*
D03*
X3250Y2850D02*
D03*
X1650Y2650D02*
D03*
X2183Y2100D02*
D03*
X2750Y1924D02*
D03*
X450Y950D02*
D03*
X3896Y7850D02*
D03*
X3910Y9200D02*
D03*
X1400Y8600D02*
D03*
Y9200D02*
D03*
X2000Y7950D02*
D03*
X5150Y6084D02*
D03*
X5166Y7134D02*
D03*
X3300Y5594D02*
D03*
X2000Y5650D02*
D03*
X3250Y4606D02*
D03*
X1500Y4184D02*
D03*
X1950Y6000D02*
D03*
X2150Y6500D02*
D03*
X350Y4034D02*
D03*
X700Y5550D02*
D03*
X5105Y8600D02*
D03*
X4600Y9234D02*
D03*
X600D02*
D03*
X5150Y6550D02*
D03*
X3910Y8484D02*
D03*
X600D02*
D03*
Y7734D02*
D03*
X4600Y6400D02*
D03*
X3356Y8054D02*
D03*
X1915Y6850D02*
D03*
X3700Y5950D02*
D03*
X3250Y6750D02*
D03*
X3800Y6440D02*
D03*
X600Y6234D02*
D03*
Y6984D02*
D03*
X2100Y7450D02*
D03*
X1350Y6234D02*
D03*
X1400Y5334D02*
D03*
X1050Y2400D02*
D03*
X4050Y4934D02*
D03*
X5100Y4634D02*
D03*
X2850Y2284D02*
D03*
X3700Y3834D02*
D03*
D48*
X3050Y6500D02*
D03*
X2950Y5850D02*
D03*
Y6200D02*
D03*
Y6850D02*
D03*
X3050Y8000D02*
D03*
X1360Y9800D02*
D03*
X3860D02*
D03*
X3238Y8450D02*
D03*
X3174Y8950D02*
D03*
X3238Y9450D02*
D03*
X3193Y9900D02*
D03*
X1985Y8550D02*
D03*
X2000Y9034D02*
D03*
X1971Y9500D02*
D03*
X1985Y9936D02*
D03*
X5066Y9800D02*
D03*
X4500Y9900D02*
D03*
X607Y9800D02*
D03*
X261Y9886D02*
D03*
X4450Y5650D02*
D03*
X3255Y4254D02*
D03*
X4100Y2028D02*
D03*
X4784Y250D02*
D03*
X5166Y900D02*
D03*
X5050Y1629D02*
D03*
X5146Y2350D02*
D03*
X5166Y2715D02*
D03*
X5146Y3727D02*
D03*
Y4200D02*
D03*
X5082Y5050D02*
D03*
X5100Y5601D02*
D03*
X5105Y7700D02*
D03*
X5146Y8139D02*
D03*
Y9150D02*
D03*
X1209Y6834D02*
D03*
X947Y6450D02*
D03*
X1550Y7350D02*
D03*
X1395Y8100D02*
D03*
X1100Y7550D02*
D03*
X950Y9200D02*
D03*
X250Y9204D02*
D03*
Y8800D02*
D03*
X261Y8091D02*
D03*
X300Y7350D02*
D03*
X250Y6600D02*
D03*
Y5935D02*
D03*
X261Y5400D02*
D03*
X300Y4422D02*
D03*
D49*
X2183Y3258D02*
D03*
X2796Y3881D02*
D03*
X2806Y3261D02*
D03*
X2186Y3881D02*
D03*
D50*
X1850Y4589D02*
D03*
M02*
