M48
;Layer_Color=9474304
;FILE_FORMAT=2:4
INCH,LZ
;TYPE=PLATED
T1F00S00C0.0100
T2F00S00C0.0120
T3F00S00C0.0157
T4F00S00C0.0315
T5F00S00C0.0354
T6F00S00C0.0394
%
T01
X0003Y004422
X000261Y0054
X003255Y004254
X005146Y0042
Y003727
X005166Y002715
X005146Y00235
X00505Y001629
X005166Y0009
X004784Y00025
X0041Y002028
X005082Y00505
X0051Y005601
X00445Y00565
X00295Y00585
Y0062
X00305Y0065
X00295Y00685
X00305Y008
X003238Y00845
X003174Y00895
X003238Y00945
X003193Y0099
X00386Y0098
X0045Y0099
X005066Y0098
X005146Y00915
Y008139
X005105Y0077
X00155Y00735
X0011Y00755
X001209Y006834
X000947Y00645
X00025Y0066
Y005935
X0003Y00735
X000261Y008091
X00025Y0088
Y009204
X000261Y009886
X000607Y0098
X00136
X001985Y009936
X001971Y0095
X002Y009034
X001985Y00855
X001395Y0081
X00095Y0092
T02
X0003Y00035
X00045Y00095
X00065Y002025
X00105Y0024
X00165Y00265
X002183Y0021
X00275Y001924
X00285Y002284
X00325Y00285
X0038Y002334
X0043Y00275
X00508Y002
X005069Y0013
X005105Y0005
X0051Y004634
X00405Y004934
X00325Y004606
X0037Y003834
X0015Y004184
X00185Y004589
X0014Y005334
X0007Y00555
X00045Y004969
X00035Y004034
X0006Y006234
Y006984
Y007734
Y008484
Y009234
X0014Y0092
Y0086
X002Y00795
X0021Y00745
X001915Y00685
X00215Y0065
X00195Y006
X002Y00565
X00135Y006234
X00325Y00675
X0038Y00644
X0037Y00595
X0033Y005594
X0046Y0064
X00515Y00655
Y006084
X005166Y007134
X005105Y0086
X0046Y009234
X00391Y0092
Y008484
X003896Y00785
X003356Y008054
T03
X002183Y003258
X002806Y003261
X002796Y003881
X002186
T04
X002486Y003561
T05
X0012Y00045
X0022
X0032
X0042
Y00145
X0032
X0022
X0012
T06
X002486Y003561
M30
