G04*
G04 #@! TF.GenerationSoftware,Altium Limited,Altium Designer,18.1.7 (191)*
G04*
G04 Layer_Color=8388736*
%FSLAX24Y24*%
%MOIN*%
G70*
G01*
G75*
%ADD26R,0.0810X0.0810*%
%ADD27R,0.0789X0.1852*%
%ADD28R,0.0474X0.2049*%
%ADD29R,0.0280X0.0280*%
%ADD30R,0.1379X0.0395*%
%ADD31R,0.1261X0.0395*%
%ADD32R,0.0552X0.0631*%
%ADD33R,0.0198X0.0434*%
%ADD34R,0.0434X0.0198*%
%ADD35R,0.0474X0.0474*%
%ADD36R,0.0277X0.0277*%
%ADD37R,0.0277X0.0277*%
%ADD38C,0.0080*%
%ADD39C,0.0671*%
%ADD40R,0.0671X0.0671*%
%ADD41R,0.0980X0.0980*%
D26*
X2491Y3566D02*
D03*
X2485Y3572D02*
D03*
D27*
X3860Y9231D02*
D03*
X1340D02*
D03*
D28*
X2600Y9133D02*
D03*
D29*
X3000Y7419D02*
D03*
X2600D02*
D03*
D30*
X4357Y6774D02*
D03*
X4199Y7404D02*
D03*
D31*
X4357Y8033D02*
D03*
D32*
X4850Y3218D02*
D03*
X4181D02*
D03*
Y4084D02*
D03*
X4850D02*
D03*
D33*
X2100Y4315D02*
D03*
X2297D02*
D03*
X2887D02*
D03*
X2691Y2827D02*
D03*
X2494D02*
D03*
X2100D02*
D03*
X2297D02*
D03*
X2887D02*
D03*
X2691Y4315D02*
D03*
X2494D02*
D03*
D34*
X3238Y3768D02*
D03*
X1750Y3571D02*
D03*
X3238Y3177D02*
D03*
X1750Y3965D02*
D03*
Y3374D02*
D03*
X3238Y3571D02*
D03*
Y3374D02*
D03*
Y3965D02*
D03*
X1750Y3768D02*
D03*
Y3177D02*
D03*
D35*
X662Y3471D02*
D03*
Y2801D02*
D03*
D36*
X1184Y3826D02*
D03*
Y4176D02*
D03*
X2600Y6350D02*
D03*
Y6700D02*
D03*
Y5634D02*
D03*
Y5284D02*
D03*
X2278Y5291D02*
D03*
Y4941D02*
D03*
X1250Y4984D02*
D03*
Y4634D02*
D03*
X1191Y3467D02*
D03*
Y3117D02*
D03*
X2950Y4921D02*
D03*
Y5271D02*
D03*
X2600Y7768D02*
D03*
Y7419D02*
D03*
D37*
X3257Y4977D02*
D03*
X3607D02*
D03*
X4800Y4734D02*
D03*
X4450D02*
D03*
X4807Y2584D02*
D03*
X4457D02*
D03*
X3643Y4577D02*
D03*
X3993D02*
D03*
X3600Y2034D02*
D03*
X3250D02*
D03*
X3643Y5327D02*
D03*
X3993D02*
D03*
X3193Y2334D02*
D03*
X3543D02*
D03*
X2600Y7050D02*
D03*
X2250D02*
D03*
Y6000D02*
D03*
X2600D02*
D03*
X1550Y4984D02*
D03*
X1900D02*
D03*
D38*
X2486Y3561D02*
D03*
D39*
X4200Y1450D02*
D03*
Y450D02*
D03*
X3200Y1450D02*
D03*
Y450D02*
D03*
X2200Y1450D02*
D03*
Y450D02*
D03*
X1200Y1450D02*
D03*
D40*
Y450D02*
D03*
D41*
X2486Y3561D02*
D03*
M02*
